<?xml version="1.0" encoding="UTF-8" standalone="no" ?>
<!DOCTYPE svg PUBLIC "-//W3C//DTD SVG 1.1//EN" "http://www.w3.org/Graphics/SVG/1.1/DTD/svg11.dtd">
<svg xmlns="http://www.w3.org/2000/svg" xmlns:xlink="http://www.w3.org/1999/xlink" version="1.1" width="57" height="57" viewBox="280 220 57 57" xml:space="preserve">
<desc>Created with Fabric.js 4.6.0</desc>
<defs>
</defs>
<g transform="matrix(1 0 0 1 308.43 248)" id="9JnJuGhw_5tUXkXtILi46"  >
<path style="stroke: none; stroke-width: 1; stroke-dasharray: none; stroke-linecap: butt; stroke-dashoffset: 0; stroke-linejoin: miter; stroke-miterlimit: 4; fill: rgb(103,186,237); fill-rule: nonzero; opacity: 1;" vector-effect="non-scaling-stroke"  transform=" translate(-22, -22)" d="M 16 0 L 28 0 C 36.83655599729269 0 44 7.163444002707301 44 15.999999999999996 L 44 28 C 44 36.83655599729269 36.83655599729269 44 28 44 L 16 44 C 7.163444002707305 44 0 36.83655599729269 0 28 L 0 16 C 0 7.163444002707305 7.163444002707305 0 16 0 z" stroke-linecap="round" />
</g>
<g transform="matrix(0.77 0 0 0.77 308.41 248.1)" id="XVRdb4ZjzZAmi2Xw5xo19"  >
<path style="stroke: none; stroke-width: 1; stroke-dasharray: none; stroke-linecap: butt; stroke-dashoffset: 0; stroke-linejoin: miter; stroke-miterlimit: 4; fill: none; fill-rule: nonzero; opacity: 1;" vector-effect="non-scaling-stroke"  transform=" translate(-10, -10)" d="M 0 20 L 0 0 L 20 0 L 20 20 z" stroke-linecap="round" />
</g>
<g transform="matrix(1.34 0 0 1.34 308.41 248.1)" id="7DufFqFXR8qIdU65P9gDW"  >
<path style="stroke: none; stroke-width: 1; stroke-dasharray: none; stroke-linecap: butt; stroke-dashoffset: 0; stroke-linejoin: miter; stroke-miterlimit: 4; fill: none; fill-rule: nonzero; opacity: 1;" vector-effect="non-scaling-stroke"  transform=" translate(-12, -12)" d="M 0 0 L 24 0 L 24 24 L 0 24 z" stroke-linecap="round" />
</g>
<g transform="matrix(1.34 0 0 1.34 308.41 248.1)" id="VpaPiCG4mFekmhtJWNIRl"  >
<path style="stroke: none; stroke-width: 1; stroke-dasharray: none; stroke-linecap: butt; stroke-dashoffset: 0; stroke-linejoin: miter; stroke-miterlimit: 4; fill: rgb(255,255,255); fill-rule: nonzero; opacity: 1;" vector-effect="non-scaling-stroke"  transform=" translate(-12, -12)" d="M 20.01 15.38 C 18.78 15.38 17.590000000000003 15.180000000000001 16.48 14.82 C 16.13 14.700000000000001 15.74 14.790000000000001 15.47 15.06 L 13.9 17.03 C 11.07 15.680000000000001 8.42 13.13 7.010000000000001 10.200000000000001 L 8.96 8.540000000000001 C 9.23 8.260000000000002 9.31 7.870000000000001 9.200000000000001 7.520000000000001 C 8.830000000000002 6.410000000000001 8.64 5.2200000000000015 8.64 3.9900000000000015 C 8.64 3.4500000000000015 8.190000000000001 3.0000000000000018 7.65 3.0000000000000018 L 4.19 3.0000000000000018 C 3.65 3 3 3.24 3 3.99 C 3 13.28 10.73 21 20.01 21 C 20.720000000000002 21 21 20.37 21 19.82 L 21 16.37 C 21 15.830000000000002 20.55 15.38 20.01 15.38 z" stroke-linecap="round" />
</g>
</svg>