<svg width="48" height="48" viewBox="0 0 48 48" fill="none" xmlns="http://www.w3.org/2000/svg">
<path d="M22.6318 28.1425C26.732 28.1425 30.8323 28.1425 34.9325 28.1481C35.2062 28.1481 35.2883 28.0813 35.2883 27.792C35.2828 22.5221 35.2828 17.2579 35.2828 11.988C35.2828 10.7415 34.5547 10.0014 33.3285 10.0014C31.1498 10.0014 28.971 10.0014 26.7923 10.0014C21.8545 10.0014 16.9167 9.99583 11.9735 10.007C11.6559 10.007 11.3056 10.057 11.0209 10.1906C10.2929 10.5356 10.0137 11.1644 10.0137 11.9713C10.0246 17.2412 10.0191 22.5054 10.0191 27.7753C10.0191 28.137 10.0191 28.137 10.3804 28.137C14.4642 28.1425 18.548 28.1425 22.6318 28.1425Z" fill="#F0444C"/>
<path d="M43.57 25.5488C41.4077 25.5488 39.2508 25.5488 37.0885 25.5488C36.7163 25.5488 36.7163 25.5488 36.7163 25.9272C36.7163 26.8788 36.7217 27.836 36.7163 28.7875C36.7163 29.3162 36.448 29.5833 35.928 29.6055C35.8185 29.6111 35.709 29.6055 35.5995 29.6055C31.4555 29.6055 27.306 29.6055 23.162 29.6055C18.9687 29.6055 14.7755 29.6055 10.5876 29.6055C10.4946 29.6055 10.407 29.6111 10.3139 29.6055C10.1552 29.6 10.084 29.6668 10.084 29.8337C10.0895 30.7296 10.0731 31.6311 10.0895 32.5271C10.1004 33.1169 10.4672 33.4675 11.0475 33.4731C11.7427 33.4842 12.4325 33.4731 13.1277 33.4786C13.3138 33.4786 13.374 33.4063 13.4014 33.2282C13.7134 31.1359 15.6349 29.7614 17.6878 30.1509C19.1494 30.4291 20.3866 31.7536 20.5508 33.2393C20.5782 33.4619 20.6822 33.4842 20.8573 33.4842C25.4502 33.4842 30.0431 33.4786 34.636 33.4842C34.8331 33.4842 34.8933 33.4174 34.9262 33.2227C35.2163 31.3696 36.76 30.0507 38.5939 30.0841C40.1924 30.1119 41.665 31.3251 42.0263 32.9222C42.1522 33.4842 42.1522 33.4842 42.7981 33.4842C43.6302 33.4842 43.9423 33.1726 43.9423 32.3323C43.9423 30.1954 43.9423 28.053 43.9423 25.9161C43.9368 25.5488 43.9313 25.5488 43.57 25.5488ZM39.7326 27.0179C39.6997 27.3852 39.3932 27.7135 39.0483 27.7302C38.8676 27.7413 38.687 27.7302 38.5063 27.7302C38.3312 27.7302 38.1615 27.7413 37.9918 27.7302C37.6305 27.708 37.3458 27.413 37.3239 27.0458C37.2965 26.684 37.5429 26.3279 37.9042 26.2945C38.3147 26.2556 38.7363 26.2556 39.1523 26.2945C39.5026 26.3335 39.7599 26.6952 39.7326 27.0179Z" fill="#F0444C"/>
<path d="M43.3902 21.5208C42.3118 20.3911 41.2005 19.2948 40.1112 18.1763C39.717 17.7701 39.2462 17.5865 38.6879 17.5976C38.1404 17.6087 37.593 17.6143 37.0456 17.5976C36.7828 17.5865 36.7062 17.6755 36.7062 17.9426C36.7171 19.8792 36.7116 21.8101 36.7116 23.7467C36.7116 23.8468 36.7226 23.9414 36.7281 24.0583C39.1532 24.0583 41.5564 24.0583 43.9979 24.0583C43.9979 23.7188 43.9869 23.3961 43.9979 23.0733C44.0252 22.4612 43.7898 21.9381 43.3902 21.5208Z" fill="#F0444C"/>
<path d="M38.4752 31.4757C37.2271 31.4868 36.2691 32.4773 36.2746 33.7461C36.28 35.0204 37.238 35.9943 38.4916 35.9998C39.7781 36.0054 40.7306 34.9982 40.7251 33.6459C40.7197 32.4551 39.6905 31.4645 38.4752 31.4757Z" fill="#F0444C"/>
<path d="M16.9495 31.4756C15.7123 31.4812 14.7324 32.4828 14.7324 33.7405C14.7324 35.0037 15.7233 36.0053 16.9769 35.9998C18.214 35.9942 19.1939 35.0037 19.1994 33.746C19.2049 32.5107 18.1757 31.47 16.9495 31.4756Z" fill="#F0444C"/>
<path d="M7.9554 22.0713C7.10142 22.0713 6.24743 22.0713 5.38798 22.0713C4.50662 22.0713 3.62527 22.0713 2.73844 22.0713C2.40998 22.0713 2.19101 22.2494 2.05963 22.5443C1.94467 22.7947 2.00489 23.0284 2.16364 23.2455C2.34429 23.4903 2.60706 23.546 2.89172 23.546C4.53947 23.546 6.18722 23.546 7.82949 23.546C7.91161 23.546 7.99372 23.5404 8.07583 23.5293C8.51925 23.4514 8.78201 23.1397 8.75464 22.7335C8.7218 22.3328 8.40976 22.0769 7.9554 22.0713Z" fill="#F0444C"/>
<path d="M2.82056 16.7402C3.67454 16.7402 4.534 16.7402 5.38798 16.7402C6.24196 16.7402 7.10142 16.7457 7.95541 16.7402C8.40429 16.7346 8.73822 16.4118 8.74917 15.9945C8.75465 15.5827 8.44809 15.2766 7.9773 15.2766C6.24744 15.2711 4.51757 15.2711 2.78224 15.2766C2.31145 15.2766 1.99942 15.605 2.00489 16.0279C2.01584 16.4341 2.34977 16.7402 2.82056 16.7402Z" fill="#F0444C"/>
<path d="M8.0155 25.4824C7.46808 25.4657 6.92065 25.4768 6.3787 25.4768V25.4712C5.8696 25.4712 5.36049 25.4657 4.85138 25.4712C4.36965 25.4768 4.06309 25.7662 4.05762 26.1946C4.05762 26.6343 4.35323 26.9236 4.84044 26.9236C5.85865 26.9292 6.88233 26.9292 7.90054 26.9236C8.04287 26.9236 8.19615 26.8958 8.32206 26.8346C8.6122 26.6899 8.74905 26.3727 8.68884 26.0667C8.6122 25.7328 8.36038 25.4935 8.0155 25.4824Z" fill="#F0444C"/>
<path d="M4.73029 13.3291C5.83061 13.3402 6.93641 13.3347 8.03673 13.3291C8.05316 13.3291 8.07505 13.3235 8.09148 13.3235C8.45278 13.2734 8.69364 12.9896 8.69364 12.6168C8.69364 12.2495 8.42541 11.9101 8.06958 11.8989C7.51668 11.8767 6.96378 11.8934 6.40541 11.8934C6.40541 11.8878 6.40541 11.8878 6.40541 11.8823C5.8963 11.8823 5.3872 11.8767 4.87262 11.8878C4.73029 11.8878 4.57701 11.9045 4.44562 11.9602C4.13907 12.0937 3.99674 12.4276 4.06243 12.767C4.12812 13.0787 4.39636 13.3235 4.73029 13.3291Z" fill="#F0444C"/>
<path d="M7.91156 18.6715C6.89335 18.6603 5.87514 18.6659 4.85693 18.6715C4.37519 18.6715 4.06316 18.9664 4.05769 19.3949C4.05221 19.8401 4.36425 20.135 4.85693 20.1406C5.36603 20.1461 5.87514 20.1406 6.38425 20.1406C6.9043 20.1406 7.41888 20.1461 7.93893 20.1406C8.33308 20.135 8.57395 19.9569 8.66154 19.6342C8.80387 19.1166 8.46446 18.677 7.91156 18.6715Z" fill="#F0444C"/>
</svg>
