<svg width="24" height="24" viewBox="0 0 24 24" fill="none" xmlns="http://www.w3.org/2000/svg">
<path d="M24 12C24 18.6274 18.6274 24 12 24C5.37258 24 0 18.6274 0 12C0 5.37258 5.37258 0 12 0C18.6274 0 24 5.37258 24 12Z" fill="#4FCE75"/>
<path d="M12 5C8.136 5 5 8.136 5 12C5 15.864 8.136 19 12 19C15.864 19 19 15.864 19 12C19 8.136 15.864 5 12 5ZM10.103 15.003L7.59 12.49C7.317 12.217 7.317 11.776 7.59 11.503C7.863 11.23 8.304 11.23 8.577 11.503L10.6 13.519L15.416 8.703C15.689 8.43 16.13 8.43 16.403 8.703C16.676 8.976 16.676 9.417 16.403 9.69L11.09 15.003C10.824 15.276 10.376 15.276 10.103 15.003Z" fill="white"/>
</svg>
