<svg width="24" height="24" viewBox="0 0 24 24" fill="none" xmlns="http://www.w3.org/2000/svg">
<path d="M11.9949 1.00306C14.1583 1.00306 16.3247 1.00612 18.4881 1C18.7298 1 18.8675 1.09485 18.9746 1.30596C19.7825 2.93367 20.5995 4.56137 21.4165 6.18602C21.493 6.339 21.5328 6.49198 21.5328 6.66637C21.5297 9.97074 21.5297 13.2751 21.5266 16.5795C21.5266 16.7202 21.5389 16.7753 21.7102 16.7722C22.4079 16.7508 22.9893 17.3199 22.9954 18.0236C23.0015 18.7732 23.0015 19.5197 22.9954 20.2693C22.9893 20.9761 22.4171 21.5391 21.7133 21.5238C21.5481 21.5207 21.5175 21.5697 21.5297 21.7165C21.5572 22.0684 21.4807 22.3927 21.2237 22.6589C20.8443 23.0536 20.2476 23.1148 19.8069 22.7935C19.7182 22.7293 19.6723 22.7354 19.5897 22.7966C19.2133 23.0689 18.7115 23.0658 18.3351 22.7904C18.2555 22.7323 18.2096 22.7323 18.1301 22.7904C17.7507 23.0689 17.2488 23.0658 16.8633 22.7843C16.7898 22.7293 16.747 22.7262 16.6705 22.7813C16.3186 23.0322 15.9361 23.0719 15.5475 22.8761C15.1558 22.6803 14.9539 22.3499 14.9355 21.9093C14.9294 21.7869 14.9722 21.6278 14.911 21.5544C14.8376 21.4687 14.6723 21.5268 14.5469 21.5268C12.7752 21.5238 11.0035 21.5268 9.22869 21.5207C9.09099 21.5207 9.05427 21.5544 9.06345 21.689C9.08793 22.0133 9.03591 22.3162 8.82171 22.5793C8.4484 23.0352 7.80887 23.127 7.33151 22.7813C7.25808 22.7293 7.2183 22.717 7.13874 22.7782C6.75012 23.0658 6.25441 23.0658 5.85968 22.7782C5.78318 22.7201 5.74034 22.7293 5.6669 22.7813C5.28441 23.0628 4.78257 23.0628 4.40008 22.7813C4.32052 22.7231 4.27768 22.7262 4.19506 22.7813C3.84623 23.023 3.46679 23.0628 3.0843 22.8731C2.69875 22.6803 2.49373 22.359 2.46925 21.9246C2.46313 21.7991 2.50903 21.6431 2.45089 21.5513C2.39275 21.4565 2.22445 21.536 2.10818 21.5146C1.49313 21.4106 1.00659 20.9302 1.00353 20.2602C1.00047 19.5075 0.997413 18.7518 1.00353 17.9991C1.00965 17.3046 1.61552 16.7324 2.30707 16.763C2.45089 16.7692 2.46925 16.7263 2.46925 16.6009C2.46007 13.2996 2.46007 9.98909 2.45701 6.68167C2.45701 6.50421 2.49067 6.34512 2.57023 6.18602C3.39642 4.54301 4.21648 2.89695 5.03655 1.25395C5.12529 1.07343 5.26605 1.00306 5.468 1.00306C7.64669 1.00612 9.81926 1.00306 11.9949 1.00306Z" fill="#B91F24"/>
<path d="M3.4209 6.13401C3.63204 5.71179 3.82787 5.31404 4.02677 4.92241C4.53778 3.90051 5.05185 2.8786 5.55981 1.8567C5.6057 1.76491 5.65466 1.73431 5.75564 1.73431C7.2795 1.73737 8.80029 1.73737 10.3242 1.73431C10.4343 1.73431 10.471 1.74961 10.4527 1.87812C10.2874 3.01017 10.1314 4.14222 9.97226 5.27733C9.9386 5.51292 9.89882 5.74851 9.87128 5.98715C9.85598 6.10648 9.81008 6.14013 9.68768 6.14013C7.96799 6.13707 6.24523 6.13707 4.52554 6.13707C4.16447 6.13401 3.80951 6.13401 3.4209 6.13401Z" fill="#DD393F"/>
<path d="M20.5567 6.13401C20.4863 6.13401 20.4312 6.13401 20.3761 6.13401C18.3535 6.13401 16.3309 6.13401 14.3113 6.13707C14.1828 6.13707 14.1369 6.10342 14.1216 5.97492C14.0267 5.26815 13.9257 4.56444 13.8278 3.86073C13.733 3.1968 13.6412 2.52981 13.5402 1.86588C13.5249 1.76185 13.5402 1.73431 13.6473 1.73431C15.1864 1.73737 16.7225 1.73737 18.2617 1.73431C18.3443 1.73431 18.3871 1.76185 18.4239 1.83834C19.1154 3.23046 19.8131 4.61645 20.5108 6.00857C20.5261 6.04223 20.5352 6.07894 20.5567 6.13401Z" fill="#DD393F"/>
<path d="M13.4605 9.44754C13.4605 10.2461 13.4574 11.0446 13.4636 11.8463C13.4636 11.9778 13.4238 12.0054 13.3014 12.0023C12.4293 11.9962 11.5603 11.9962 10.6882 12.0023C10.5688 12.0023 10.5229 11.9839 10.5229 11.8493C10.5291 10.24 10.5291 8.63368 10.5229 7.02433C10.5229 6.89277 10.5627 6.86523 10.6851 6.86523C11.5603 6.87135 12.4354 6.87135 13.3136 6.86523C13.4391 6.86523 13.4636 6.90501 13.4636 7.02127C13.4605 7.82901 13.4605 8.6398 13.4605 9.44754Z" fill="#F35056"/>
<path d="M11.9918 6.13399C11.5695 6.13399 11.1472 6.13093 10.7249 6.13705C10.6209 6.13705 10.5872 6.12175 10.6056 6.00242C10.7555 4.99276 10.8932 3.98003 11.037 2.9673C11.0891 2.60015 11.1472 2.233 11.1931 1.86585C11.2053 1.76182 11.2482 1.73429 11.3492 1.73735C11.7806 1.74346 12.2151 1.74346 12.6466 1.73735C12.7414 1.73735 12.7812 1.76182 12.7935 1.85973C12.8577 2.34315 12.9312 2.82656 13.0015 3.30998C13.0872 3.89742 13.1698 4.48792 13.2525 5.07843C13.2983 5.39968 13.3412 5.724 13.3901 6.04526C13.4085 6.16152 13.3351 6.1401 13.2708 6.1401C12.8455 6.13399 12.4171 6.13399 11.9918 6.13399Z" fill="#F35056"/>
<path d="M22.2643 19.153C22.2643 19.5203 22.2674 19.8845 22.2643 20.2517C22.2613 20.5669 22.0042 20.8056 21.692 20.7995C21.5787 20.7965 21.5267 20.7659 21.5298 20.6404C21.5359 20.3343 21.5298 20.0314 21.5328 19.7253C21.5359 19.4254 21.4379 19.1653 21.2329 18.951C21.1839 18.899 21.1655 18.8439 21.1655 18.7735C21.1686 18.5348 21.1625 18.2961 21.1686 18.0574C21.1747 17.7422 21.4104 17.5035 21.7165 17.5004C22.0195 17.5004 22.2613 17.7391 22.2674 18.0544C22.2674 18.4216 22.2643 18.7858 22.2643 19.153Z" fill="#FE6973"/>
<path d="M1.72879 19.1408C1.72879 18.7888 1.72573 18.4369 1.72879 18.088C1.73186 17.7483 1.96447 17.5004 2.27973 17.5004C2.59498 17.5004 2.82454 17.7483 2.8276 18.088C2.83066 18.3175 2.82454 18.5471 2.83066 18.7766C2.83372 18.8531 2.80923 18.9082 2.75414 18.9663C2.55519 19.1745 2.46031 19.4254 2.46031 19.7131C2.46031 20.0191 2.45419 20.3252 2.46337 20.6281C2.46643 20.7597 2.41134 20.7965 2.29503 20.7965C1.99202 20.8026 1.73492 20.5639 1.72879 20.2548C1.72267 19.8845 1.72879 19.5142 1.72879 19.1408Z" fill="#FE6973"/>
<path d="M6.12905 20.4254C6.12905 19.9573 6.12905 19.4892 6.12905 19.0211C6.12905 18.7641 6.2698 18.6019 6.48706 18.5989C6.7135 18.5958 6.86037 18.761 6.86037 19.0241C6.86037 19.9665 6.86037 20.9058 6.86037 21.8481C6.86037 22.099 6.7135 22.2643 6.49318 22.2643C6.27286 22.2643 6.12905 22.099 6.12905 21.8481C6.12599 21.3739 6.12905 20.8997 6.12905 20.4254Z" fill="#FE6973"/>
<path d="M17.1296 20.4161C17.1296 19.9541 17.1296 19.4891 17.1296 19.0271C17.1296 18.7639 17.2735 18.5987 17.4999 18.6018C17.7202 18.6048 17.861 18.767 17.861 19.021C17.861 19.9633 17.861 20.9026 17.861 21.845C17.861 22.0989 17.7172 22.2641 17.4968 22.2641C17.2796 22.2672 17.1296 22.102 17.1296 21.8511C17.1296 21.3707 17.1296 20.8934 17.1296 20.4161Z" fill="#FE6973"/>
<path d="M18.5952 20.4132C18.5952 19.9512 18.5952 19.4892 18.5952 19.0241C18.5952 18.7641 18.7452 18.5958 18.9685 18.5989C19.1888 18.6019 19.3296 18.7641 19.3296 19.0211C19.3296 19.9604 19.3296 20.9027 19.3296 21.842C19.3296 22.096 19.1827 22.2581 18.9655 22.2612C18.7482 22.2612 18.5983 22.096 18.5983 21.8481C18.5952 21.3709 18.5952 20.8936 18.5952 20.4132Z" fill="#FE6973"/>
<path d="M5.39466 20.4315C5.39466 20.8996 5.39466 21.3678 5.39466 21.8359C5.39466 22.099 5.24778 22.2642 5.0244 22.2612C4.80715 22.2581 4.66333 22.0959 4.66333 21.8389C4.66333 20.8996 4.66333 19.9573 4.66333 19.018C4.66333 18.764 4.80715 18.6019 5.02746 18.5988C5.24472 18.5988 5.39772 18.764 5.39772 19.0119C5.39466 19.4861 5.39466 19.9603 5.39466 20.4315Z" fill="#FE6973"/>
<path d="M8.32917 20.8022C8.32917 21.1541 8.32917 21.503 8.32917 21.8549C8.32917 22.1028 8.17614 22.2681 7.95576 22.265C7.74151 22.262 7.59766 22.0998 7.59766 21.858C7.59766 21.151 7.59766 20.4441 7.59766 19.7372C7.59766 19.4984 7.74763 19.3362 7.96188 19.3362C8.17614 19.3362 8.32611 19.4954 8.32917 19.7372C8.32917 20.0891 8.32917 20.4441 8.32917 20.8022Z" fill="#FE6973"/>
<path d="M15.664 20.7897C15.664 20.4439 15.664 20.0981 15.664 19.7523C15.664 19.4982 15.8078 19.336 16.0251 19.333C16.2455 19.3299 16.3955 19.4952 16.3955 19.7461C16.3955 20.447 16.3955 21.1509 16.3955 21.8517C16.3955 22.1026 16.2455 22.2679 16.0251 22.2648C15.8078 22.2618 15.664 22.0996 15.664 21.8456C15.6609 21.4936 15.664 21.1417 15.664 20.7897Z" fill="#FE6973"/>
<path d="M3.19458 20.7991C3.19458 20.4532 3.19458 20.1074 3.19458 19.7616C3.19458 19.4984 3.33843 19.3331 3.56493 19.3331C3.78224 19.3362 3.9261 19.5015 3.92916 19.7524C3.92916 20.4502 3.92916 21.1449 3.92916 21.8426C3.92916 22.0967 3.7853 22.2619 3.56493 22.2619C3.34456 22.265 3.19764 22.0997 3.19458 21.8488C3.19458 21.4999 3.19458 21.1479 3.19458 20.7991Z" fill="#FE6973"/>
<path d="M20.7956 20.8083C20.7956 21.1602 20.7986 21.5091 20.7956 21.861C20.7956 22.0997 20.6456 22.2619 20.4314 22.265C20.2171 22.265 20.0641 22.1059 20.0641 21.8672C20.061 21.1541 20.061 20.4441 20.0641 19.731C20.0641 19.4954 20.2202 19.3332 20.4344 19.3362C20.6395 19.3393 20.7925 19.4984 20.7956 19.728C20.7986 20.086 20.7956 20.4471 20.7956 20.8083Z" fill="#FE6973"/>
<path d="M20.8013 7.02739C20.8013 6.88359 20.7584 6.86523 20.6299 6.86523C18.543 6.86829 16.4531 6.86829 14.3662 6.86523C14.305 6.86523 14.2652 6.87135 14.2407 6.88971C14.2254 6.89583 14.2193 6.90195 14.2162 6.91725C14.2009 6.94478 14.1948 6.98456 14.1948 7.03963C14.2009 8.77442 14.1979 10.5123 14.1979 12.2471C14.1979 12.348 14.1918 12.449 14.1581 12.5469C14.051 12.6876 13.9133 12.7366 13.7358 12.7366C12.5853 12.7305 11.4347 12.7335 10.2842 12.7335C9.92007 12.7335 9.79767 12.6142 9.79767 12.2532C9.79767 10.5123 9.79461 8.77136 9.80073 7.03045C9.80073 6.89277 9.76401 6.86523 9.63243 6.86523C7.54554 6.86829 5.45865 6.86829 3.36871 6.86523C3.23101 6.86523 3.19123 6.89583 3.19123 7.03657C3.19735 8.57249 3.19429 10.1115 3.19429 11.6474C3.19429 13.4342 3.19429 15.221 3.19429 17.0078C3.19429 17.0659 3.17593 17.1302 3.22489 17.1822C3.51253 17.4973 3.57984 17.8767 3.56454 18.2867C3.5523 18.5743 3.56454 18.5682 3.843 18.6447C3.93786 18.6722 3.97458 18.6539 4.0113 18.5682C4.30811 17.8675 5.0731 17.6503 5.68509 18.0909C5.74017 18.1307 5.77077 18.1398 5.82891 18.097C6.46538 17.6075 7.30381 17.9502 7.51188 18.5743C7.53942 18.6569 7.58532 18.663 7.66182 18.6416C7.83012 18.5865 8.00147 18.5804 8.17589 18.6202C8.60735 18.7151 8.87662 18.9874 9.0235 19.3943C9.06634 19.5932 9.05716 19.7982 9.05716 20.0001C9.05716 20.2234 9.06328 20.4468 9.0541 20.6732C9.05104 20.7742 9.08164 20.8017 9.18262 20.8017C11.0553 20.7986 12.9311 20.7986 14.8037 20.8017C14.9108 20.8017 14.9261 20.7619 14.9261 20.6671C14.9231 20.3458 14.9231 20.0246 14.9261 19.7064C14.9353 18.969 15.584 18.4642 16.3001 18.6386C16.3949 18.663 16.4408 18.6508 16.4837 18.5529C16.7591 17.8767 17.5485 17.6564 18.1422 18.0878C18.2095 18.1368 18.2493 18.1368 18.3105 18.0878C18.4818 17.9532 18.6807 17.8767 18.901 17.8706C19.3906 17.8522 19.7884 18.1154 19.9781 18.5682C19.9965 18.611 19.9873 18.6814 20.0791 18.6692C20.4249 18.6171 20.4249 18.6202 20.4249 18.2684C20.4249 18.198 20.4249 18.1246 20.4249 18.0542C20.4218 17.7513 20.5228 17.4851 20.7095 17.2526C20.7676 17.1791 20.7921 17.1118 20.7921 17.02C20.7951 13.6851 20.7951 10.3562 20.8013 7.02739ZM20.7523 9.68618C20.7584 9.65865 20.7615 9.63111 20.7645 9.60051C20.7645 9.63417 20.7645 9.66171 20.7523 9.68618Z" fill="#FE6973"/>
</svg>
