<svg width="24" height="24" viewBox="0 0 24 24" fill="none" xmlns="http://www.w3.org/2000/svg">
<path d="M21.0585 6.8653C21.0585 6.7921 21.0585 6.72195 21.0585 6.64875C21.0585 6.4749 21.0218 6.3224 20.9423 6.16989C20.129 4.55032 19.3126 2.93075 18.5053 1.30508C18.3983 1.09157 18.2607 0.997021 18.0192 1.00007C15.8574 1.00617 13.6926 1.00312 11.5308 1.00312C9.35677 1.00312 7.18582 1.00312 5.01181 1.00007C4.81 1.00007 4.67241 1.07022 4.58068 1.25017C3.75816 2.8911 2.93871 4.52897 2.11313 6.16684C2.05198 6.2858 2.01835 6.40475 2.00612 6.53285C2.00306 6.54505 2 6.5603 2 6.5725V6.65485C2 6.6579 2 6.6579 2 6.66095C2 7.46006 2 8.25918 2 9.05829V21.0877C2 21.3134 2.18346 21.4964 2.40973 21.4964L21.0677 21.472V6.96291C21.0677 6.92936 21.0646 6.89886 21.0585 6.8653Z" fill="#B91F24"/>
<path d="M2.96289 6.11802C3.17387 5.69711 3.36956 5.30061 3.56831 4.9102C4.07894 3.89149 4.59263 2.87277 5.09715 1.85406C5.14301 1.76256 5.19194 1.73206 5.29284 1.73206C6.81556 1.73511 8.33523 1.73511 9.85795 1.73206C9.96802 1.73206 10.0047 1.74731 9.98637 1.87541C9.82126 3.00392 9.66531 4.13244 9.50632 5.26401C9.47268 5.49886 9.43293 5.73371 9.40541 5.97162C9.39012 6.09057 9.34426 6.12412 9.22195 6.12412C7.50354 6.12107 5.78207 6.12107 4.06365 6.12107C3.70285 6.11802 3.34816 6.11802 2.96289 6.11802Z" fill="#DD393F"/>
<path d="M20.0832 6.11802C20.0128 6.11802 19.9578 6.11802 19.9028 6.11802C17.8816 6.11802 15.8605 6.11802 13.8424 6.12107C13.714 6.12107 13.6682 6.08752 13.6529 5.95942C13.5581 5.25486 13.4572 4.55335 13.3593 3.85184C13.2645 3.18998 13.1728 2.52507 13.0719 1.86321C13.0566 1.75951 13.0719 1.73206 13.1789 1.73206C14.7169 1.73511 16.2519 1.73511 17.7899 1.73206C17.8725 1.73206 17.9153 1.75951 17.952 1.83576C18.643 3.22353 19.3402 4.6052 20.0373 5.99297C20.0526 6.02652 20.0648 6.06312 20.0832 6.11802Z" fill="#DD393F"/>
<path d="M12.9954 9.42116C12.9954 10.2172 12.9924 11.0133 12.9985 11.8124C12.9985 11.9435 12.9587 11.971 12.8364 11.9679C11.965 11.9618 11.0966 11.9618 10.2252 11.9679C10.1059 11.9679 10.0601 11.9496 10.0601 11.8154C10.0662 10.2111 10.0662 8.60985 10.0601 7.00553C10.0601 6.87437 10.0998 6.84692 10.2221 6.84692C11.0966 6.85302 11.9711 6.85302 12.8487 6.84692C12.974 6.84692 12.9985 6.88657 12.9985 7.00248C12.9924 7.80769 12.9954 8.61595 12.9954 9.42116Z" fill="#F35056"/>
<path d="M11.5247 6.11818C11.1027 6.11818 10.6807 6.11513 10.2588 6.12123C10.1548 6.12123 10.1212 6.10598 10.1395 5.98703C10.2894 4.98052 10.4269 3.97095 10.5707 2.96139C10.6226 2.59538 10.6807 2.22938 10.7266 1.86337C10.7388 1.75967 10.7816 1.73222 10.8825 1.73527C11.3137 1.74137 11.7479 1.74137 12.179 1.73527C12.2738 1.73527 12.3135 1.75967 12.3258 1.85727C12.39 2.33918 12.4634 2.82109 12.5337 3.30299C12.6193 3.8886 12.7019 4.47726 12.7844 5.06592C12.8303 5.38617 12.8731 5.70948 12.922 6.02973C12.9404 6.14563 12.867 6.12428 12.8028 6.12428C12.3808 6.11818 11.9527 6.11818 11.5247 6.11818Z" fill="#F35056"/>
<path d="M2.73071 7.02078V20.7399H20.3276V6.84692H13.772V12.703L9.33224 12.6939V6.84692H2.73071V7.02078Z" fill="#FE6973"/>
<path d="M20.0831 23C22.2464 23 24 21.2507 24 19.0929C24 16.9351 22.2464 15.1858 20.0831 15.1858C17.9199 15.1858 16.1663 16.9351 16.1663 19.0929C16.1663 21.2507 17.9199 23 20.0831 23Z" fill="#B91F24"/>
<path d="M19.4959 19.9014C19.6457 19.7672 19.7956 19.6452 19.9301 19.5049C20.508 18.9041 21.0829 18.2941 21.6608 17.6932C21.7127 17.6383 21.7861 17.5864 21.8564 17.5681C21.9788 17.5376 22.0797 17.5895 22.1439 17.6993C22.2111 17.8152 22.1928 17.928 22.1041 18.0256C21.887 18.2605 21.6638 18.4923 21.4437 18.7241C20.8872 19.3067 20.3337 19.8892 19.7772 20.4718C19.5785 20.6792 19.4378 20.6792 19.2513 20.4687C18.8599 20.0265 18.4716 19.5812 18.0802 19.1389C17.9915 19.0383 17.9549 18.9285 18.0129 18.8034C18.1016 18.6082 18.334 18.5869 18.493 18.7638C18.8049 19.1115 19.1137 19.4653 19.4225 19.816C19.4501 19.8526 19.4806 19.8862 19.4959 19.9014Z" fill="white"/>
</svg>
