<svg width="40" height="40" viewBox="0 0 40 40" fill="none" xmlns="http://www.w3.org/2000/svg">
<path d="M20.1667 22.6666C19.1583 22.6666 18.3333 21.8416 18.3333 20.8333V13.5C18.3333 12.4916 19.1583 11.6666 20.1667 11.6666C21.175 11.6666 22 12.4916 22 13.5V20.8333C22 21.8416 21.175 22.6666 20.1667 22.6666ZM22 29C22 29.5522 21.5523 30 21 30H19.3333C18.781 30 18.3333 29.5522 18.3333 29V27.3333C18.3333 26.781 18.781 26.3333 19.3333 26.3333H21C21.5523 26.3333 22 26.781 22 27.3333V29Z" fill="url(#paint0_linear_1888_27955)"/>
<path fill-rule="evenodd" clip-rule="evenodd" d="M20 35C28.2843 35 35 28.2842 35 20C35 11.7157 28.2843 4.99996 20 4.99996C11.7157 4.99996 5 11.7157 5 20C5 28.2842 11.7157 35 20 35ZM20 38.3333C30.1252 38.3333 38.3333 30.1252 38.3333 20C38.3333 9.87474 30.1252 1.66663 20 1.66663C9.87478 1.66663 1.66666 9.87474 1.66666 20C1.66666 30.1252 9.87478 38.3333 20 38.3333Z" fill="url(#paint1_linear_1888_27955)"/>
<defs>
<linearGradient id="paint0_linear_1888_27955" x1="18.367" y1="22.5824" x2="22.0967" y2="22.4374" gradientUnits="userSpaceOnUse">
<stop offset="0.0639" stop-color="#F0444C"/>
<stop offset="0.9125" stop-color="#870000"/>
</linearGradient>
<linearGradient id="paint1_linear_1888_27955" x1="2.0035" y1="23.4981" x2="37.9965" y2="16.5018" gradientUnits="userSpaceOnUse">
<stop offset="0.0639" stop-color="#F0444C"/>
<stop offset="0.9125" stop-color="#870000"/>
</linearGradient>
</defs>
</svg>
