<svg width="48" height="48" viewBox="0 0 48 48" fill="none" xmlns="http://www.w3.org/2000/svg">
<path d="M8.26399 17.6767C8.68331 17.6562 9.10262 17.6562 9.52194 17.6767C9.81479 17.6904 9.90797 17.6153 9.90797 17.2945C9.89466 13.8344 9.90131 10.3742 9.90131 6.91404C9.90131 6.34758 9.89466 5.78113 9.90797 5.21467C9.91463 5.02357 9.85472 4.96215 9.66836 4.96898C9.1958 4.98263 8.71659 4.98945 8.24403 4.96898C7.99776 4.95533 7.95783 5.0577 7.95783 5.28292V11.3706C7.95783 13.3703 7.96448 15.3631 7.95117 17.3628C7.95117 17.6153 8.01773 17.6904 8.26399 17.6767Z" fill="#F0444C"/>
<path d="M14.7875 17.6765C15.6861 17.6628 16.5779 17.6628 17.4765 17.6765C17.7161 17.6833 17.8558 17.6014 17.989 17.4035C19.7594 14.7964 21.5298 12.203 23.3136 9.60277C23.4201 9.4458 23.4667 9.28883 23.4667 9.10456C23.46 7.84197 23.4534 6.58621 23.4733 5.32363C23.4733 5.05064 23.4267 4.96191 23.1405 4.96191C20.3651 4.97556 17.583 4.97556 14.8075 4.96191C14.5413 4.96191 14.4814 5.04381 14.488 5.30315C14.5013 7.30281 14.4947 9.29565 14.4947 11.2953C14.4947 13.3154 14.5013 15.3356 14.488 17.3557C14.4814 17.6082 14.5346 17.6833 14.7875 17.6765Z" fill="#F0444C"/>
<path d="M11.2435 17.3688C11.2369 17.5735 11.3168 17.6759 11.5364 17.6622C11.9357 17.6418 12.3351 17.6418 12.7344 17.6622C13.0206 17.6827 13.1138 17.594 13.1072 17.2869C13.0939 15.3009 13.1005 13.3148 13.1005 11.322C13.1005 9.31553 13.0939 7.30222 13.1072 5.29573C13.1072 5.04322 13.0473 4.95449 12.7943 4.96814C12.4416 4.98862 12.0888 4.97497 11.7294 4.97497C11.2435 4.97497 11.2435 4.97497 11.2435 5.48C11.2435 9.37695 11.2435 13.2671 11.2435 17.164C11.2435 17.2323 11.2435 17.3005 11.2435 17.3688Z" fill="#F0444C"/>
<path d="M29.1272 14.1344C27.3834 14.6257 26.2452 15.8542 25.4066 17.4307C25.2935 17.6491 25.3866 17.6696 25.573 17.6696C26.6645 17.6628 27.7627 17.6696 28.8543 17.6696C29.9458 17.6696 31.044 17.6628 32.1356 17.6764C32.3486 17.6764 32.4484 17.6423 32.4551 17.3966C32.4617 17.1031 32.475 16.8097 32.4484 16.5162C32.2887 14.6667 30.8777 13.643 29.1272 14.1344Z" fill="#F0444C"/>
<path d="M41.9939 30.0025C41.9939 29.907 41.9606 29.8046 41.9407 29.7022C41.8142 28.6648 40.9356 27.9141 39.7842 27.9073C38.067 27.8936 36.3565 27.9005 34.6393 27.9073C33.6875 27.9073 32.8289 28.2008 32.1367 28.8901C31.318 29.7159 30.912 30.6986 31.0917 31.893C31.0984 32.0158 31.0984 32.1455 31.125 32.2615C31.5177 33.9268 32.8821 35.0324 34.5661 35.0392C36.3165 35.046 38.0603 35.046 39.8108 35.0392C41.0554 35.0392 41.934 34.1929 41.9806 32.9235C42.0139 31.9544 41.9939 30.9784 41.9939 30.0025ZM36.4496 30.6099C36.4164 30.6645 36.3698 30.7191 36.3565 30.7874C36.3565 30.7942 36.3565 30.801 36.3565 30.801C36.0237 30.9921 35.7375 30.8761 35.4513 30.6236C34.7857 30.0435 33.8073 30.3437 33.601 31.1832C33.4745 31.6814 33.6609 32.1728 34.0802 32.4526C34.5128 32.7392 35.0053 32.7188 35.4579 32.3366C35.7508 32.0909 36.037 32.0295 36.3565 32.2069C36.616 32.6505 36.6693 33.0737 36.1901 33.4285C36.1435 33.4627 36.1102 33.5173 36.1169 33.5719C36.0237 33.5241 35.9438 33.5855 35.8706 33.6265C34.8389 34.2066 33.9005 34.0155 33.0286 33.2647C32.962 33.2033 32.9154 33.0873 32.7956 33.1214C32.7956 33.1146 32.7956 33.1078 32.7956 33.0941C32.769 32.9918 32.7158 32.9099 32.6692 32.8211C32.0768 31.7701 32.1034 30.8215 32.8489 29.8865C33.7474 28.7672 35.2982 28.6853 36.3498 29.6817C36.6493 29.9752 36.6626 30.2618 36.4496 30.6099Z" fill="#F0444C"/>
<path d="M37.7947 36.4998C37.6748 36.3292 37.4951 36.3701 37.3354 36.3701C36.4369 36.3633 35.545 36.3701 34.6465 36.3701C33.5749 36.3701 32.5965 36.0766 31.7246 35.4215C29.222 33.5447 29.0623 29.7774 31.5382 27.6822C32.2304 27.0952 33.0557 26.8086 33.9143 26.6107C34.0674 26.5356 34.2338 26.5424 34.4002 26.5424C35.352 26.5424 36.3038 26.5424 37.2555 26.5424C37.788 26.5424 37.8479 26.4878 37.8479 25.935C37.8479 24.2561 37.8479 22.5772 37.8479 20.8983C37.8479 20.5776 37.7747 20.2773 37.6549 19.977C37.3953 19.3355 37.0093 19.042 36.2705 19.042C26.7527 19.0693 17.235 19.0625 7.71719 19.0556C7.19138 19.1239 6.77873 19.3832 6.4659 19.8132C6.0599 20.3592 6.00666 21.0075 6 21.6559C6 28.2077 6 34.7595 6 41.3113C6 41.4341 6 41.5638 6.00666 41.6866C6.11315 43.2222 6.91184 43.9934 8.40274 43.9934C9.39445 43.9934 10.3795 44.0002 11.3712 44.0002H33.8811V43.9934C34.733 43.9934 35.5783 43.9934 36.4302 43.9934C36.6099 43.9934 36.783 44.007 36.956 43.9388C37.5085 43.4611 37.8346 42.8605 37.8412 42.1166C37.8546 40.3831 37.8479 38.6428 37.8412 36.9093C37.8479 36.7659 37.8546 36.6295 37.7947 36.4998Z" fill="#F0444C"/>
<path d="M19.537 17.6697C19.6634 17.6697 19.7833 17.6697 19.9031 17.6697C21.0545 17.6697 22.206 17.6561 23.3574 17.6765C23.7168 17.6834 23.8566 17.5537 24.003 17.2329C25.1212 14.817 26.7984 13.063 29.4874 12.6603C31.0049 12.4351 32.2562 13.0084 33.1214 14.3256C33.7204 15.2333 33.8868 16.2706 33.8203 17.3489C33.807 17.5264 33.7803 17.6765 34.0466 17.6697C35.0982 17.6492 36.1498 17.6561 37.2014 17.6492C37.3412 17.4718 37.4743 17.2875 37.6008 17.0964L39.7306 13.9912C39.7439 13.9707 39.7572 13.957 39.7705 13.9366C39.8105 13.8751 39.8504 13.8137 39.8903 13.7523L39.897 13.7455C40.13 13.3906 40.3696 13.0357 40.6158 12.6944C40.689 12.5921 40.7157 12.5034 40.6624 12.3942C40.0967 11.9778 39.5309 11.5615 38.9585 11.152C35.7571 8.85209 32.5424 6.53849 29.3276 4.23172C28.8617 3.8973 28.8551 3.90413 28.5223 4.38869C25.6071 8.661 22.6918 12.9333 19.7766 17.2056C19.6901 17.3421 19.5503 17.4513 19.537 17.6697ZM35.7039 10.6061C35.9169 10.2785 36.3229 10.2102 36.6956 10.4627C37.1681 10.7835 37.6274 11.1111 38.08 11.4523C38.4527 11.7322 38.5126 12.0461 38.2863 12.4556C38.0334 12.9265 38.0667 13.1449 38.4394 13.5066C38.7389 13.8001 38.7921 14.1345 38.5659 14.4825C38.253 14.9603 37.9269 15.438 37.5941 15.9021C37.3612 16.2297 36.9685 16.2911 36.6556 16.0659C36.3628 15.8611 36.2829 15.4653 36.4759 15.1309C36.5558 14.9876 36.6556 14.8443 36.7555 14.7078C37.0084 14.3733 37.268 14.0458 36.9019 13.6909C36.8154 13.4179 36.7089 13.1858 36.7754 12.9743C36.9685 12.3123 36.5891 12.012 36.1099 11.7458C36.0433 11.7117 35.9834 11.6571 35.9169 11.6093C35.5708 11.3363 35.4842 10.9473 35.7039 10.6061ZM26.9582 8.13549C27.271 7.65093 27.5905 7.18002 27.9233 6.70911C28.1629 6.36787 28.4823 6.30645 28.8617 6.49072C29.321 6.72276 29.534 6.67499 29.8734 6.27233C30.1729 5.91744 30.4791 5.86284 30.8651 6.12901C31.331 6.44977 31.7969 6.77736 32.2495 7.1186C32.6156 7.39159 32.6888 7.8079 32.4625 8.12184C32.2229 8.45626 31.8369 8.50403 31.4641 8.25151C31.3976 8.21057 31.331 8.16962 31.2711 8.11502C30.8651 7.74648 30.4591 7.48714 29.92 7.90345C29.7469 8.03995 29.494 8.01265 29.2145 8.0263C28.7619 7.80108 28.5556 8.16279 28.3359 8.51768C28.2494 8.661 28.1562 8.80432 28.0497 8.93399C27.8101 9.23428 27.4174 9.29571 27.1312 9.08414C26.8184 8.86574 26.7385 8.47673 26.9582 8.13549Z" fill="#F0444C"/>
</svg>
