<svg width="24" height="24" viewBox="0 0 24 24" fill="none" xmlns="http://www.w3.org/2000/svg">
<path d="M24 12C24 18.6274 18.6274 24 12 24C5.37258 24 0 18.6274 0 12C0 5.37258 5.37258 0 12 0C18.6274 0 24 5.37258 24 12Z" fill="#FCC149"/>
<path d="M12 5C8.136 5 5 8.136 5 12C5 15.864 8.136 19 12 19C15.864 19 19 15.864 19 12C19 8.136 15.864 5 12 5ZM12 15.5C11.615 15.5 11.3 15.185 11.3 14.8V12C11.3 11.615 11.615 11.3 12 11.3C12.385 11.3 12.7 11.615 12.7 12V14.8C12.7 15.185 12.385 15.5 12 15.5ZM12.7 9.5C12.7 9.72091 12.5209 9.9 12.3 9.9H11.7C11.4791 9.9 11.3 9.72091 11.3 9.5V8.9C11.3 8.67909 11.4791 8.5 11.7 8.5H12.3C12.5209 8.5 12.7 8.67909 12.7 8.9V9.5Z" fill="white"/>
</svg>
