<svg width="180" height="173" viewBox="0 0 180 173" fill="none" xmlns="http://www.w3.org/2000/svg">
    <rect width="180" height="172.134" rx="12" fill="#fff"/>
    <rect x="44.236" y="72.669" width="91.528" height="60.733" rx="2" fill="#D3461A"/>
    <path fill-rule="evenodd" clip-rule="evenodd" d="M44.235 92.362c1.574.55 3.276.85 5.053.85 3.84 0 7.335-1.404 9.943-3.699 2.608 2.295 6.103 3.699 9.943 3.699 4.076 0 7.762-1.58 10.413-4.13 2.65 2.55 6.337 4.13 10.412 4.13 3.84 0 7.335-1.404 9.944-3.699 2.608 2.295 6.103 3.699 9.943 3.699 3.842 0 7.338-1.404 9.946-3.7 2.609 2.296 6.104 3.7 9.946 3.7 2.132 0 4.158-.433 5.984-1.21v39.401a2 2 0 0 1-2 2H46.235a2 2 0 0 1-2-2v-39.04z" fill="url(#xil8ck1hta)"/>
    <path fill-rule="evenodd" clip-rule="evenodd" d="M60.3 79.368v.446h-.011c-.246 4.972-4.58 8.932-9.89 8.932-5.309 0-9.642-3.96-9.888-8.932H40.5V69.99h19.8v9.378z" fill="#E7DCB5"/>
    <path fill-rule="evenodd" clip-rule="evenodd" d="M80.1 79.368v.446h-.011c-.246 4.972-4.58 8.932-9.889 8.932-5.31 0-9.643-3.96-9.889-8.932h-.01V69.99H80.1v9.378z" fill="#DB4952"/>
    <path fill-rule="evenodd" clip-rule="evenodd" d="M99.9 79.368v.446h-.012c-.246 4.972-4.579 8.932-9.888 8.932-5.31 0-9.643-3.96-9.89-8.932h-.01V69.99h19.8v9.378z" fill="#E7DCB5"/>
    <path d="M82.928 45.875h14.143L99.9 69.99H80.1l2.828-24.115z" fill="#FFF8DD"/>
    <path d="M65.957 45.875H82.93L80.1 69.99H60.3l5.657-24.115z" fill="#FD6972"/>
    <path d="M49.928 45.875h16.029L60.3 69.99H40.5l9.428-24.115z" fill="#FFF8DD"/>
    <path d="M114.042 45.875H97.071L99.9 69.99h19.799l-5.657-24.115z" fill="#FD6972"/>
    <path d="M130.071 45.875h-16.029L119.7 69.99h19.799l-9.428-24.115z" fill="#FFF8DD"/>
    <path fill-rule="evenodd" clip-rule="evenodd" d="M119.7 79.368v.446h-.011c-.246 4.972-4.58 8.932-9.889 8.932-5.31 0-9.643-3.96-9.89-8.932h-.01V69.99h19.8v9.378z" fill="#DB4952"/>
    <path fill-rule="evenodd" clip-rule="evenodd" d="M139.499 79.368v.446h-.011c-.246 4.972-4.579 8.932-9.889 8.932-5.309 0-9.643-3.96-9.889-8.932h-.011V69.99h19.8v9.378z" fill="#E7DCB5"/>
    <path d="M49.931 42.73a4 4 0 0 1 4-4h72.142a4 4 0 0 1 4 4v3.145H49.931V42.73z" fill="#F36538"/>
    <path d="M117.224 38.73h8.375a4 4 0 0 1 4 4v3.1h-12.375v-7.1z" fill="#D3461A"/>
    <path d="M50.4 43.464h79.199v2.367h-79.2v-2.367z" fill="#D3461A"/>
    <path d="M76.5 97.612a2.8 2.8 0 0 1 2.8-2.8h20.55a2.8 2.8 0 0 1 2.801 2.8v33.818H76.5V97.612z" fill="#E6D69E"/>
    <path d="M78.563 98.784a2 2 0 0 1 2-2H98.59a2 2 0 0 1 2 2v34.619H78.563V98.784z" fill="#FFF8DD"/>
    <path d="M40.5 131.616c0-2.959 2.4-5.358 5.359-5.358h88.281a5.358 5.358 0 0 1 5.359 5.358c0 .987-.799 1.787-1.786 1.787H42.286c-.986 0-1.786-.8-1.786-1.787z" fill="#A6300B"/>
    <defs>
        <linearGradient id="xil8ck1hta" x1="89.999" y1="89.082" x2="89.999" y2="133.403" gradientUnits="userSpaceOnUse">
            <stop stop-color="#F36538"/>
            <stop offset="1" stop-color="#DA1C1C"/>
        </linearGradient>
    </defs>
</svg>