<svg width="20" height="20" viewBox="0 0 20 20" fill="none" xmlns="http://www.w3.org/2000/svg">
<path fill-rule="evenodd" clip-rule="evenodd" d="M0.833252 4.5C0.833252 3.39543 1.72868 2.5 2.83325 2.5H17.1666C18.2712 2.5 19.1666 3.39543 19.1666 4.5V15.1667C19.1666 16.2712 18.2712 17.1667 17.1666 17.1667H2.83325C1.72868 17.1667 0.833252 16.2712 0.833252 15.1667V4.5ZM6.9442 9.5278C7.87271 9.5278 8.62476 8.77575 8.62476 7.84724C8.62476 6.91874 7.87271 6.16669 6.9442 6.16669C6.01569 6.16669 5.26364 6.91874 5.26364 7.84724C5.26364 8.77575 6.01569 9.5278 6.9442 9.5278ZM6.9442 10.3681C5.82243 10.3681 3.58309 10.9311 3.58309 12.0486V12.4688C3.58309 12.6998 3.77215 12.8889 4.00323 12.8889H9.88517C10.1162 12.8889 10.3053 12.6998 10.3053 12.4688V12.0486C10.3053 10.9311 8.06597 10.3681 6.9442 10.3681ZM11.8334 9.60422H16.7223C16.8903 9.60422 17.0278 9.7761 17.0278 9.98617C17.0278 10.1962 16.8903 10.3681 16.7223 10.3681H11.8334C11.6653 10.3681 11.5278 10.1962 11.5278 9.98617C11.5278 9.7761 11.6653 9.60422 11.8334 9.60422ZM14.8889 12.2778H11.8334C11.6653 12.2778 11.5278 12.106 11.5278 11.8959C11.5278 11.6858 11.6653 11.5139 11.8334 11.5139H14.8889C15.057 11.5139 15.1945 11.6858 15.1945 11.8959C15.1945 12.106 15.057 12.2778 14.8889 12.2778ZM11.8334 7.6945H16.7223C16.8903 7.6945 17.0278 7.86637 17.0278 8.07644V8.08026C17.0278 8.29033 16.8903 8.46221 16.7223 8.46221H11.8334C11.6653 8.46221 11.5278 8.29033 11.5278 8.08026V8.07644C11.5278 7.86637 11.6653 7.6945 11.8334 7.6945Z" fill="#469BFF"/>
</svg>
