<svg width="40" height="40" viewBox="0 0 40 40" fill="none" xmlns="http://www.w3.org/2000/svg">
<path fill-rule="evenodd" clip-rule="evenodd" d="M1.66675 7C1.66675 5.89543 2.56218 5 3.66675 5H36.3334C37.438 5 38.3334 5.89543 38.3334 7V32.3333C38.3334 33.4379 37.438 34.3333 36.3334 34.3333H3.66675C2.56218 34.3333 1.66675 33.4379 1.66675 32.3333V7ZM13.8886 19.0556C15.7457 19.0556 17.2498 17.5515 17.2498 15.6945C17.2498 13.8375 15.7457 12.3334 13.8886 12.3334C12.0316 12.3334 10.5275 13.8375 10.5275 15.6945C10.5275 17.5515 12.0316 19.0556 13.8886 19.0556ZM13.8886 20.7362C11.6451 20.7362 7.16642 21.8621 7.16642 24.0973V24.9375C7.16642 25.3997 7.54455 25.7778 8.0067 25.7778H19.7706C20.2327 25.7778 20.6109 25.3997 20.6109 24.9375V24.0973C20.6109 21.8621 16.1322 20.7362 13.8886 20.7362ZM23.667 19.2084H33.4448C33.7809 19.2084 34.0559 19.5522 34.0559 19.9723C34.0559 20.3925 33.7809 20.7362 33.4448 20.7362H23.667C23.3309 20.7362 23.0559 20.3925 23.0559 19.9723C23.0559 19.5522 23.3309 19.2084 23.667 19.2084ZM29.7781 24.5557H23.667C23.3309 24.5557 23.0559 24.2119 23.0559 23.7918C23.0559 23.3716 23.3309 23.0279 23.667 23.0279H29.7781C30.1142 23.0279 30.3892 23.3716 30.3892 23.7918C30.3892 24.2119 30.1142 24.5557 29.7781 24.5557ZM23.667 15.389H33.4448C33.7809 15.389 34.0559 15.7327 34.0559 16.1529V16.1605C34.0559 16.5807 33.7809 16.9244 33.4448 16.9244H23.667C23.3309 16.9244 23.0559 16.5807 23.0559 16.1605V16.1529C23.0559 15.7327 23.3309 15.389 23.667 15.389Z" fill="url(#paint0_linear_627_22938)"/>
<defs>
<linearGradient id="paint0_linear_627_22938" x1="2.00358" y1="22.4652" x2="37.2743" y2="13.8953" gradientUnits="userSpaceOnUse">
<stop offset="0.0639" stop-color="#F0444C"/>
<stop offset="0.9125" stop-color="#870000"/>
</linearGradient>
</defs>
</svg>
