<svg width="220" height="201" viewBox="0 0 220 201" fill="none" xmlns="http://www.w3.org/2000/svg">
<path d="M145.953 116.623C125.209 108.945 120.539 100.806 115.102 92.6055C106.15 79.1055 129.389 52.5071 112.322 31.0178C90.989 4.15628 26.4877 26.7503 14.6904 77.4607C4.23067 122.422 33.2653 175.367 97.0136 186.413C160.762 197.459 177.827 128.422 145.953 116.623Z" fill="#F8F8F8"/>
<path fill-rule="evenodd" clip-rule="evenodd" d="M115.792 93.6506C120.965 101.497 126.091 109.271 145.953 116.623C177.827 128.422 160.762 197.459 97.0136 186.413C78.136 183.142 62.3025 176.197 49.6372 166.873C47.6652 160.636 46.6016 153.995 46.6016 147.105C46.6016 110.931 75.9269 81.6055 112.102 81.6055C112.446 81.6055 112.789 81.6081 113.132 81.6134C112.697 85.8094 113.072 89.5442 115.102 92.6055C115.333 92.954 115.562 93.3024 115.792 93.6506Z" fill="#4B8FC0"/>
<path fill-rule="evenodd" clip-rule="evenodd" d="M74.5679 93.4194C75.5723 95.6918 77.0286 97.3292 79.1018 97.6056C80.2339 97.7566 81.3546 97.8278 82.4381 97.8966C88.5327 98.2838 93.4506 98.5963 92.6016 112.606C92.1143 120.645 93.7638 121.681 93.6169 122.134C93.4622 122.61 91.3182 122.44 82.6016 129.106C70.0595 138.697 68.6756 149.921 67.8084 156.955C67.5001 159.455 67.2571 161.426 66.6016 162.606C64.2655 166.81 56.6909 169.269 49.5884 166.718C47.6476 160.526 46.6016 153.938 46.6016 147.106C46.6016 124.893 57.6581 105.264 74.5679 93.4194Z" fill="#7BB1D9"/>
<path fill-rule="evenodd" clip-rule="evenodd" d="M158.346 157.835C147.46 159.102 133.383 159.746 124.609 154.106C110.609 145.106 106.109 155.606 104.109 163.106C103.233 166.392 101.108 168.623 98.7873 171.059C95.8119 174.183 92.5138 177.645 91.1094 184.106C91.0303 184.469 91.002 184.844 91.0216 185.229C92.986 185.665 94.986 186.061 97.0214 186.413C130.264 192.173 150.812 176.157 158.346 157.835Z" fill="#7BB1D9"/>
<path opacity="0.1" fill-rule="evenodd" clip-rule="evenodd" d="M135.258 111.942C138.265 113.519 141.784 115.08 145.953 116.623C172.277 126.368 165.221 175.153 126.055 185.624C136.348 174.054 142.601 158.81 142.601 142.105C142.601 131.228 139.95 120.97 135.258 111.942ZM113.175 87.4256C112.9 85.6157 112.919 83.6699 113.132 81.6134C112.789 81.6081 112.446 81.6055 112.101 81.6055C109.199 81.6055 106.341 81.7942 103.539 82.1601C106.91 83.6488 110.131 85.4136 113.175 87.4256Z" fill="#434343"/>
<path d="M137.68 55.9548L111.084 27.8474L111.473 26.8567L130.643 16.1383L156.85 45.2363L156.461 46.227L137.68 55.9548Z" fill="#E1C6C6"/>
<path d="M137.291 56.9455L111.084 27.8474L130.254 17.1289L156.461 46.227L137.291 56.9455Z" fill="#FFF3F3"/>
<path d="M118.182 35.7276L111.086 27.8486L130.256 17.1301L137.352 25.0091L118.182 35.7276Z" fill="#FDE9E9"/>
<path d="M131.241 50.2274L124.144 42.3484L143.314 31.6299L150.41 39.5089L131.241 50.2274Z" fill="#FDE9E9"/>
<path d="M189.758 113.774L163.162 85.6666L163.551 84.676L182.721 73.9575L208.928 103.056L208.539 104.046L189.758 113.774Z" fill="#E1C6C6"/>
<path d="M189.369 114.765L163.162 85.6666L182.332 74.9481L208.539 104.046L189.369 114.765Z" fill="#FFF3F3"/>
<path d="M170.26 93.5439L163.164 85.6649L182.334 74.9464L189.43 82.8254L170.26 93.5439Z" fill="#FDE9E9"/>
<path d="M183.319 108.044L176.222 100.165L195.392 89.4462L202.489 97.3252L183.319 108.044Z" fill="#FDE9E9"/>
<circle cx="170.27" cy="56.0485" r="10.5897" transform="rotate(-132.008 170.27 56.0485)" fill="#CFC7C7"/>
<path fill-rule="evenodd" clip-rule="evenodd" d="M175.983 47.1291C172.066 44.6172 166.807 44.9156 163.183 48.1799C160.091 50.9642 159.022 55.1561 160.071 58.9084C163.988 61.4203 169.247 61.1219 172.871 57.8576C175.962 55.0733 177.032 50.8814 175.983 47.1291Z" fill="#AFA6A6"/>
<rect x="168.781" y="71.6376" width="21.1794" height="11.6606" transform="rotate(-132.008 168.781 71.6376)" fill="#CFC7C7"/>
<rect x="163.738" y="66.0374" width="13.6432" height="11.6606" transform="rotate(-132.008 163.738 66.0374)" fill="#AFA6A6"/>
<ellipse cx="157.655" cy="67.246" rx="20.3465" ry="16.8959" transform="rotate(-135.805 157.655 67.246)" fill="#E1C6C6"/>
<ellipse cx="156.768" cy="68.0412" rx="20.3465" ry="16.8959" transform="rotate(-135.805 156.768 68.0412)" fill="#FFEEEE"/>
<path fill-rule="evenodd" clip-rule="evenodd" d="M160.726 86.6864C155.379 86.8349 149.578 84.6139 144.991 80.1544C136.935 72.3211 135.677 60.5473 142.182 53.8569C142.385 53.6473 142.594 53.4451 142.808 53.2505C148.155 53.1019 153.956 55.323 158.543 59.7825C166.6 67.6158 167.858 79.3896 161.353 86.0799C161.149 86.2896 160.94 86.4917 160.726 86.6864Z" fill="#FCE2E2"/>
<path d="M143.934 82.8088L140.908 79.4491L154.789 66.9474C155.716 66.1119 157.146 66.1866 157.981 67.1143C158.817 68.0421 158.742 69.4716 157.814 70.3071L143.934 82.8088Z" fill="#DE9C9C"/>
<circle cx="141.81" cy="81.5192" r="4.99739" transform="rotate(-132.008 141.81 81.5192)" fill="#DE9C9C"/>
<path d="M140.402 100.401C134.493 98.4632 121.969 91.0291 119.141 76.7946" stroke="#DE9C9C" stroke-width="8" stroke-linecap="round"/>
<path d="M140.462 117C125.134 113.671 103.312 104.021 102.559 74.9151" stroke="#DE9C9C" stroke-width="8" stroke-linecap="round"/>
</svg>
