<?xml version="1.0" encoding="UTF-8" standalone="no" ?>
<!DOCTYPE svg PUBLIC "-//W3C//DTD SVG 1.1//EN" "http://www.w3.org/Graphics/SVG/1.1/DTD/svg11.dtd">
<svg xmlns="http://www.w3.org/2000/svg" xmlns:xlink="http://www.w3.org/1999/xlink" version="1.1" width="57" height="57" viewBox="241 203 57 57" xml:space="preserve">
<desc>Created with Fabric.js 4.6.0</desc>
<defs>
</defs>
<g transform="matrix(1 0 0 1 269.32 231.51)" id="9JnJuGhw_5tUXkXtILi46"  >
<path style="stroke: none; stroke-width: 1; stroke-dasharray: none; stroke-linecap: butt; stroke-dashoffset: 0; stroke-linejoin: miter; stroke-miterlimit: 4; fill: rgb(249,174,43); fill-rule: nonzero; opacity: 1;" vector-effect="non-scaling-stroke"  transform=" translate(-22, -22)" d="M 16 0 L 28 0 C 36.83655599729269 0 44 7.163444002707301 44 15.999999999999996 L 44 28 C 44 36.83655599729269 36.83655599729269 44 28 44 L 16 44 C 7.163444002707305 44 0 36.83655599729269 0 28 L 0 16 C 0 7.163444002707305 7.163444002707305 0 16 0 z" stroke-linecap="round" />
</g>
<g transform="matrix(1.44 0 0 1.44 269.32 231.51)" id="qkvyovReJPNy_SEph9bBR"  >
<path style="stroke: none; stroke-width: 1; stroke-dasharray: none; stroke-linecap: butt; stroke-dashoffset: 0; stroke-linejoin: miter; stroke-miterlimit: 4; fill: none; fill-rule: nonzero; opacity: 1;" vector-effect="non-scaling-stroke"  transform=" translate(-12, -12)" d="M 0 0 L 24 0 L 24 24 L 0 24 z" stroke-linecap="round" />
</g>
<g transform="matrix(1.44 0 0 1.44 269.32 231.51)" id="2EgZd1VFZssUf5P99z7WH"  >
<path style="stroke: none; stroke-width: 1; stroke-dasharray: none; stroke-linecap: butt; stroke-dashoffset: 0; stroke-linejoin: miter; stroke-miterlimit: 4; fill: rgb(255,255,255); fill-rule: nonzero; opacity: 1;" vector-effect="non-scaling-stroke"  transform=" translate(-12, -12)" d="M 20 4 L 4 4 C 2.9 4 2.01 4.9 2.01 6 L 2 18 C 2 19.1 2.9 20 4 20 L 20 20 C 21.1 20 22 19.1 22 18 L 22 6 C 22 4.9 21.1 4 20 4 z M 20 8 L 12 13 L 4 8 L 4 6 L 12 11 L 20 6 L 20 8 z" stroke-linecap="round" />
</g>
</svg>