<svg width="48" height="48" viewBox="0 0 48 48" fill="none" xmlns="http://www.w3.org/2000/svg">
<path fill-rule="evenodd" clip-rule="evenodd" d="M43.9903 14.5713V14.0757C43.9903 13.4232 43.7349 13.0404 43.1337 12.7951C42.7357 12.6333 42.3365 12.4702 41.9372 12.3072L41.9364 12.3069C41.5369 12.1437 41.1375 11.9806 40.7393 11.8187C40.0887 11.5536 39.4269 11.2829 38.7618 11.011L38.7581 11.0095C38.0212 10.7081 37.2804 10.4052 36.5464 10.1063C36.1808 9.95909 35.8151 9.964 35.4244 10.1259C35.176 10.2272 34.9247 10.33 34.6709 10.4339L34.6705 10.4341L34.6704 10.4341C34.0389 10.6927 33.3917 10.9576 32.7343 11.2201L32.6592 11.2495L29.5634 12.5154C29.5544 12.519 29.5448 12.5231 29.5347 12.5274L29.5347 12.5275C29.5168 12.5352 29.4975 12.5435 29.4783 12.5498L28.8721 12.8C28.8688 12.8011 28.8657 12.8022 28.8628 12.8033C28.8591 12.8046 28.8556 12.806 28.8521 12.8074C28.8482 12.8089 28.8443 12.8104 28.8401 12.812C28.8376 12.8129 28.8349 12.8138 28.832 12.8147C28.291 13.0503 28.0356 13.4035 28.0356 13.9187C28.028 15.8541 28.029 17.8144 28.0299 19.7435C28.0302 20.382 28.0306 21.0171 28.0306 21.6467V23.7761H28.5916H29.9892C30.9109 23.7859 31.7575 24.1637 32.3085 24.8212C32.8646 25.4836 33.075 26.3472 32.9046 27.25C32.7844 27.8682 32.4588 28.3982 31.9378 28.8299C32.2935 29.4285 32.4137 30.0713 32.3035 30.7435C32.1933 31.4255 31.8577 31.9996 31.3117 32.4608C31.6824 33.0693 31.8076 33.7513 31.6723 34.4578C31.5421 35.1595 31.1814 35.7385 30.6003 36.185C31.0412 36.9995 31.0913 37.8189 30.7506 38.6334H32.6442H38.5352H41.9115C42.1569 38.6236 42.4174 38.6236 42.6879 38.6334C43.0135 38.6481 43.3441 38.5205 43.5946 38.2899C43.8551 38.0446 44.0004 37.6962 44.0004 37.3184C43.9803 29.7377 43.9853 22.0294 43.9903 14.5713ZM38.8559 16.5423L38.8558 16.5423L38.8558 16.5424C38.6251 16.7687 38.3943 16.9952 38.1595 17.216C38.0543 17.3141 38.0392 17.4122 38.0643 17.5398C38.1995 18.1777 38.3298 18.8155 38.455 19.4534C38.5201 19.787 38.3648 20.052 38.0593 20.0765C37.919 20.0863 37.7537 20.0324 37.6335 19.949C37.1325 19.6006 36.6416 19.2326 36.1507 18.8646C36.0405 18.7812 35.9654 18.7861 35.8602 18.8695C35.3744 19.2325 34.8837 19.5906 34.3929 19.9486L34.3927 19.9487L34.3924 19.949C34.167 20.1158 33.9616 20.1403 33.7663 20.0226C33.5809 19.9097 33.5008 19.7184 33.5559 19.4583C33.6811 18.8204 33.8113 18.1826 33.9516 17.5447C33.9817 17.4024 33.9566 17.3092 33.8464 17.2062C33.6345 17.0042 33.4259 16.7991 33.2178 16.5944L33.2177 16.5943C33.0617 16.441 32.906 16.2878 32.7494 16.1365C32.574 15.9697 32.4939 15.7832 32.5891 15.5575C32.6842 15.3318 32.8796 15.2484 33.1201 15.2533C33.2772 15.2566 33.4366 15.2555 33.5952 15.2544H33.5953C33.6743 15.2539 33.7531 15.2533 33.8314 15.2533C33.897 15.2533 33.9631 15.2525 34.0294 15.2517H34.0294C34.1956 15.2497 34.3629 15.2477 34.5277 15.2582C34.6679 15.2631 34.7431 15.219 34.8032 15.0963C34.9312 14.8374 35.0622 14.5801 35.193 14.3234L35.193 14.3233C35.2976 14.1178 35.4021 13.9128 35.5045 13.7077C35.6097 13.4919 35.755 13.3447 36.0205 13.3496C36.2759 13.3545 36.4162 13.5017 36.5164 13.7077C36.6195 13.9119 36.7235 14.1151 36.8273 14.3178C36.9655 14.5877 37.1033 14.8567 37.2377 15.1258C37.2878 15.2239 37.3479 15.2582 37.4582 15.2582C37.939 15.2533 38.4199 15.2533 38.9008 15.2582C39.1764 15.2582 39.3567 15.3613 39.4318 15.5575C39.522 15.7882 39.4419 15.9697 39.2715 16.1365C39.1325 16.2708 38.9942 16.4065 38.8559 16.5423ZM10.5623 22.1619H5.00187C4.45084 22.1619 4 22.6035 4 23.1432V38.8836C4 39.4234 4.45084 39.8649 5.00187 39.8649H10.5623C11.1133 39.8649 11.5641 39.4234 11.5641 38.8836V23.1432C11.5641 22.5986 11.1133 22.1619 10.5623 22.1619ZM30.45 32.4018C30.956 33.0004 31.1513 33.6775 31.0111 34.4184C30.8708 35.1544 30.43 35.704 29.7487 36.0965C30.4751 37.1171 30.4851 38.1229 29.7387 39.168C28.906 40.0343 27.8304 40.0048 27.5822 39.998C27.5661 39.9976 27.5534 39.9972 27.5446 39.9972C24.4087 39.9923 21.2729 39.9874 18.137 39.9972C17.3756 39.9972 16.6994 39.8059 16.0882 39.3545C15.417 38.854 14.6355 38.6479 13.809 38.5645C13.6487 38.5498 13.0726 38.4173 12.8371 38.2505C12.7889 38.2096 12.7387 38.1707 12.6876 38.1312C12.6592 38.1091 12.6304 38.0869 12.6017 38.064C12.5015 37.9806 12.4414 37.858 12.4414 37.7304V32.6177V27.3823V25.8171C12.4414 25.665 12.5366 25.5276 12.6819 25.4688C13.1427 25.2823 13.7038 24.8898 13.7338 24.8652C13.836 24.7864 13.9382 24.7075 14.0403 24.6287C14.9993 23.8889 15.9545 23.152 16.9097 22.407C17.7764 21.7299 18.5528 20.9743 18.9786 19.939C19.3042 19.149 19.4044 18.3296 19.3794 17.4906C19.3643 17.0048 19.3743 16.5289 19.6148 16.0824C20.0256 15.317 20.8872 14.8361 21.7588 14.9146C22.6705 14.9931 23.4219 15.6064 23.6874 16.4602C24.1583 17.9911 24.4538 19.5514 24.4188 21.1558C24.3937 22.1568 24.2284 23.1381 23.9479 24.0998C23.9409 24.1271 23.935 24.1555 23.9287 24.1859C23.9214 24.2211 23.9135 24.2589 23.9028 24.301H26.2271L29.8138 24.3157C31.4369 24.3304 32.5389 25.6405 32.2384 27.2057C32.1282 27.7847 31.7975 28.2361 31.3267 28.5943C31.2612 28.6446 31.1915 28.6949 31.1052 28.7572L31.0862 28.7709C31.5471 29.345 31.7575 29.9877 31.6372 30.7139C31.517 31.445 31.1113 31.9896 30.45 32.4018Z" fill="#F0444C"/>
</svg>
