<svg width="48" height="48" viewBox="0 0 48 48" fill="none" xmlns="http://www.w3.org/2000/svg">
<path fill-rule="evenodd" clip-rule="evenodd" d="M30.6184 32.2924C30.286 32.2444 29.9539 32.1964 29.6219 32.1509C29.5462 32.1404 29.4705 32.1332 29.3949 32.126C29.294 32.1164 29.1931 32.1068 29.0922 32.0892C28.266 32.0892 27.5913 32.4103 27.0111 32.966C26.8051 33.1615 26.5999 33.3577 26.3946 33.5539C25.984 33.9463 25.5733 34.3388 25.1571 34.7258C24.4066 35.4297 23.6436 35.4235 22.8932 34.7196C22.2562 34.1206 21.6193 33.5217 20.9887 32.9228C20.2446 32.2189 19.3617 31.9904 18.3527 32.1509C17.4698 32.293 16.587 32.4103 15.7041 32.5214C14.8843 32.6264 14.2032 32.1015 14.0582 31.2988C14.0201 31.0837 13.9827 30.8681 13.9452 30.6524C13.8215 29.9397 13.6975 29.2251 13.5474 28.5141C13.3519 27.6002 12.7969 26.9519 11.9582 26.5197C11.1952 26.1307 10.4384 25.7355 9.68168 25.3341C8.79251 24.8649 8.55918 24.161 8.99431 23.2718C9.15416 22.9513 9.31299 22.6308 9.47163 22.3107C9.70725 21.8353 9.94243 21.3608 10.1799 20.8884C10.6024 20.0363 10.5898 19.1842 10.1673 18.3383C9.76997 17.5479 9.37268 16.7576 8.98169 15.9611C8.56548 15.1151 8.81143 14.3927 9.66276 13.942C9.77675 13.8825 9.8906 13.823 10.0044 13.7636C10.6585 13.4219 11.3101 13.0816 11.9708 12.7502C12.9168 12.2686 13.4528 11.5153 13.6231 10.4903C13.7681 9.62588 13.9131 8.76761 14.0771 7.90934C14.2284 7.11898 14.9158 6.63119 15.7356 6.74233C16.2581 6.80937 16.7807 6.88447 17.3032 6.95958C17.6951 7.01591 18.0869 7.07223 18.4788 7.12516C19.3869 7.24248 20.213 7.03871 20.8941 6.41508C21.3489 5.99865 21.7952 5.57397 22.2425 5.14838C22.4651 4.93661 22.6879 4.72461 22.9121 4.51329C23.6373 3.83408 24.4193 3.82791 25.1382 4.50094C25.7499 5.07518 26.3679 5.6556 26.967 6.24219C27.7489 7.00784 28.6696 7.2857 29.7543 7.10046C30.4917 6.97836 31.2337 6.88364 31.9764 6.78885C32.0975 6.77338 32.2187 6.75792 32.3398 6.74233C33.166 6.63736 33.847 7.14368 33.9921 7.95256C34.0331 8.18262 34.0737 8.41267 34.1143 8.64273C34.2361 9.33269 34.3578 10.0227 34.4903 10.7126C34.6668 11.6326 35.2092 12.2871 36.0479 12.7194C36.8362 13.1269 37.6244 13.5344 38.4064 13.9481C39.2577 14.3989 39.4911 15.1213 39.0686 15.9734C38.6965 16.7329 38.3244 17.4924 37.9334 18.2395C37.4479 19.1657 37.4479 20.0795 37.9271 21.0119C38.3244 21.7776 38.7091 22.5556 39.0875 23.3336C39.4785 24.1301 39.2325 24.871 38.4379 25.2971C37.6623 25.7108 36.8866 26.1183 36.1046 26.5073C35.1524 26.9828 34.6038 27.7299 34.4335 28.7549C34.2948 29.6193 34.1371 30.4776 33.9795 31.3358L33.9795 31.3359C33.8344 32.1262 33.1407 32.6326 32.3335 32.5276C31.7598 32.4574 31.1887 32.3748 30.6184 32.2924ZM28.266 23.2348C28.0516 22.1233 27.8183 21.0119 27.585 19.9005C27.5345 19.672 27.5597 19.5115 27.7489 19.3324C28.0987 19.0031 28.4413 18.6668 28.7843 18.33C29.0846 18.0353 29.3851 17.7402 29.6912 17.4491C29.9876 17.1589 30.1201 16.8379 29.9687 16.4365C29.8426 16.0907 29.521 15.9117 29.0417 15.9117C28.203 15.9055 27.3643 15.9055 26.5255 15.9117C26.3363 15.9117 26.2291 15.8561 26.1409 15.6832C25.9017 15.2006 25.6562 14.72 25.4105 14.2391C25.235 13.8956 25.0593 13.5519 24.8859 13.2072C24.703 12.8429 24.4634 12.5835 24.0157 12.5774C23.5553 12.5712 23.3094 12.8305 23.1202 13.2072C22.9503 13.5477 22.777 13.8861 22.6036 14.2246C22.3653 14.6901 22.1268 15.1557 21.8968 15.6276C21.7896 15.8437 21.6571 15.924 21.4175 15.9117C21.1292 15.8984 20.8409 15.9009 20.5527 15.9035C20.4373 15.9045 20.322 15.9055 20.2067 15.9055C20.0677 15.9055 19.9295 15.9062 19.7914 15.9069C19.5161 15.9082 19.2416 15.9096 18.9644 15.9055C18.5419 15.8993 18.2014 16.0413 18.0374 16.4365C17.8734 16.8317 18.0185 17.1589 18.3212 17.4491C18.5968 17.7138 18.869 17.9818 19.1412 18.2498C19.5042 18.6072 19.8671 18.9646 20.2383 19.3139C20.4211 19.4929 20.4716 19.6535 20.4148 19.9005C20.1752 21.0119 19.9482 22.1233 19.7274 23.2348C19.6329 23.6917 19.7716 24.0313 20.0932 24.2227C20.4337 24.4265 20.7869 24.3833 21.1842 24.093C21.4484 23.899 21.7127 23.7061 21.9766 23.5135C22.5691 23.081 23.1598 22.6498 23.7445 22.2098C23.9337 22.0678 24.0598 22.0554 24.2553 22.2036C25.1066 22.8519 25.9643 23.4879 26.8408 24.0992C27.0426 24.2351 27.339 24.3339 27.5787 24.3153C28.1084 24.2783 28.3795 23.8214 28.266 23.2348ZM20.0493 33.9417C19.6709 33.5527 19.2105 33.4169 18.6745 33.491C18.5161 33.5128 18.3578 33.5345 18.1998 33.5561L18.1996 33.5561C17.4643 33.6568 16.7325 33.7569 16.0007 33.8738C14.853 34.0529 13.7241 33.5651 13.0998 32.608C12.8003 32.1518 12.7106 31.6383 12.6204 31.1221L12.6203 31.122C12.608 31.0513 12.5956 30.9806 12.5827 30.91L12.5827 30.9096L12.5826 30.9095C12.4818 30.3601 12.3809 29.8107 12.2863 29.2613C9.5053 31.9844 6.7495 34.6827 4 37.381C4.05676 37.3995 4.15135 37.4304 4.25225 37.4551L4.25368 37.4554C5.80453 37.8073 7.35537 38.1591 8.90622 38.4986C9.28459 38.585 9.51792 38.7826 9.5999 39.1593C9.86476 40.3325 10.1422 41.4995 10.4197 42.6665C10.5269 43.1111 10.6341 43.5556 10.7413 43.9879C14.0008 40.7964 17.2415 37.6294 20.4946 34.4503L20.5348 34.411L20.4619 34.343C20.3328 34.2227 20.1866 34.0866 20.0493 33.9417ZM35.7516 29.3106C35.7236 29.4628 35.695 29.6168 35.6661 29.7723C35.5648 30.3171 35.4601 30.8802 35.3669 31.4471C35.1147 33.0401 33.721 34.1083 32.1508 33.8922C31.963 33.8664 31.7749 33.8427 31.5869 33.8191L31.5868 33.819C31.0548 33.7521 30.5238 33.6852 30.0067 33.5711C28.9535 33.3427 28.1022 33.5526 27.5283 34.4418L37.2903 44.0001C37.3155 43.926 37.3471 43.8334 37.3723 43.7346C37.7317 42.2156 38.0912 40.6967 38.438 39.1777C38.5263 38.7887 38.766 38.5849 39.1569 38.4985C40.6011 38.1836 42.0389 37.8625 43.4767 37.5414C43.6256 37.5061 43.7714 37.4644 43.8838 37.4322C43.9284 37.4194 43.9678 37.4082 44.0001 37.3994C41.2506 34.7011 38.5011 32.0028 35.7516 29.3106Z" fill="#F0444C"/>
</svg>
