<svg width="100" height="100" viewBox="0 0 100 100" fill="none" xmlns="http://www.w3.org/2000/svg">
<path opacity="0.1" d="M50 100C77.6142 100 100 77.6142 100 50C100 22.3858 77.6142 0 50 0C22.3858 0 0 22.3858 0 50C0 77.6142 22.3858 100 50 100Z" fill="#5C5C5C"/>
<path opacity="0.05" d="M50 84.4741C69.0397 84.4741 84.4743 69.0394 84.4743 49.9997C84.4743 30.9601 69.0397 15.5254 50 15.5254C30.9603 15.5254 15.5256 30.9601 15.5256 49.9997C15.5256 69.0394 30.9603 84.4741 50 84.4741Z" fill="#5C5C5C"/>
<path d="M51.2693 6.68958L52.9168 6.20752L52.4348 7.85496L52.9168 9.5024L51.2693 9.02034L49.6219 9.5024L50.104 7.85496L49.6219 6.20752L51.2693 6.68958Z" fill="white"/>
<path d="M12.6449 29.0558L14.2923 28.5737L13.8103 30.2212L14.2923 31.8686L12.6449 31.3866L10.9974 31.8686L11.4795 30.2212L10.9974 28.5737L12.6449 29.0558Z" fill="white"/>
<path d="M93.4744 60.4418L95.1218 59.9597L94.6398 61.6072L95.1218 63.2546L93.4744 62.7725L91.8269 63.2546L92.3089 61.6072L91.8269 59.9597L93.4744 60.4418Z" fill="white"/>
<path d="M17.1731 71.4586L18.8205 70.9766L18.3385 72.624L18.8205 74.2714L17.1731 73.7894L15.5256 74.2714L16.0077 72.624L15.5256 70.9766L17.1731 71.4586Z" fill="white"/>
<path d="M78.7013 17.9845L80.3488 17.5024L79.8667 19.1499L80.3488 20.7973L78.7013 20.3153L77.0552 20.7973L77.5373 19.1499L77.0552 17.5024L78.7013 17.9845Z" fill="white"/>
<path d="M75.3908 36.3235C74.8711 36.5715 74.2998 36.6919 73.7242 36.6748C70.9973 36.7325 71.1524 35.194 71.1524 33.3697C71.0682 32.5928 71.2895 31.8137 71.7695 31.1971C72.2494 30.5805 72.9504 30.1748 73.7242 30.0658C73.9222 30.0667 74.1191 30.096 74.3088 30.153C73.4934 29.5927 68.6075 26.7658 67.5588 38.8209L67.2742 53.985H49.2485L56.9729 90.3197L65.8422 78.8761C65.8422 78.8761 73.278 65.1427 76.1409 60.5658C78.105 57.412 76.5524 44.235 75.3908 36.3235Z" fill="#F0C6A5"/>
<path d="M65.8371 77.4453H37.514V94.3261H65.8371V77.4453Z" fill="#F0C6A5"/>
<path d="M75.391 36.3237C74.3587 36.7527 73.2053 36.7901 72.1474 36.4289C72.2013 38.6507 72.041 40.875 72.2538 43.0955C72.7795 48.6083 73.5897 52.8045 72.5872 57.6353C71.0708 63.4057 68.4684 68.8342 64.9192 73.6301C62.3267 77.2267 59.0794 80.3022 55.3474 82.6955L56.9692 90.3237L65.8384 78.8801C65.8384 78.8801 73.2743 65.1468 76.1372 60.5699C78.1051 57.4147 76.5525 44.2353 75.391 36.3237Z" fill="#E9BC9C"/>
<path d="M73.7192 30.0659C73.9172 30.0668 74.1141 30.0961 74.3038 30.1531C74.1323 30.036 73.9523 29.9319 73.7653 29.8416L73.6179 30.071C73.6525 30.071 73.6858 30.0659 73.7192 30.0659Z" fill="#E0BA9F"/>
<path d="M71.1475 33.3695C71.1475 35.1939 70.9911 36.7323 73.7193 36.6746C74.2949 36.6919 74.8662 36.5714 75.3859 36.3234C74.8616 32.7413 74.4154 30.2387 74.4154 30.2387C74.4154 30.2387 74.3718 30.2041 74.2987 30.1528C74.109 30.0959 73.9121 30.0665 73.7141 30.0657C72.9413 30.1759 72.2415 30.5821 71.7626 31.1985C71.2837 31.815 71.0632 32.5934 71.1475 33.3695Z" fill="#F5DDD3"/>
<path d="M65.8371 77.4448H51.2678V94.3256H65.8371V77.4448Z" fill="#E9BC9C"/>
<path d="M67.5525 73.1924C67.6281 74.6371 67.1289 76.053 66.1639 77.1309C65.199 78.2087 63.8467 78.8609 62.4025 78.945H38.3717C36.9273 78.8609 35.5749 78.2087 34.6098 77.1309C33.6446 76.0531 33.1451 74.6372 33.2204 73.1924V19.1809C33.1448 17.7358 33.6441 16.3196 34.6093 15.2415C35.5745 14.1634 36.9271 13.5111 38.3717 13.427H62.4025C63.8469 13.5111 65.1994 14.1634 66.1644 15.2415C67.1294 16.3197 67.6284 17.7359 67.5525 19.1809V73.1924Z" fill="white"/>
<path opacity="0.1" d="M65.2639 73.4997V19.1497H35.5101V73.4997H65.2639Z" fill="#5C5C5C"/>
<path d="M65.264 66.6858H35.5101V73.6678H65.264V66.6858Z" fill="#C54849"/>
<path d="M66.9819 88.5076H35.3203V90.9871H66.9819V88.5076Z" fill="white"/>
<path d="M70.796 90.6067H33.2217V99.9528H70.796V90.6067Z" fill="#C54849"/>
<path d="M38.9832 64.671C39.645 65.3429 40.0136 66.2497 40.0084 67.1928C40.0031 68.1359 39.6243 69.0386 38.955 69.703C38.3474 70.424 37.4788 70.8747 36.5396 70.9567C35.6003 71.0386 34.6668 70.7451 33.9435 70.1402L24.3576 61.3043C23.6958 60.6324 23.3272 59.7256 23.3325 58.7825C23.3377 57.8394 23.7165 56.9367 24.3858 56.2723C24.9939 55.5512 25.8629 55.1003 26.8026 55.0184C27.7423 54.9364 28.6762 55.2301 29.3999 55.8351L38.9832 64.671Z" fill="#F0C6A5"/>
<path d="M39.0037 50.932C39.579 51.6109 39.8662 52.4878 39.8039 53.3755C39.7416 54.2632 39.3348 55.0914 38.6703 55.6833C38.1343 56.3937 37.3419 56.8665 36.4621 57.0008C35.5824 57.1352 34.685 56.9205 33.9613 56.4025L25.5485 48.6487C24.9736 47.9695 24.6869 47.0926 24.7494 46.205C24.8119 45.3174 25.2187 44.4893 25.8831 43.8974C26.4189 43.1874 27.211 42.7149 28.0903 42.5807C28.9696 42.4466 29.8664 42.6615 30.5895 43.1794L39.0037 50.932Z" fill="#F0C6A5"/>
<path d="M39.7331 37.6312C40.8549 38.6658 40.6305 40.7273 39.2421 42.2376C37.8498 43.7478 35.8113 44.1337 34.6908 43.1004L26.8818 35.9017C25.76 34.8671 25.9844 32.8056 27.3716 31.2953C28.7639 29.785 30.8011 29.3991 31.9229 30.4312L39.7331 37.6312Z" fill="#F0C6A5"/>
<path d="M33.2512 19.7041C33.2512 19.7041 26.9589 13.4105 23.8101 16.2708C20.6614 19.131 26.3845 25.9977 33.2512 29.431V19.7041Z" fill="#F0C6A5"/>
<path d="M37.4038 65.4288C38.6948 66.7198 39.0768 68.4288 38.2589 69.2467C37.4409 70.0647 35.7307 69.6839 34.4396 68.3929C33.1486 67.1019 32.055 66.1864 33.5858 64.5749C35.1166 62.9634 36.114 64.1403 37.4038 65.4288Z" fill="#F5DDD3"/>
<path d="M36.6075 50.8246C37.8972 52.1156 38.2806 53.8246 37.4626 54.6426C36.6447 55.4605 34.9344 55.0785 33.6447 53.7874C32.3549 52.4964 31.26 51.581 32.7895 49.9682C34.319 48.3554 35.3177 49.5284 36.6075 50.8246Z" fill="#F5DDD3"/>
<path d="M37.7511 37.6631C39.0434 38.9542 39.4242 40.6632 38.6075 41.4811C37.7908 42.2991 36.0793 41.917 34.7896 40.626C33.4998 39.3349 32.405 38.4196 33.9344 36.808C35.4639 35.1965 36.4613 36.3734 37.7511 37.6631Z" fill="#F5DDD3"/>
</svg>
