<svg width="24" height="24" viewBox="0 0 24 24" fill="none" xmlns="http://www.w3.org/2000/svg">
<path d="M23.3145 9.91095C23.2764 9.88995 23.2382 9.86895 23.1972 9.84795C22.3935 9.45792 21.587 9.0709 20.7833 8.68088C20.7452 8.66287 20.6807 8.66287 20.6807 8.61187C20.6777 8.54887 20.751 8.55187 20.7892 8.53387C21.6104 8.13484 22.4346 7.73882 23.2558 7.33979C23.3966 7.27079 23.5022 7.17778 23.4993 7.00377C23.4963 6.83876 23.3995 6.74576 23.2617 6.67675C22.3202 6.22373 21.3787 5.7677 20.4372 5.31167C18.8739 4.55862 17.3136 3.80258 15.7532 3.04653C15.63 2.98653 15.5127 2.98353 15.3895 3.04353C14.3864 3.52956 13.3804 4.01259 12.3803 4.50162C12.2805 4.54962 12.2043 4.54662 12.1104 4.49862C11.1132 4.01259 10.1131 3.53256 9.11583 3.04953C8.98678 2.98653 8.86653 2.98953 8.73748 3.05253C8.34445 3.24754 7.9485 3.43955 7.54961 3.62857C7.53201 3.63757 7.51441 3.64657 7.49682 3.65557L6.1447 4.30661C6.14177 4.30961 6.1359 4.30961 6.13297 4.31261C6.10364 4.32761 6.07724 4.33961 6.04791 4.35461C4.44943 5.12566 2.85094 5.89971 1.25246 6.67075C1.10874 6.73976 1.00609 6.82976 1.00022 7.00077C0.994355 7.18078 1.10581 7.27379 1.25246 7.34579C2.07663 7.74182 2.89787 8.13784 3.71911 8.53687C3.75431 8.55487 3.8159 8.55487 3.81883 8.60887C3.81883 8.66587 3.75724 8.66287 3.71911 8.68088C2.89787 9.0799 2.0737 9.47592 1.25246 9.87495C1.10581 9.94395 0.997288 10.04 1.00022 10.22C1.00315 10.394 1.11168 10.484 1.25246 10.55C2.22622 11.018 3.19704 11.489 4.17079 11.9541C4.27932 12.0051 4.31451 12.0681 4.31451 12.1911C4.30865 13.4542 4.31158 14.7172 4.31158 15.9803C4.31158 16.4634 4.31158 16.9494 4.31158 17.4324C4.31158 17.6274 4.3849 17.7594 4.56968 17.8404C4.80139 17.9424 5.0243 18.0654 5.25307 18.1735C7.51148 19.2625 9.76989 20.3486 12.0224 21.4407C12.1779 21.5157 12.3099 21.5217 12.4653 21.4467C13.0226 21.1706 13.5799 20.9036 14.1401 20.6336C16.0406 19.7156 17.9383 18.7945 19.8418 17.8884C20.0999 17.7654 20.185 17.6004 20.185 17.3214C20.1762 15.6143 20.182 13.9072 20.1791 12.2001C20.1791 12.0831 20.2026 12.0141 20.317 11.9601C21.0443 11.6151 21.7688 11.261 22.4962 10.91C22.769 10.778 23.0447 10.655 23.3116 10.511C23.5638 10.373 23.5609 10.055 23.3145 9.91095Z" fill="#B91F24"/>
<path d="M12.3274 5.33562C12.389 5.36262 12.474 5.39863 12.5591 5.44063C14.2661 6.26568 15.9731 7.09373 17.683 7.91878C18.1025 8.11979 18.5189 8.32081 18.9384 8.52482C18.9853 8.54582 19.0586 8.55182 19.0586 8.61182C19.0586 8.66883 18.9853 8.66883 18.9442 8.68983C17.5863 9.34687 16.2253 10.0039 14.8674 10.6579C14.0403 11.057 13.2131 11.456 12.386 11.858C12.3215 11.888 12.2775 11.891 12.2101 11.861C11.0545 11.3 9.89592 10.745 8.74032 10.1869C7.70204 9.68589 6.66376 9.18186 5.62841 8.67783C5.59321 8.66283 5.54042 8.65983 5.53748 8.61482C5.53162 8.55482 5.59614 8.55482 5.63134 8.53982C6.71362 8.01479 7.79589 7.48975 8.87817 6.96772C9.97511 6.43969 11.0721 5.91166 12.169 5.38363C12.2101 5.35962 12.2511 5.32662 12.3274 5.33562Z" fill="#FE6973"/>
<path d="M12.6294 16.7242C12.6294 15.4911 12.6294 14.258 12.6294 13.0279C12.6294 12.8179 12.6294 12.8179 12.823 12.9109C13.6853 13.3279 14.5505 13.742 15.4099 14.162C15.5507 14.231 15.6739 14.231 15.8117 14.165C17.0113 13.583 18.2138 13.0069 19.4164 12.4249C19.5395 12.3649 19.563 12.3859 19.563 12.5179C19.5601 14.066 19.5601 15.6111 19.563 17.1592C19.563 17.2732 19.5131 17.3152 19.4281 17.3572C18.6655 17.7232 17.9059 18.0892 17.1433 18.4583C15.6885 19.1603 14.2308 19.8623 12.776 20.5674C12.6294 20.6364 12.6294 20.6394 12.6294 20.4714C12.6294 19.2203 12.6294 17.9722 12.6294 16.7242Z" fill="#F35056"/>
<path d="M22.3935 7.0247C21.5958 7.41172 20.798 7.79575 20.0031 8.18277C19.9298 8.21877 19.8711 8.21877 19.7978 8.18277C17.8239 7.22871 15.85 6.27766 13.8732 5.3236C13.6444 5.21259 13.4156 5.09858 13.1898 4.98758C13.1663 4.97558 13.1252 4.98158 13.1252 4.93957C13.1282 4.90657 13.1604 4.89757 13.1868 4.88557C13.9758 4.50755 14.7619 4.12652 15.5508 3.7455C15.6242 3.7095 15.6711 3.7425 15.7268 3.7695C17.1053 4.43254 18.4809 5.09558 19.8594 5.76162C20.6719 6.15465 21.4872 6.55067 22.2997 6.9437C22.3349 6.9587 22.3759 6.9647 22.3935 7.0247Z" fill="#F35056"/>
<path d="M2.16748 10.208C2.75115 9.92596 3.31135 9.65595 3.86862 9.38593C4.10033 9.27192 4.3379 9.16692 4.56668 9.04691C4.66053 8.99891 4.73386 9.00191 4.82478 9.04691C5.96865 9.60194 7.11252 10.154 8.25639 10.706C9.32987 11.225 10.4033 11.7411 11.4944 12.2691C11.3536 12.3801 11.1953 12.4311 11.0515 12.5031C10.4033 12.8211 9.74929 13.1302 9.09816 13.4452C9.01311 13.4872 8.94271 13.4902 8.85472 13.4452C7.004 12.5481 5.15328 11.6541 3.30255 10.76C2.97699 10.604 2.65143 10.445 2.32586 10.289C2.2848 10.271 2.24374 10.247 2.16748 10.208Z" fill="#F35056"/>
<path d="M8.87522 3.76347C8.94854 3.72747 9.00427 3.72447 9.08053 3.76047C9.84017 4.1325 10.6028 4.49852 11.3624 4.86754C11.3976 4.88554 11.4651 4.88554 11.4592 4.93954C11.4563 4.98755 11.3947 4.99055 11.3565 5.00855C9.68472 5.8156 8.01291 6.62265 6.3411 7.4297C5.82783 7.67871 5.31162 7.92473 4.79835 8.17674C4.73089 8.20974 4.67516 8.22174 4.60477 8.18874C3.80992 7.80172 3.01215 7.4177 2.2173 7.03367C2.21144 7.03067 2.20557 7.01867 2.19971 7.01267C2.22317 6.94367 2.29063 6.94367 2.34049 6.91967C3.69847 6.26263 8.53792 3.92848 8.87522 3.76347Z" fill="#DD393F"/>
<path d="M11.9551 16.7304C11.9551 17.9725 11.9551 19.2176 11.9551 20.4596C11.9551 20.6246 11.9522 20.6276 11.8114 20.5586C10.2833 19.8236 8.75812 19.0855 7.23003 18.3505C6.53491 18.0145 5.84272 17.6755 5.14467 17.3424C5.05374 17.3004 5.02441 17.2494 5.02441 17.1504C5.02735 15.6083 5.02735 14.0662 5.02735 12.5241C5.02735 12.3591 5.03028 12.3591 5.17693 12.4281C6.34426 12.9892 7.51453 13.5472 8.676 14.1202C8.88424 14.2222 9.05729 14.2312 9.26553 14.1262C10.0926 13.7152 10.9285 13.3192 11.7615 12.9172C11.9522 12.8242 11.9522 12.8242 11.9522 13.0492C11.9551 14.2763 11.9551 15.5033 11.9551 16.7304Z" fill="#DD393F"/>
<path d="M22.417 10.2171C22.1677 10.3371 21.9419 10.4481 21.7131 10.5591C20.1909 11.2942 18.6686 12.0292 17.1464 12.7642C16.6683 12.9953 16.1873 13.2263 15.7092 13.4603C15.6418 13.4933 15.589 13.4963 15.5186 13.4633C14.7443 13.0883 13.97 12.7162 13.1957 12.3412C13.1663 12.3262 13.1429 12.3022 13.1047 12.2722C13.486 12.0862 13.8527 11.9062 14.2222 11.7292C16.07 10.8381 17.9207 9.94707 19.7685 9.05302C19.8477 9.01401 19.9152 8.99601 20.0002 9.03801C20.7745 9.41604 21.5488 9.78806 22.3232 10.1631C22.3466 10.1691 22.3672 10.1841 22.417 10.2171Z" fill="#DD393F"/>
</svg>
