<svg width="48" height="48" viewBox="0 0 48 48" fill="none" xmlns="http://www.w3.org/2000/svg">
<circle cx="24" cy="24" r="24" fill="url(#paint0_linear_4108_345441)"/>
<path d="M20.8392 12.8039C20.9327 12.3365 21.3431 12 21.8198 12H32.1802C32.6569 12 33.0673 12.3365 33.1608 12.8039L33.7608 15.8039C33.8845 16.4227 33.4112 17 32.7802 17H21.2198C20.5888 17 20.1155 16.4227 20.2392 15.8039L20.8392 12.8039Z" fill="#EBB549"/>
<path fill-rule="evenodd" clip-rule="evenodd" d="M35.628 45C43.0063 40.9058 48 33.0361 48 24C48 20.8173 47.3805 17.7793 46.2554 15H7C5.89543 15 5 15.8954 5 17V38.6648C6.99451 41.2451 9.50297 43.408 12.372 45H35.628Z" fill="#EBB549"/>
<rect x="1" y="18" width="46" height="30" rx="2" fill="url(#paint1_linear_4108_345441)"/>
<path d="M23 18H45C46.1046 18 47 18.8954 47 20V46C47 47.1046 46.1046 48 45 48H23V18Z" fill="#F47878"/>
<path fill-rule="evenodd" clip-rule="evenodd" d="M3 18C1.89543 18 1 18.8954 1 20V46C1 47.1046 1.89543 48 3 48H45C46.1046 48 47 47.1046 47 46V20C47 18.8954 46.1046 18 45 18H3ZM3 19C2.44772 19 2 19.4477 2 20V46C2 46.5523 2.44771 47 3 47H45C45.5523 47 46 46.5523 46 46V20C46 19.4477 45.5523 19 45 19H3Z" fill="#CA101A"/>
<path d="M17.8392 14.8039C17.9327 14.3365 18.3431 14 18.8198 14H29.1802C29.6569 14 30.0673 14.3365 30.1608 14.8039L30.7608 17.8039C30.8845 18.4227 30.4112 19 29.7802 19H18.2198C17.5888 19 17.1155 18.4227 17.2392 17.8039L17.8392 14.8039Z" fill="#CA101A"/>
<path fill-rule="evenodd" clip-rule="evenodd" d="M29.1488 0.553301C27.5944 0.213517 25.9836 0.0243777 24.3326 0.00195312L22 6.9997H27L29.1488 0.553301Z" fill="#CA101A"/>
<path fill-rule="evenodd" clip-rule="evenodd" d="M21 6C19.8954 6 19 6.89543 19 8V11C19 12.1046 19.8954 13 21 13H27C28.1046 13 29 12.1046 29 11V8C29 6.89543 28.1046 6 27 6H21ZM21 7C20.4477 7 20 7.44772 20 8V11C20 11.5523 20.4477 12 21 12H27C27.5523 12 28 11.5523 28 11V8C28 7.44772 27.5523 7 27 7H21Z" fill="#F5868B"/>
<path fill-rule="evenodd" clip-rule="evenodd" d="M23.6666 0.00195312L25.9993 6.99992H20.9993L18.8505 0.553441C20.4049 0.213613 22.0156 0.024427 23.6666 0.00195312Z" fill="#EC1A24"/>
<rect x="21" y="11" width="6" height="6" rx="1" fill="#F0444C"/>
<path fill-rule="evenodd" clip-rule="evenodd" d="M5 36V38C5 39.1046 5.89543 40 7 40H17C18.1046 40 19 39.1046 19 38V36V35H18.9291C18.4439 31.6077 15.5265 29 12 29C8.47353 29 5.55612 31.6077 5.07089 35H5V36Z" fill="#B33029"/>
<path fill-rule="evenodd" clip-rule="evenodd" d="M8.41077 29.989C9.46028 29.361 10.688 29 12 29C13.9364 29 15.6892 29.7863 16.9565 31.057C16.042 32.239 14.6096 33 12.9995 33C10.9449 33 9.17979 31.7608 8.41077 29.989Z" fill="#971B14"/>
<circle cx="12" cy="27" r="4" fill="#DA5049"/>
<rect x="5" y="41" width="14" height="2" rx="1" fill="#B33029"/>
<rect x="26" y="27" width="17" height="2" rx="1" fill="#CA101A"/>
<rect x="26" y="32" width="14" height="2" rx="1" fill="#CA101A"/>
<rect x="26" y="36" width="14" height="2" rx="1" fill="#CA101A"/>
<defs>
<linearGradient id="paint0_linear_4108_345441" x1="0.29548" y1="27.7544" x2="47.7045" y2="20.2456" gradientUnits="userSpaceOnUse">
<stop offset="0.2797" stop-color="#FDD27B"/>
<stop offset="0.7818" stop-color="#E79B04"/>
</linearGradient>
<linearGradient id="paint1_linear_4108_345441" x1="-14" y1="19.5" x2="-18.3712" y2="47.3933" gradientUnits="userSpaceOnUse">
<stop stop-color="#F37777"/>
<stop offset="1" stop-color="#CB3024"/>
</linearGradient>
</defs>
</svg>
