
<svg width="240" height="240" viewBox="0 0 240 240" fill="none" xmlns="http://www.w3.org/2000/svg">
    <path d="M210.57 77.61c3.977.838 6.489 4.823 8.163 8.389 3.768 8.18 5.443 17.198 5.233 26.216 0 2.517-.418 5.244-2.511 6.502-2.512 1.678-5.861 0-8.164-1.887-5.861-4.824-11.931-11.955-13.605-19.715-1.675-6.922.418-21.813 10.884-19.506z" fill="#EEEDEE"/>
    <path d="M110.729 16.367s82.472-1.887 76.611 80.328c-1.884 25.797 31.397 41.737 36.212 67.324 3.139 16.15-5.024 32.929-17.583 43.205-12.559 10.277-28.886 14.682-45.003 15.94-16.118 1.259-32.235-.629-48.353-1.678-17.792-1.048-36.002-1.258-52.538-8.179-16.955-6.921-32.654-20.554-38.306-38.381 0 0-42.282-150.589 88.96-158.559z" fill="#EEEDEE"/>
    <mask id="7daq5wrvua" style="mask-type:alpha" maskUnits="userSpaceOnUse" x="15" y="16" width="210" height="208">
        <path d="M110.725 16.367s82.471-1.887 76.61 80.328c-1.883 25.797 31.398 41.737 36.212 67.324 3.14 16.15-5.023 32.929-17.582 43.205-12.559 10.277-28.886 14.682-45.004 15.94-16.117 1.259-32.235-.629-48.352-1.678-17.792-1.048-36.003-1.258-52.539-8.179-16.955-6.921-32.653-20.554-38.305-38.381 0 0-42.282-150.589 88.96-158.559z" fill="#EEEDEE"/>
    </mask>
    <g mask="url(#7daq5wrvua)">
        <path opacity=".6" d="M64.465 209.531c3.349 0 3.349-5.243 0-5.243-3.559 0-3.559 5.243 0 5.243zM77.025 209.531c3.349 0 3.349-5.243 0-5.243-3.35 0-3.35 5.243 0 5.243z" fill="#fff"/>
        <path opacity=".6" d="M64.465 209.322c3.349 0 3.349-5.244 0-5.244-3.559 0-3.559 5.244 0 5.244z" fill="#fff"/>
        <path d="M10.671 168.424h218.947v55.16H10.672v-55.16z" fill="#DADBE0"/>
        <path d="M6.904 166.536h226.692v11.326H6.904v-11.326z" fill="#C7CAD0"/>
        <path d="M6.904 166.326h226.692v5.873H6.904v-5.873z" fill="#DADBE0"/>
        <path d="M56.093 167.165c-.628 0-.21.629.419.839 2.72.839 6.488 1.049 9.838.839l19.047.21c10.885 1.048 22.188 1.258 33.282.839 1.674 0 3.977-.42 3.768-1.259-.21-.419-1.047-.629-1.884-.839-3.768-.839-8.373-.839-12.559-.839h-52.12" fill="#B8BBBD"/>
        <path d="M19.463 86.208h168.082v4.614H19.463v-4.614zm-9.21 31.041h186.921v4.614H10.253v-4.614z" fill="#fff"/>
        <path d="M157.404 68.381h18.42v18.876h-18.42V68.381zm-22.187 0h18.42v18.876h-18.42V68.381zM118.89 98.373h11.094v18.876H118.89V98.373zm14.861 0h11.094v18.876h-11.094V98.373z" fill="#DADBE0"/>
        <path d="M144.427 50.134h18.42V69.01h-18.42V50.134z" fill="#DADBE0"/>
        <path d="M102.982 139.061c-3.767 6.711-14.861 3.985-26.792-2.727-11.931-6.711-20.304-14.471-16.327-21.392 3.768-6.921 14.862-3.985 26.793 2.726 11.93 6.502 20.304 14.472 16.326 21.393v0z" fill="#EEEDED" stroke="#9B9E9F" stroke-width=".5" stroke-miterlimit="10" stroke-linecap="round" stroke-dasharray="2 2"/>
        <path d="M69.91 122.282c2.303-2.726 4.397-6.921 5.652-9.857-1.046-.42-2.093-.629-3.14-.839.21 4.195-2.511 10.696-2.511 10.696zm13.816-6.292c-1.256-.629-2.303-1.258-3.559-1.678 0 5.244-3.977 12.375-3.977 12.375 2.93-2.937 5.652-7.341 7.536-10.697zm-.21 15.101c3.14-2.726 6.28-7.131 8.373-10.487l-3.349-2.097c-.628 5.453-5.024 12.584-5.024 12.584zm15.49-4.824-2.302-2.097c-1.675 4.614-5.443 9.438-5.443 9.438 2.721-1.888 5.443-4.824 7.745-7.341z" fill="#EEEDED" stroke="#9B9E9F" stroke-width=".5" stroke-miterlimit="10" stroke-linecap="round" stroke-dasharray="2 2"/>
        <path d="M59.024 77.4c.21-1.888-.419-4.615-1.884-7.131-1.256-2.307-1.465-4.615-1.256-5.453h.419l.209-1.259h-.419l.21-.629h.418l.21-1.258c0-.42-1.675-1.05-3.977-1.469-2.303-.419-4.187-.419-4.396 0l-.21 1.259h.42l-.21.629h-.419l-.21 1.258h.42c-.21.84-1.047 3.146-2.93 4.824-2.303 1.888-3.769 4.405-4.187 6.292v.21l-4.396 27.685c-.21 1.258 3.559 2.936 8.582 3.775 5.024.839 9.21.419 9.42-.839L59.023 77.4v0zM107.376 81.594c-2.721-9.857-6.28-15.73-6.28-15.73l-.209-2.936-.837.839-.837-.42-.628.21-.628.839-1.466-.21-1.046.42-.628.839-1.465-.21-1.047.21-.419.839-.837-.42-.837.21-.628.839-1.047-.21-1.046.21-1.047.839-1.256-.21-1.465.42-1.465 1.048-.837-.42-1.047.42-1.256 1.049-.837-.42-1.256.42-1.465 1.048-1.256-.21h-.21l1.256 2.727s.21 6.712 2.93 16.57c2.931 9.857 5.024 10.905 5.024 10.905l.21 2.517 1.046-1.049 1.047.42h.418l.838-1.049 1.884.21.628-.21.837-1.048 1.674.209.42-.209.627-.839 1.047.419.418-.21.838-1.048 1.465.42.418-.21 1.047-1.05 1.465.21.628-.21 1.675-1.258 1.046.42.628-.21 1.675-1.258 1.046.42.628-.21 1.675-1.259 1.046.21-1.046-2.098c.418.21 1.674-1.677-1.256-11.535v0z" fill="#EEEDED" stroke="#9B9E9F" stroke-width=".5" stroke-miterlimit="10" stroke-linecap="round" stroke-linejoin="round" stroke-dasharray="2 2"/>
        <path d="M75.768 75.722s18.63-2.937 26.374-7.76l-26.374 7.76zm4.186 18.666s21.979-4.404 28.677-8.18z" fill="#EEEDED"/>
        <path d="M79.954 94.388s21.979-4.404 28.677-8.18M75.768 75.722s18.63-2.937 26.374-7.76l-26.374 7.76z" stroke="#9B9E9F" stroke-width=".5" stroke-miterlimit="10" stroke-linecap="round" stroke-linejoin="round" stroke-dasharray="2 2"/>
        <path d="m118.889 125.638-3.139 30.831c-.419 3.565-3.768 6.711-7.327 6.921l-51.282 3.775c-3.559.21-7.327-2.307-8.164-5.872l-7.535-29.992 77.447-5.663z" fill="#CA2227"/>
        <path d="m118.471 132.559-75.564 5.663-1.465-6.921 77.447-5.663-.418 6.921z" fill="#EF393D"/>
        <path d="m39.598 128.404 80.579-5.929.552 7.53-80.579 5.929-.552-7.53z" fill="#CA2227"/>
        <path d="m108.214 156.888 3.977-17.198c.209-1.258-.628-2.307-1.884-2.517-1.256-.209-2.512.42-2.93 1.678l-3.977 17.198c-.21 1.259.628 2.307 1.884 2.517 1.256.21 2.511-.419 2.93-1.678zm-9 .629 3.349-17.198c.209-1.258-.628-2.307-1.884-2.517-1.256-.209-2.512.63-2.721 1.888l-3.35 17.198c-.209 1.259.628 2.307 1.884 2.517 1.256.21 2.512-.629 2.721-1.888zm-7.955.63 2.303-17.408c.21-1.259-.837-2.307-2.093-2.307-1.256-.21-2.512.839-2.721 1.887l-2.303 17.408c-.21 1.259.837 2.307 2.093 2.307 1.466.21 2.512-.629 2.721-1.887zm-36.002 2.726-5.442-16.779c-.42-1.048.418-2.307 1.674-2.726a2.262 2.262 0 0 1 2.93 1.468l5.443 16.779c.418 1.048-.419 2.307-1.675 2.726-1.046.21-2.512-.419-2.93-1.468zm8.582-.629-5.442-16.779c-.42-1.048.418-2.307 1.674-2.726a2.244 2.244 0 0 1 1.78.104 2.263 2.263 0 0 1 1.15 1.364l5.443 16.779c.418 1.048-.419 2.307-1.675 2.726-1.256.21-2.512-.419-2.93-1.468zm7.745-.629-4.187-16.989c-.21-1.258.628-2.307 1.884-2.516 1.256-.21 2.512.419 2.93 1.677l4.187 16.989c.21 1.258-.628 2.307-1.884 2.517-1.256.209-2.512-.63-2.93-1.678zm7.326-1.049-1.256-16.988c0-1.259.837-2.517 2.302-2.517 1.256 0 2.512.839 2.512 2.307l1.256 16.988c0 1.259-.837 2.517-2.303 2.517-1.256 0-2.511-1.049-2.511-2.307z" fill="#EF393D"/>
        <path d="M90.212 132.979a2.095 2.095 0 0 0 2.093-2.098 2.095 2.095 0 0 0-2.093-2.097 2.095 2.095 0 0 0-2.093 2.097c0 1.159.937 2.098 2.093 2.098zM79.538 134.657a2.095 2.095 0 0 0 2.093-2.098 2.095 2.095 0 0 0-2.093-2.097 2.095 2.095 0 0 0-2.093 2.097c0 1.159.937 2.098 2.093 2.098zM86.772 144.276c2.751-.363 4.748-2.427 4.46-4.609-.287-2.182-2.75-3.656-5.5-3.292-2.75.363-4.747 2.427-4.46 4.609.287 2.182 2.75 3.656 5.5 3.292zM34.743 159.824l18.42-21.812 6.28-7.55 2.302-2.727c1.046-1.258 2.93-1.678 4.186-.629l1.256 1.049c1.256 1.048 1.256 2.936.21 4.194l-2.512 2.727-6.28 7.55-18.42 21.813-5.442-4.615z" fill="#1C2329"/>
        <path d="M63.63 131.511c.837.419 1.883.209 2.511-.63.419-.839.21-1.887-.628-2.516-.837-.42-1.884-.21-2.511.629-.42.839-.21 1.887.627 2.517z" fill="#B2392F"/>
        <path d="m132.076 156.469-21.979-18.247-7.535-6.292-2.721-2.307c-1.256-1.049-1.675-2.936-.628-4.195l1.046-1.258c1.047-1.259 2.931-1.259 4.187-.21l2.721 2.307 7.535 6.292 21.979 18.457-4.605 5.453z" fill="#1C2329"/>
        <path d="M103.608 127.735c.419-.839.21-1.887-.628-2.516-.837-.42-1.884-.21-2.511.629-.419.839-.21 1.887.627 2.517.838.419 1.884.209 2.512-.63z" fill="#B2392F"/>
        <path d="M139.821 138.012h52.12v30.831h-52.12v-30.831z" fill="#C7CAD0"/>
        <path d="M154.473 110.747v27.685h37.468v-9.858l-23.025-17.827h-14.443z" fill="#C7CAD0"/>
    </g>
</svg>
