<svg width="160" height="160" viewBox="0 0 160 160" fill="none" xmlns="http://www.w3.org/2000/svg">
<path d="M23.4306 147.027C54.6737 161.916 105.326 161.92 136.569 147.027C167.812 132.133 167.808 107.994 136.569 93.105C105.331 78.2157 54.6737 78.2157 23.4306 93.105C-7.81247 107.994 -7.80793 132.137 23.4306 147.027Z" fill="#F5F5F5"/>
<path d="M136.461 136.023C142.215 136.023 146.88 133.801 146.88 131.059C146.88 128.317 142.215 126.094 136.461 126.094C130.707 126.094 126.042 128.317 126.042 131.059C126.042 133.801 130.707 136.023 136.461 136.023Z" fill="#EBEBEB"/>
<path d="M21.0586 131.768L24.7447 129.642C26.8027 127.963 28.3691 125.759 29.2785 123.263C30.4166 120.125 30.2579 117.741 29.4418 116.544C28.4398 115.07 25.8419 115.328 25.7376 118.43C25.52 124.541 23.7381 128.781 21.0586 131.768Z" fill="#F0444C"/>
<path opacity="0.2" d="M21.0586 131.768L24.7447 129.642C26.8027 127.963 28.3691 125.759 29.2785 123.263C30.4166 120.125 30.2579 117.741 29.4418 116.544C28.4398 115.07 25.8419 115.328 25.7376 118.43C25.52 124.541 23.7381 128.781 21.0586 131.768Z" fill="black"/>
<path d="M21.0589 131.997C21.0109 131.996 20.9643 131.98 20.9259 131.952C20.8874 131.923 20.8591 131.883 20.845 131.837C20.8309 131.791 20.8317 131.742 20.8473 131.696C20.8629 131.651 20.8926 131.612 20.9319 131.584C29.4556 125.69 27.8053 117.47 27.7872 117.389C27.7809 117.359 27.7806 117.328 27.7862 117.298C27.7918 117.268 27.8033 117.24 27.8199 117.214C27.8365 117.189 27.858 117.167 27.8831 117.15C27.9082 117.133 27.9365 117.121 27.9663 117.114C27.996 117.108 28.0267 117.108 28.0566 117.113C28.0865 117.119 28.115 117.13 28.1405 117.147C28.166 117.164 28.1879 117.185 28.2051 117.21C28.2223 117.235 28.2343 117.264 28.2406 117.293C28.2406 117.38 29.9816 125.881 21.204 131.956C21.1614 131.985 21.1104 131.999 21.0589 131.997Z" fill="white"/>
<path d="M13.6733 136.037C13.6733 136.037 12.3902 134.994 12.6985 133.579C13.0068 132.165 13.8365 131.149 12.4174 129.327C10.9983 127.504 10.6039 125.074 12.2995 123.759C13.5917 122.739 15.6093 124.181 16.3347 121.492C16.8697 119.524 16.6884 115.167 19.1956 113.716C21.7028 112.266 23.2761 114.451 22.8817 117.407C22.5371 120.05 22.0474 122.594 22.4283 123.301C23.1628 124.661 24.4186 124.475 24.3597 126.96C24.3098 129.272 22.12 131.186 22.12 131.186L13.6733 136.037Z" fill="#F0444C"/>
<path d="M17.8857 133.819C17.8303 133.818 17.7769 133.798 17.7353 133.761C17.6937 133.725 17.6666 133.674 17.659 133.619C17.0107 128.247 18.5658 118.97 19.8353 116.214C19.846 116.183 19.8631 116.155 19.8855 116.132C19.9079 116.109 19.935 116.09 19.9651 116.078C19.9952 116.066 20.0275 116.061 20.0598 116.062C20.0922 116.064 20.1238 116.072 20.1527 116.087C20.1797 116.099 20.2041 116.117 20.2243 116.138C20.2445 116.16 20.2601 116.186 20.2702 116.214C20.2804 116.241 20.2848 116.271 20.2833 116.301C20.2818 116.33 20.2744 116.359 20.2615 116.386C19.0056 119.106 17.5049 128.41 18.126 133.547C18.1324 133.606 18.115 133.666 18.0776 133.713C18.0403 133.759 17.986 133.789 17.9265 133.796L17.8857 133.819Z" fill="white"/>
<path d="M17.7632 129.635C17.7285 129.636 17.694 129.628 17.6634 129.612C16.0902 128.846 15.0927 126.112 15.0519 125.985C15.0408 125.957 15.0355 125.926 15.0362 125.896C15.0369 125.866 15.0438 125.836 15.0562 125.808C15.0687 125.781 15.0866 125.756 15.1088 125.735C15.1311 125.715 15.1572 125.699 15.1857 125.689C15.2142 125.678 15.2445 125.674 15.2748 125.675C15.305 125.677 15.3347 125.685 15.3619 125.698C15.3892 125.711 15.4135 125.73 15.4335 125.752C15.4534 125.775 15.4686 125.802 15.4781 125.831C15.4781 125.858 16.4529 128.506 17.8629 129.19C17.9092 129.213 17.9465 129.25 17.9686 129.296C17.9908 129.343 17.9966 129.395 17.985 129.445C17.9734 129.495 17.9451 129.54 17.9048 129.572C17.8645 129.604 17.8146 129.621 17.7632 129.621V129.635Z" fill="white"/>
<path d="M17.7361 131.448C17.6906 131.448 17.6463 131.434 17.609 131.408C17.5717 131.382 17.5433 131.345 17.5275 131.303C17.505 131.247 17.5052 131.185 17.5281 131.13C17.551 131.075 17.5948 131.031 17.6499 131.008C20.2977 129.947 21.9481 126.796 21.9662 126.76C21.9939 126.706 22.0416 126.666 22.099 126.648C22.1564 126.629 22.2187 126.635 22.2722 126.662C22.3258 126.69 22.3661 126.738 22.3844 126.795C22.4026 126.852 22.3974 126.915 22.3697 126.968C22.2972 127.104 20.6242 130.305 17.8358 131.43C17.8048 131.444 17.7703 131.451 17.7361 131.448Z" fill="white"/>
<path d="M110.286 107.055C110.286 107.055 108.304 103.845 108.11 100.358C107.915 96.8715 108.681 95.4207 109.733 95.0035C110.784 94.5864 110.866 95.8695 111.406 96.6267C111.945 97.3838 113.047 96.9531 113.455 94.591C113.863 92.2288 115.35 88.2435 118.442 87.4682C121.843 86.6249 120.02 90.6147 119.163 92.1699C118.306 93.725 117.644 95.8468 118.206 96.4227C118.769 96.9985 119.644 95.933 120.473 96.9214C121.484 98.1138 118.343 102.407 116.538 103.446L110.286 107.055Z" fill="#F0444C"/>
<path d="M113.002 105.709C112.972 105.708 112.943 105.701 112.916 105.688C112.889 105.676 112.865 105.658 112.844 105.636C112.824 105.615 112.808 105.589 112.798 105.561C112.788 105.533 112.783 105.503 112.784 105.473C113.091 99.8648 114.84 94.4303 117.862 89.6955C117.879 89.6708 117.901 89.6499 117.927 89.6339C117.952 89.618 117.981 89.6073 118.01 89.6027C118.04 89.598 118.07 89.5994 118.099 89.6068C118.129 89.6142 118.156 89.6274 118.18 89.6456C118.227 89.6809 118.259 89.7334 118.268 89.7919C118.278 89.8503 118.264 89.9101 118.23 89.9584C115.262 94.624 113.544 99.9748 113.242 105.496C113.241 105.526 113.233 105.555 113.22 105.582C113.207 105.609 113.189 105.633 113.166 105.653C113.144 105.672 113.118 105.688 113.09 105.697C113.062 105.707 113.032 105.711 113.002 105.709Z" fill="white"/>
<path d="M113.26 103.028C113.222 103.028 113.185 103.019 113.151 103.001C111.882 102.298 111.179 100.213 111.152 100.127C111.142 100.098 111.137 100.068 111.139 100.039C111.141 100.009 111.148 99.9793 111.161 99.9523C111.174 99.9253 111.193 99.9012 111.215 99.8813C111.238 99.8614 111.264 99.8462 111.292 99.8365C111.349 99.8179 111.411 99.8228 111.465 99.85C111.519 99.8772 111.559 99.9245 111.578 99.9816C111.578 99.9816 112.258 101.99 113.391 102.602C113.443 102.633 113.48 102.682 113.496 102.739C113.513 102.797 113.506 102.858 113.478 102.911C113.457 102.95 113.425 102.982 113.387 103.003C113.348 103.024 113.304 103.033 113.26 103.028Z" fill="white"/>
<path d="M113.483 101.655C113.432 101.655 113.384 101.638 113.344 101.606C113.305 101.575 113.277 101.532 113.265 101.483C113.258 101.455 113.256 101.425 113.26 101.396C113.264 101.366 113.274 101.338 113.289 101.313C113.305 101.288 113.325 101.265 113.349 101.248C113.372 101.231 113.399 101.218 113.428 101.211C116.702 100.381 117.835 98.6676 117.844 98.6495C117.86 98.6241 117.881 98.6023 117.906 98.585C117.93 98.5678 117.958 98.5556 117.987 98.5491C118.016 98.5425 118.047 98.5418 118.076 98.547C118.106 98.5522 118.134 98.5631 118.159 98.5792C118.185 98.5953 118.207 98.6162 118.224 98.6407C118.241 98.6652 118.253 98.6929 118.26 98.7222C118.266 98.7514 118.267 98.7817 118.262 98.8112C118.257 98.8408 118.246 98.869 118.23 98.8943C118.18 98.9714 117.001 100.771 113.542 101.651L113.483 101.655Z" fill="white"/>
<path d="M60.9574 100.009C60.9574 100.009 56.6094 98.9483 56.3827 90.8054C56.1424 82.0187 57.4482 71.7631 52.3022 70.9333C47.1562 70.1036 44.2999 76.374 44.3633 83.6963C44.4223 90.1072 47.0066 104.026 60.9393 106.756L60.9574 100.009Z" fill="#F0444C"/>
<path opacity="0.2" d="M60.9574 100.009C60.9574 100.009 56.6094 98.9483 56.3827 90.8054C56.1424 82.0187 57.4482 71.7631 52.3022 70.9333C47.1562 70.1036 44.2999 76.374 44.3633 83.6963C44.4223 90.1072 47.0066 104.026 60.9393 106.756L60.9574 100.009Z" fill="black"/>
<path d="M60.957 105.92H60.9162C57.7833 105.349 55.2307 103.621 53.331 100.792C47.6999 92.3908 49.4727 76.7035 50.0575 73.965C50.0706 73.9067 50.1058 73.8557 50.1557 73.8227C50.2055 73.7898 50.2662 73.7774 50.325 73.7882C50.3837 73.8023 50.4348 73.8384 50.4677 73.889C50.5006 73.9396 50.5128 74.0009 50.5019 74.0602C49.9261 76.7806 48.1624 92.2684 53.7073 100.538C54.5145 101.821 55.5793 102.921 56.8343 103.771C58.0894 104.62 59.5072 105.199 60.9978 105.471C61.0274 105.476 61.0556 105.488 61.0808 105.504C61.106 105.521 61.1277 105.542 61.1445 105.567C61.1614 105.592 61.1732 105.62 61.1791 105.649C61.1851 105.679 61.1851 105.709 61.1792 105.739C61.1696 105.79 61.142 105.837 61.1013 105.87C61.0606 105.903 61.0095 105.921 60.957 105.92Z" fill="white"/>
<path d="M60.9574 126.819C56.4643 127.426 49.1692 127.417 44.9573 124.098C40.7453 120.78 41.6248 117.923 43.2434 116.731C44.862 115.538 46.2675 114.178 43.4837 111.531C40.6999 108.883 36.2295 104.63 34.7787 98.2508C33.3278 91.8716 34.0442 87.8817 36.8914 86.5533C39.6526 85.2657 40.3826 87.315 42.0737 91.5406C43.7648 95.7662 47.5688 92.1436 50.8241 93.463C54.0794 94.7823 53.948 97.3938 54.152 99.6381C54.356 101.882 55.4306 102.504 57.2758 102.504C59.1211 102.504 60.9574 103.564 60.9574 105.677V126.819Z" fill="#F0444C"/>
<path d="M60.9577 119.411C60.9383 119.415 60.9181 119.415 60.8987 119.411C60.7038 119.357 56.0565 118.005 49.2874 111.789C42.0785 105.17 38.6781 95.2407 38.6418 95.141C38.6245 95.0838 38.6299 95.0222 38.6569 94.969C38.684 94.9157 38.7305 94.875 38.7869 94.8553C38.8435 94.8365 38.9051 94.8407 38.9586 94.867C39.012 94.8933 39.053 94.9396 39.0726 94.9959C39.1043 95.0956 42.473 104.916 49.5957 111.454C56.2696 117.588 60.9713 118.962 61.0211 118.976C61.0497 118.984 61.0764 118.998 61.0996 119.017C61.1228 119.035 61.1421 119.058 61.1564 119.084C61.1708 119.11 61.1798 119.139 61.183 119.169C61.1863 119.198 61.1836 119.228 61.1753 119.257C61.1606 119.303 61.1314 119.342 61.0922 119.37C61.0529 119.398 61.0057 119.412 60.9577 119.411Z" fill="white"/>
<path d="M51.1774 113.366C51.1319 113.367 51.0872 113.353 51.0498 113.327C51.0124 113.301 50.9841 113.264 50.9689 113.221C49.5135 109.485 49.1825 101.492 49.1553 101.152C49.1541 101.092 49.176 101.034 49.2166 100.99C49.2572 100.946 49.3132 100.92 49.373 100.916C49.4322 100.917 49.489 100.94 49.5325 100.98C49.576 101.02 49.6031 101.075 49.6087 101.134C49.6087 101.216 49.9488 109.39 51.3769 113.058C51.3879 113.086 51.3931 113.116 51.3924 113.146C51.3917 113.176 51.385 113.205 51.3728 113.233C51.3606 113.26 51.343 113.285 51.3212 113.306C51.2993 113.326 51.2736 113.342 51.2455 113.353C51.2236 113.361 51.2007 113.365 51.1774 113.366Z" fill="white"/>
<path d="M51.1419 118.739C50.7239 118.743 50.3061 118.721 49.8906 118.676C49.8608 118.672 49.832 118.663 49.8059 118.648C49.7798 118.633 49.7568 118.614 49.7382 118.59C49.7197 118.567 49.706 118.54 49.6979 118.511C49.6898 118.482 49.6875 118.452 49.6911 118.422C49.6947 118.392 49.7041 118.363 49.7187 118.337C49.7334 118.311 49.7531 118.288 49.7767 118.27C49.8003 118.251 49.8273 118.237 49.8562 118.229C49.885 118.221 49.9152 118.219 49.945 118.222C49.9858 118.222 54.2068 118.703 56.1428 116.731C56.163 116.707 56.1878 116.687 56.2159 116.674C56.2439 116.66 56.2745 116.652 56.3057 116.651C56.3369 116.649 56.368 116.654 56.3972 116.665C56.4264 116.677 56.4529 116.694 56.4752 116.716C56.4974 116.738 56.5149 116.764 56.5265 116.793C56.5381 116.822 56.5436 116.853 56.5426 116.884C56.5416 116.915 56.5342 116.946 56.5208 116.974C56.5074 117.002 56.4883 117.028 56.4647 117.048C55.0638 118.494 52.62 118.739 51.1419 118.739Z" fill="white"/>
<path d="M47.8781 32.8856L47.3885 30.0609L44.8676 31.7204C44.6373 31.267 44.3108 30.8693 43.911 30.5551L45.117 27.2907L42.85 26.7875L41.1906 29.9612C40.5903 30.0625 40.0082 30.2519 39.4632 30.5234L38.7423 28.1295L36.0492 30.2468L36.226 33.0578C35.6776 33.6722 35.1802 34.3303 34.7389 35.0256L32.5173 34.9122L30.9576 38.4078L32.8664 39.224C32.6671 39.947 32.5411 40.6882 32.4901 41.4365L30.0645 43.6672L30.5496 46.4963L33.075 44.8369C33.304 45.2899 33.6307 45.6863 34.0316 45.9976L32.8483 49.2665L35.1152 49.7653L37.491 47.453C38.0396 47.3668 37.9036 46.3331 38.502 46.0384L39.2229 48.4232L41.9115 46.3104L41.8435 45.2042C42.3876 44.5966 44.446 43.2591 44.8903 42.5609L45.448 41.6541L47.0076 38.1585L46.2822 36.8437L45.4752 35.1298L47.8781 32.8856ZM39.6491 42.1846C37.5816 43.8077 36.9288 44.1659 36.5797 41.9942C36.2305 39.8224 37.4139 36.5217 39.4814 34.8941C41.5488 33.2664 42.3377 33.1531 42.7095 35.3203C43.0813 37.4875 41.7211 40.5796 39.6491 42.1846Z" fill="#E0E0E0"/>
<path d="M42.8674 26.7875L45.8099 28.4832L44.1505 31.6478L41.208 29.9521L42.8674 26.7875Z" fill="#F5F5F5"/>
<path d="M50.3305 31.7581L47.8097 33.4176L44.8672 31.7219L47.388 30.0625L50.3305 31.7581Z" fill="#F5F5F5"/>
<path d="M49.9274 39.8416L48.0187 39.03L45.0762 37.3344L46.9849 38.1459L49.9274 39.8416Z" fill="#E0E0E0"/>
<path d="M32.8438 49.2689L35.7862 50.9601L36.9923 47.6956L34.0498 46L32.8438 49.2689Z" fill="#E0E0E0"/>
<path d="M42.1374 50.118L39.1994 48.4223L38.4785 46.0374L41.421 47.7331L42.1374 50.118Z" fill="#E0E0E0"/>
<path d="M50.8154 34.5822L50.3303 31.7575L47.8094 33.417C47.5774 32.9634 47.2494 32.5658 46.8483 32.2517L48.0543 28.9873L45.81 28.4841L44.1461 31.6578C43.5457 31.7591 42.9636 31.9485 42.4186 32.22L41.7023 29.8352L39.0092 31.9525L39.186 34.7635C38.6369 35.3822 38.1396 36.0448 37.6989 36.7448L35.4727 36.6315L33.9131 40.1271L35.8218 40.9432C35.6244 41.6682 35.4983 42.4108 35.4455 43.1603L33.0244 45.3592L33.5095 48.1884L36.0304 46.529C36.2625 46.9812 36.5905 47.3773 36.9916 47.6897L35.7856 50.9541L38.0525 51.4573L39.7119 48.2836C40.3146 48.1834 40.8986 47.9923 41.4439 47.7169L42.1602 50.1017L44.8533 47.9889L44.6765 45.1779C45.225 44.5635 45.7223 43.9054 46.1636 43.2102L48.3898 43.319L49.9494 39.8233L48.0135 39.0118C48.2142 38.2873 48.3418 37.5446 48.3943 36.7947L50.8154 34.5822ZM42.5955 43.8993C40.5325 45.5224 38.5558 45.0827 38.1795 42.9155C37.8031 40.7483 39.1769 37.6697 41.2444 36.0466C43.3118 34.4235 45.2841 34.8678 45.6604 37.035C46.0367 39.2022 44.6629 42.2762 42.5955 43.8993Z" fill="#EBEBEB"/>
<path d="M41.703 29.8269L38.7605 28.1313L36.0674 30.2486L39.0099 31.9443L41.703 29.8269Z" fill="#F5F5F5"/>
<path d="M36.0674 30.2471L36.2442 33.0581L39.1867 34.7538L39.0099 31.9428L36.0674 30.2471Z" fill="#E0E0E0"/>
<path d="M37.6993 36.7232L34.7568 35.0275L32.5352 34.9187L35.4731 36.6144L37.6993 36.7232Z" fill="#F5F5F5"/>
<path d="M32.5352 34.9187L30.9756 38.4098L33.9136 40.1055L35.4732 36.6144L32.5352 34.9187Z" fill="#E0E0E0"/>
<path d="M35.4456 43.1331L32.5077 41.4374L30.082 43.6681L33.02 45.3637L35.4456 43.1331Z" fill="#F5F5F5"/>
<path d="M33.5097 48.1936L30.5672 46.4979L30.082 43.6687L33.02 45.3644L33.5097 48.1936Z" fill="#E0E0E0"/>
<path d="M45.8107 28.4831L42.8682 26.7875L45.117 27.2907L48.0549 28.9864L45.8107 28.4831Z" fill="#F5F5F5"/>
<path d="M34.7022 20.0642V15.8432L31.3426 17.3575C31.1647 16.6413 30.8574 15.9637 30.4358 15.358L32.5532 11.0916L29.9688 9.59998L27.3301 13.5671C26.5948 13.5029 25.8539 13.5751 25.1448 13.7802L24.773 10.1123L21.1187 12.2251L20.7514 16.3056C19.9561 17.0103 19.2248 17.7841 18.5661 18.6179L15.9274 17.7111L13.3431 22.1906L15.4558 24.0042C15.0655 24.9914 14.762 26.0109 14.5491 27.0509L11.1895 29.4131V33.6387L14.5491 32.1244C14.727 32.8405 15.0343 33.5181 15.4558 34.1238L13.3521 38.3947L15.9364 39.8864L18.5752 35.9192C19.3105 35.9833 20.0514 35.911 20.7605 35.7061L21.1278 39.3741L24.7821 37.2613L25.1538 33.1808C26.2944 32.7646 27.3048 32.0545 28.0827 31.1224L29.9779 31.7889L32.5622 27.3139L30.9754 25.9537C31.3198 24.8195 31.4475 23.6305 31.3517 22.449L34.7022 20.0642ZM22.9458 30.61C20.1439 32.2286 18.4119 31.0634 18.4119 27.8398C18.4119 24.6162 20.7288 20.6309 23.5352 19.0123C26.3417 17.3937 28.0374 18.559 28.0374 21.8098C28.0374 25.0606 25.7523 28.9869 22.9458 30.61Z" fill="#E0E0E0"/>
<path d="M32.9068 11.2911L29.9688 9.59998L27.3301 13.5671L30.268 15.2628L32.9068 11.2911Z" fill="#F5F5F5"/>
<path d="M37.6449 17.5389L34.7024 15.8433L31.3428 17.3576L34.2853 19.0533L37.6449 17.5389Z" fill="#F5F5F5"/>
<path d="M24.0562 41.0699L21.1182 39.3742L20.751 35.7063L23.6889 37.4019L24.0562 41.0699Z" fill="#E0E0E0"/>
<path d="M13.3389 38.3947L16.2814 40.0904L18.3987 35.824L15.4562 34.1283L13.3389 38.3947Z" fill="#E0E0E0"/>
<path d="M37.6446 21.7828V17.5617L34.285 19.0624C34.1089 18.3456 33.8015 17.6677 33.3782 17.063L35.4955 12.7966L32.9112 11.3004L30.2725 15.2721C29.5371 15.2056 28.7958 15.2779 28.0872 15.4852L27.7154 11.8082L24.0611 13.921L23.6893 18.0015C22.8951 18.7074 22.1639 19.4811 21.5039 20.3138L18.8652 19.407L16.2809 23.8865L18.3982 25.7C18.0058 26.6866 17.7023 27.7062 17.4914 28.7468L14.1318 31.109V35.3346L17.4914 33.8202C17.6674 34.5371 17.9749 35.215 18.3982 35.8197L16.2809 40.0861L18.8652 41.5777L21.5039 37.6106C22.2393 37.6748 22.9802 37.6026 23.6893 37.3975L24.0611 41.0654L27.7154 38.9526L28.0826 34.8721C28.8779 34.1674 29.6092 33.3936 30.268 32.5598L32.9067 33.4666L35.491 28.9916L33.3737 27.1781C33.766 26.1915 34.0695 25.1719 34.2805 24.1313L37.6446 21.7828ZM25.8882 32.3286C23.0817 33.9472 20.8057 32.6324 20.8057 29.3952C20.8057 26.158 23.0727 22.218 25.8882 20.5949C28.7038 18.9717 30.9662 20.2911 30.9662 23.5283C30.9662 26.7655 28.6902 30.6828 25.8882 32.3059V32.3286Z" fill="#EBEBEB"/>
<path d="M18.5665 18.628L21.5044 20.3237L18.8657 19.4033L15.9277 17.7031L18.5665 18.628Z" fill="#F0F0F0"/>
<path d="M15.9268 17.7068L13.3418 22.1878L16.2833 23.8847L18.8683 19.4037L15.9268 17.7068Z" fill="#F5F5F5"/>
<path d="M13.3389 22.1819L16.2814 23.8776L18.3987 25.7002L15.4562 24.0091L13.3389 22.1819Z" fill="#E0E0E0"/>
<path d="M14.5491 27.0556L17.4916 28.7513L14.1319 31.1134L11.1895 29.4177L14.5491 27.0556Z" fill="#F5F5F5"/>
<path d="M11.1895 29.4188L14.1319 31.1144V35.34L11.1895 33.6444V29.4188Z" fill="#E0E0E0"/>
<path d="M27.716 11.8078L24.7735 10.1122L21.1191 12.2249L24.0571 13.9206L27.716 11.8078Z" fill="#F5F5F5"/>
<path d="M65.4369 132.886L108.055 108.276C108.149 108.243 108.231 108.181 108.288 108.1C108.346 108.019 108.377 107.922 108.377 107.822C108.377 107.723 108.346 107.626 108.288 107.544C108.231 107.463 108.149 107.402 108.055 107.369L104.116 105.102C103.871 104.979 103.602 104.915 103.329 104.915C103.056 104.915 102.786 104.979 102.542 105.102L59.9101 129.689C59.8162 129.722 59.7348 129.784 59.6773 129.865C59.6198 129.946 59.5889 130.043 59.5889 130.143C59.5889 130.242 59.6198 130.339 59.6773 130.42C59.7348 130.502 59.8162 130.563 59.9101 130.596L63.8636 132.863C64.1059 132.989 64.3744 133.057 64.6476 133.061C64.9208 133.065 65.1911 133.005 65.4369 132.886Z" fill="#E0E0E0"/>
<path d="M106.886 13.2588L68.4563 35.4477C67.8851 35.8205 67.4096 36.3226 67.0686 36.9134C66.7275 37.5042 66.5304 38.167 66.4932 38.8481V130.011C66.4932 131.262 67.3727 131.77 68.4563 131.145L106.886 108.956C107.458 108.584 107.934 108.082 108.275 107.491C108.616 106.9 108.813 106.237 108.849 105.555V14.3923C108.849 13.1409 107.974 12.6331 106.886 13.2588Z" fill="#455A64"/>
<path d="M68.4562 35.4473L106.885 13.2585C107.856 12.6963 108.658 13.0454 108.821 14.0202C108.731 13.4073 108.511 12.8206 108.178 12.2985C107.844 11.7765 107.404 11.3311 106.885 10.9915L105.29 10.0847C104.681 9.77607 104.009 9.6152 103.326 9.6152C102.644 9.6152 101.972 9.77607 101.363 10.0847L62.9294 32.2555C62.3505 32.6185 61.8732 33.1223 61.542 33.7199L67.0688 36.8937C67.3999 36.3008 67.8776 35.8028 68.4562 35.4473Z" fill="#37474F"/>
<path d="M60.957 126.818C60.9942 127.499 61.1914 128.162 61.5325 128.753C61.8735 129.343 62.3489 129.846 62.9202 130.218L64.5207 131.125C65.0746 131.402 65.6808 131.559 66.2996 131.586C66.9184 131.612 67.5359 131.508 68.1115 131.279C67.2047 131.633 66.4838 131.112 66.4838 129.992V38.8468C66.5066 38.1628 66.7049 37.4961 67.0597 36.9108L61.5328 33.7371C61.183 34.3179 60.985 34.9775 60.957 35.6549V126.818Z" fill="#263238"/>
<path d="M69.5129 47.5931L105.843 26.6239C106.496 26.2521 107.022 26.5559 107.022 27.304V94.7774C107 95.1863 106.882 95.5843 106.677 95.9389C106.472 96.2934 106.186 96.5945 105.843 96.8176L69.5265 117.787C68.8736 118.163 68.3477 117.859 68.3477 117.107V49.6334C68.3683 49.2258 68.4845 48.8287 68.6869 48.4743C68.8893 48.1199 69.1723 47.818 69.5129 47.5931Z" fill="white"/>
<path d="M87.6716 27.8081C87.471 27.9397 87.3042 28.1166 87.1845 28.3245C87.0648 28.5324 86.9956 28.7655 86.9824 29.005C86.9824 29.4584 87.2907 29.6262 87.6716 29.404C87.8729 29.2732 88.0403 29.0965 88.1601 28.8884C88.2799 28.6803 88.3486 28.4468 88.3607 28.2071C88.3607 27.7673 88.0524 27.5905 87.6716 27.8081Z" fill="#37474F"/>
<path d="M87.6715 110.529C86.8789 111.047 86.2196 111.745 85.747 112.566C85.2744 113.387 85.0017 114.308 84.9512 115.253C84.9512 116.99 86.1708 117.697 87.6715 116.827C88.4638 116.308 89.123 115.61 89.5955 114.789C90.0681 113.968 90.3409 113.048 90.3918 112.102C90.4009 110.366 89.1768 109.658 87.6715 110.529Z" fill="#37474F"/>
<path d="M81.1473 34.8251C80.7488 35.0896 80.4181 35.4441 80.1818 35.8599C79.9456 36.2758 79.8104 36.7413 79.7871 37.219C79.7871 38.0986 80.4037 38.4568 81.1473 38.017C81.55 37.755 81.8851 37.4016 82.1254 36.9856C82.3657 36.5696 82.5043 36.1028 82.5301 35.6231C82.5301 34.7435 81.9135 34.3853 81.1473 34.8251Z" fill="#37474F"/>
<path d="M84.5332 34.5268C84.5332 35.1162 84.9866 35.3384 85.5171 35.0255L94.5849 29.7798C94.8657 29.6044 95.1012 29.3651 95.2722 29.0815C95.4432 28.7979 95.5448 28.4779 95.5687 28.1476C95.5687 27.5627 95.1153 27.3406 94.5849 27.6534L85.5171 32.8991C85.2368 33.0741 85.0016 33.3126 84.8307 33.5954C84.6598 33.8782 84.5578 34.1973 84.5332 34.5268Z" fill="#37474F"/>
<path d="M64.0226 50.5135C64.3444 50.7231 64.6122 51.0056 64.8044 51.338C64.9966 51.6704 65.1078 52.0434 65.1289 52.4268C65.1289 53.1341 64.6347 53.4198 64.0226 53.0661C63.702 52.8558 63.4352 52.573 63.2439 52.2407C63.0525 51.9084 62.9419 51.5357 62.9209 51.1528C62.9209 50.4501 63.4151 50.1644 64.0226 50.5135Z" fill="#37474F"/>
<path d="M64.0226 59.0294C64.3444 59.239 64.6122 59.5214 64.8044 59.8538C64.9966 60.1862 65.1078 60.5593 65.1289 60.9427C65.1289 61.6454 64.6347 61.9311 64.0226 61.5819C63.702 61.3716 63.4352 61.0889 63.2439 60.7565C63.0525 60.4242 62.9419 60.0516 62.9209 59.6687C62.9209 58.9614 63.4151 58.6757 64.0226 59.0294Z" fill="#37474F"/>
<path d="M63.6776 50.6859C63.9993 50.8955 64.2671 51.1779 64.4593 51.5103C64.6516 51.8427 64.7627 52.2158 64.7838 52.5992C64.7838 53.3019 64.2896 53.5876 63.6776 53.2385C63.3558 53.0289 63.088 52.7464 62.8958 52.414C62.7036 52.0816 62.5924 51.7086 62.5713 51.3252C62.5758 50.6179 63.07 50.3458 63.6776 50.6859Z" fill="#455A64"/>
<path d="M63.6776 59.196C63.9999 59.4061 64.2681 59.6892 64.4603 60.0225C64.6526 60.3557 64.7634 60.7297 64.7838 61.1139C64.7838 61.8166 64.2896 62.1023 63.6776 61.7486C63.3551 61.5398 63.0866 61.2576 62.8943 60.925C62.702 60.5924 62.5913 60.219 62.5713 59.8353C62.5758 59.1326 63.07 58.8469 63.6776 59.196Z" fill="#455A64"/>
<path d="M114.376 29.4411C114.376 28.6885 113.85 28.3847 113.197 28.761L108.849 31.2683L76.881 49.7303C76.5376 49.9534 76.2518 50.2545 76.0469 50.6091C75.8421 50.9637 75.7239 51.3616 75.7021 51.7705V119.226C75.7021 119.978 76.2281 120.282 76.881 119.906L108.863 101.439L113.197 98.9367C113.541 98.7135 113.827 98.4124 114.031 98.0578C114.236 97.7033 114.354 97.3053 114.376 96.8964V29.4411Z" fill="white"/>
<path d="M114.829 29.4411C114.858 29.2138 114.818 28.983 114.717 28.7778C114.615 28.5726 114.454 28.4019 114.256 28.2872C114.058 28.1726 113.83 28.1189 113.601 28.133C113.372 28.1472 113.153 28.2284 112.97 28.3666L108.822 30.765L76.6537 49.354C76.2395 49.6154 75.8952 49.9737 75.6503 50.3978C75.4055 50.822 75.2674 51.2993 75.2482 51.7887V119.226C75.23 119.452 75.2735 119.679 75.3741 119.883C75.4747 120.086 75.6286 120.259 75.8194 120.382C75.9818 120.476 76.1667 120.525 76.3545 120.523C76.6202 120.514 76.8794 120.438 77.1071 120.3L109.298 101.711L113.437 99.3221C113.849 99.0581 114.191 98.6993 114.436 98.2757C114.681 97.852 114.82 97.376 114.843 96.8874L114.829 29.4411ZM108.831 100.936L108.459 101.154L76.6718 119.507C76.6184 119.548 76.5565 119.577 76.4906 119.591C76.4247 119.605 76.3565 119.604 76.291 119.589C76.232 119.552 76.1731 119.425 76.1731 119.217V51.7706C76.1966 51.4414 76.2945 51.1218 76.4594 50.8359C76.6243 50.5501 76.852 50.3053 77.1252 50.1202L108.881 31.758L113.415 29.1328C113.468 29.0918 113.53 29.0632 113.596 29.0491C113.662 29.0349 113.73 29.0357 113.795 29.0512C113.854 29.0875 113.913 29.2144 113.913 29.423V96.8964C113.89 97.2256 113.792 97.5452 113.627 97.8311C113.462 98.117 113.234 98.3617 112.961 98.5468L108.822 100.936H108.831Z" fill="#F0444C"/>
<path d="M95.0385 45.1134C99.119 42.7648 102.406 44.66 102.406 49.3707C102.406 54.0814 99.1054 59.7986 95.0385 62.1291C90.9716 64.4595 87.6709 62.5824 87.6709 57.8763C87.6709 53.1701 90.9716 47.4664 95.0385 45.1134Z" fill="#F0444C"/>
<path d="M95.0388 48.8136C96.3581 48.0519 97.4281 48.6685 97.4281 50.1738C97.3833 51.003 97.1436 51.81 96.7284 52.5292C96.3133 53.2485 95.7344 53.8597 95.0388 54.3132C93.7194 55.0749 92.6494 54.4583 92.6494 52.9531C92.6942 52.1238 92.934 51.3169 93.3491 50.5976C93.7643 49.8784 94.3431 49.2672 95.0388 48.8136Z" fill="#F0444C"/>
<path d="M99.6953 56.9367C99.6953 54.434 97.9407 53.4184 95.7689 54.6697L94.4088 55.4541C92.2416 56.7054 90.4824 59.7522 90.4824 62.2549V62.9305C91.7383 63.3431 93.3161 63.1209 95.0163 62.128C96.8998 60.9662 98.4925 59.389 99.6726 57.517L99.6953 56.9367Z" fill="#F0444C"/>
<path opacity="0.7" d="M95.0388 48.8136C96.3581 48.0519 97.4281 48.6685 97.4281 50.1738C97.3833 51.003 97.1436 51.81 96.7284 52.5292C96.3133 53.2485 95.7344 53.8597 95.0388 54.3132C93.7194 55.0749 92.6494 54.4583 92.6494 52.9531C92.6942 52.1238 92.934 51.3169 93.3491 50.5976C93.7643 49.8784 94.3431 49.2672 95.0388 48.8136Z" fill="white"/>
<path opacity="0.7" d="M99.6953 56.9367C99.6953 54.434 97.9407 53.4184 95.7689 54.6697L94.4088 55.4541C92.2416 56.7054 90.4824 59.7522 90.4824 62.2549V62.9305C91.7383 63.3431 93.3161 63.1209 95.0163 62.128C96.8998 60.9662 98.4925 59.389 99.6726 57.517L99.6953 56.9367Z" fill="white"/>
<path d="M80.7844 72.4886L90.2647 67.0162C90.7181 66.7668 91.0491 66.9663 91.0491 67.4696V67.7824C91.0347 68.0549 90.9562 68.3201 90.8199 68.5565C90.6836 68.7929 90.4934 68.9937 90.2647 69.1426L80.7844 74.615C80.3536 74.8644 80 74.6604 80 74.1616V73.8488C80.0147 73.5764 80.0934 73.3113 80.2297 73.075C80.3659 72.8387 80.556 72.6378 80.7844 72.4886Z" fill="#F0444C"/>
<path opacity="0.1" d="M80.7844 72.4886L90.2647 67.0162C90.7181 66.7668 91.0491 66.9663 91.0491 67.4696V67.7824C91.0347 68.0549 90.9562 68.3201 90.8199 68.5565C90.6836 68.7929 90.4934 68.9937 90.2647 69.1426L80.7844 74.615C80.3536 74.8644 80 74.6604 80 74.1616V73.8488C80.0147 73.5764 80.0934 73.3113 80.2297 73.075C80.3659 72.8387 80.556 72.6378 80.7844 72.4886Z" fill="black"/>
<path d="M80.3944 79.0968L109.076 62.539C109.289 62.412 109.466 62.5118 109.466 62.7657V66.1117C109.458 66.2475 109.418 66.3796 109.351 66.4976C109.283 66.6156 109.189 66.7163 109.076 66.7918L80.3944 83.3495C80.1768 83.4765 80 83.3722 80 83.1229V79.7768C80.0078 79.6405 80.0475 79.5079 80.1161 79.3897C80.1846 79.2716 80.28 79.1712 80.3944 79.0968Z" fill="#F0444C"/>
<path opacity="0.2" d="M80.3944 79.0968L109.076 62.539C109.289 62.412 109.466 62.5118 109.466 62.7657V66.1117C109.458 66.2475 109.418 66.3796 109.351 66.4976C109.283 66.6156 109.189 66.7163 109.076 66.7918L80.3944 83.3495C80.1768 83.4765 80 83.3722 80 83.1229V79.7768C80.0078 79.6405 80.0475 79.5079 80.1161 79.3897C80.1846 79.2716 80.28 79.1712 80.3944 79.0968Z" fill="white"/>
<path d="M80.7844 87.3753L90.2647 81.9029C90.7181 81.6535 91.0491 81.8575 91.0491 82.3563V82.6691C91.0351 82.9417 90.9567 83.207 90.8204 83.4435C90.684 83.6799 90.4936 83.8806 90.2647 84.0293L80.7844 89.5017C80.3536 89.7556 80 89.5516 80 89.0483V88.7355C80.0154 88.4632 80.0944 88.1984 80.2306 87.9622C80.3668 87.726 80.5565 87.525 80.7844 87.3753Z" fill="#F0444C"/>
<path opacity="0.1" d="M80.7844 87.3753L90.2647 81.9029C90.7181 81.6535 91.0491 81.8575 91.0491 82.3563V82.6691C91.0351 82.9417 90.9567 83.207 90.8204 83.4435C90.684 83.6799 90.4936 83.8806 90.2647 84.0293L80.7844 89.5017C80.3536 89.7556 80 89.5516 80 89.0483V88.7355C80.0154 88.4632 80.0944 88.1984 80.2306 87.9622C80.3668 87.726 80.5565 87.525 80.7844 87.3753Z" fill="black"/>
<path d="M80.3944 93.9799L109.076 77.4222C109.289 77.2952 109.466 77.3995 109.466 77.6489V80.9949C109.458 81.1307 109.418 81.2627 109.351 81.3807C109.283 81.4988 109.189 81.5995 109.076 81.675L80.3944 98.2327C80.1768 98.3597 80 98.2599 80 98.006V94.66C80.0078 94.5237 80.0475 94.3911 80.1161 94.2729C80.1846 94.1548 80.28 94.0544 80.3944 93.9799Z" fill="#F0444C"/>
<path opacity="0.2" d="M80.3944 93.9799L109.076 77.4222C109.289 77.2952 109.466 77.3995 109.466 77.6489V80.9949C109.458 81.1307 109.418 81.2627 109.351 81.3807C109.283 81.4988 109.189 81.5995 109.076 81.675L80.3944 98.2327C80.1768 98.3597 80 98.2599 80 98.006V94.66C80.0078 94.5237 80.0475 94.3911 80.1161 94.2729C80.1846 94.1548 80.28 94.0544 80.3944 93.9799Z" fill="white"/>
<path d="M91.8332 95.8797L103.168 89.3464C103.621 89.0925 103.957 89.2965 103.957 89.7997V93.2999C103.942 93.5728 103.863 93.8383 103.726 94.0747C103.589 94.3111 103.397 94.5117 103.168 94.6601L91.8332 101.198C91.3798 101.447 91.0488 101.243 91.0488 100.745V97.2399C91.0646 96.9677 91.1437 96.703 91.2799 96.4669C91.4161 96.2307 91.6056 96.0297 91.8332 95.8797Z" fill="#F0444C"/>
<path opacity="0.1" d="M91.8332 95.8797L103.168 89.3464C103.621 89.0925 103.957 89.2965 103.957 89.7997V93.2999C103.942 93.5728 103.863 93.8383 103.726 94.0747C103.589 94.3111 103.397 94.5117 103.168 94.6601L91.8332 101.198C91.3798 101.447 91.0488 101.243 91.0488 100.745V97.2399C91.0646 96.9677 91.1437 96.703 91.2799 96.4669C91.4161 96.2307 91.6056 96.0297 91.8332 95.8797Z" fill="black"/>
<path d="M144.336 20.3453L143.588 20.7987C143.651 20.5325 143.686 20.2605 143.692 19.9871C143.692 18.4683 142.627 17.8562 141.312 18.6269C140.912 18.8683 140.555 19.1748 140.256 19.5337C140.256 17.4935 138.823 16.6638 137.055 17.6839C136.123 18.2916 135.348 19.1103 134.791 20.0737C134.235 21.0371 133.914 22.1181 133.854 23.2288C133.854 23.3331 133.854 23.4329 133.854 23.5326C133.398 23.4753 132.937 23.5813 132.553 23.8318C131.86 24.2833 131.283 24.8918 130.87 25.6079C130.456 26.3239 130.217 27.1274 130.172 27.9532C130.172 28.1451 130.192 28.3366 130.231 28.5244L129.832 28.7557C128.749 29.3813 127.869 30.601 127.869 31.476C127.869 32.351 128.749 32.5596 129.832 31.9294L144.341 23.5643C145.424 22.9387 146.304 21.7191 146.304 20.844C146.304 19.969 145.42 19.7151 144.336 20.3453Z" fill="#EBEBEB"/>
</svg>
