<svg width="24" height="24" viewBox="0 0 24 24" fill="none" xmlns="http://www.w3.org/2000/svg">
    <path d="M24 12c0 6.627-5.373 12-12 12S0 18.627 0 12 5.373 0 12 0s12 5.373 12 12z" fill="#FCC149"/>
    <path d="M19 9.405V7.5a1.56 1.56 0 0 0-.412-1.06A1.359 1.359 0 0 0 17.6 6H6.4c-.183 0-.365.039-.534.115-.17.075-.324.186-.453.325-.13.14-.232.305-.301.487-.07.182-.105.376-.105.573v1.905c-.007.255.05.508.166.731.116.223.286.409.492.537.223.13.408.322.537.555a1.599 1.599 0 0 1-.001 1.543c-.131.232-.319.422-.543.549a1.408 1.408 0 0 0-.49.542 1.53 1.53 0 0 0-.168.733V16.5c.001.398.15.778.412 1.06.262.28.617.439.988.44h11.2c.37-.001.726-.16.988-.44A1.56 1.56 0 0 0 19 16.5v-1.905a1.531 1.531 0 0 0-.169-.733 1.408 1.408 0 0 0-.49-.542 1.439 1.439 0 0 1-.542-.55 1.574 1.574 0 0 1 0-1.541c.131-.232.319-.422.543-.549.205-.131.374-.318.49-.542.115-.224.173-.477.168-.733zm-6.3 6.52a.2.2 0 0 1-.2.2h-1a.2.2 0 0 1-.2-.2v-1.1c0-.11.09-.2.2-.2h1c.11 0 .2.09.2.2v1.1zm0-3.375a.2.2 0 0 1-.2.2h-1a.2.2 0 0 1-.2-.2v-1.1c0-.11.09-.2.2-.2h1c.11 0 .2.09.2.2v1.1zm0-3.375a.2.2 0 0 1-.2.2h-1a.2.2 0 0 1-.2-.2v-1.1c0-.11.09-.2.2-.2h1c.11 0 .2.09.2.2v1.1z" fill="#fff"/>
</svg>
