<svg width="30" height="30" viewBox="0 0 30 30" fill="none" xmlns="http://www.w3.org/2000/svg">
    <path d="M30 15c0 8.284-6.716 15-15 15-8.284 0-15-6.716-15-15C0 6.716 6.716 0 15 0c8.284 0 15 6.716 15 15z" fill="#fff"/>
    <path d="M23.75 11.756V9.375a1.95 1.95 0 0 0-.515-1.324A1.698 1.698 0 0 0 22 7.5H8c-.229 0-.456.049-.668.143a1.74 1.74 0 0 0-.566.407c-.161.174-.29.38-.377.608-.087.228-.13.471-.13.717v2.381c-.01.32.062.635.207.914.145.28.358.511.616.67.277.164.51.404.671.696a1.997 1.997 0 0 1-.002 1.927c-.164.29-.398.528-.678.687a1.76 1.76 0 0 0-.612.678c-.145.28-.217.596-.21.916v2.381c0 .497.186.973.513 1.324.328.351.773.55 1.236.551h14c.463-.002.908-.2 1.235-.55a1.95 1.95 0 0 0 .515-1.325v-2.381a1.914 1.914 0 0 0-.21-.916 1.758 1.758 0 0 0-.613-.678 1.8 1.8 0 0 1-.678-.687A1.969 1.969 0 0 1 22 15c0-.34.087-.672.25-.963a1.8 1.8 0 0 1 .678-.687c.256-.164.468-.398.612-.678.145-.28.217-.596.21-.916zm-7.875 8.15a.25.25 0 0 1-.25.25h-1.25a.25.25 0 0 1-.25-.25v-1.375a.25.25 0 0 1 .25-.25h1.25a.25.25 0 0 1 .25.25v1.375zm0-4.218a.25.25 0 0 1-.25.25h-1.25a.25.25 0 0 1-.25-.25v-1.376a.25.25 0 0 1 .25-.25h1.25a.25.25 0 0 1 .25.25v1.376zm0-4.22a.25.25 0 0 1-.25.25h-1.25a.25.25 0 0 1-.25-.25v-1.374a.25.25 0 0 1 .25-.25h1.25a.25.25 0 0 1 .25.25v1.375z" fill="#F0444C"/>
</svg>
