<svg width="40" height="40" viewBox="0 0 40 40" fill="none" xmlns="http://www.w3.org/2000/svg">
<path d="M18.65 2.26665L6.98333 7.44999C6.39381 7.71295 5.89292 8.14079 5.54102 8.68194C5.18912 9.2231 5.00123 9.85448 5 10.5V18.3333C5 27.5833 11.4 36.2333 20 38.3333C28.6 36.2333 35 27.5833 35 18.3333V10.5C34.9988 9.85448 34.8109 9.2231 34.459 8.68194C34.1071 8.14079 33.6062 7.71295 33.0167 7.44999L21.35 2.26665C20.9252 2.07711 20.4652 1.97916 20 1.97916C19.5348 1.97916 19.0748 2.07711 18.65 2.26665ZM15.4833 27.15L11.1667 22.8333C10.8936 22.5145 10.7509 22.1044 10.7671 21.6849C10.7833 21.2654 10.9572 20.8675 11.2541 20.5707C11.5509 20.2739 11.9488 20.1 12.3682 20.0838C12.7877 20.0676 13.1978 20.2103 13.5167 20.4833L16.6667 23.6167L26.4667 13.8167C26.6161 13.6422 26.7999 13.5005 27.0067 13.4004C27.2135 13.3004 27.4387 13.2442 27.6682 13.2353C27.8978 13.2265 28.1267 13.2651 28.3405 13.3489C28.5544 13.4327 28.7487 13.5598 28.9111 13.7222C29.0735 13.8847 29.2006 14.0789 29.2844 14.2928C29.3682 14.5067 29.4069 14.7355 29.398 14.9651C29.3891 15.1946 29.3329 15.4198 29.2329 15.6266C29.1328 15.8334 28.9911 16.0172 28.8167 16.1667L17.8333 27.15C17.5211 27.4604 17.0986 27.6346 16.6583 27.6346C16.218 27.6346 15.7956 27.4604 15.4833 27.15Z" fill="url(#paint0_linear_1888_28008)"/>
<path fill-rule="evenodd" clip-rule="evenodd" d="M21.35 2.26665C20.9252 2.07711 20.4652 1.97916 20 1.97916C19.5348 1.97916 19.0748 2.07711 18.65 2.26665L6.98333 7.44999C6.39381 7.71295 5.89292 8.14079 5.54102 8.68194C5.18912 9.2231 5.00123 9.85448 5 10.5V18.3333C5 27.5833 11.4 36.2333 20 38.3333C28.6 36.2333 35 27.5833 35 18.3333V10.5C34.9988 9.85448 34.8109 9.2231 34.459 8.68194C34.1071 8.14079 33.6062 7.71295 33.0167 7.44999L21.35 2.26665ZM32.3377 8.97209C32.3375 8.97198 32.338 8.97221 32.3377 8.97209L20.6709 3.78871C20.4598 3.69451 20.2312 3.64582 20 3.64582C19.7688 3.64582 19.5402 3.69451 19.3291 3.7887L18.65 2.26665L19.3267 3.78976L7.66228 8.97209C7.66193 8.97225 7.66263 8.97194 7.66228 8.97209C7.3668 9.10414 7.11469 9.31919 6.93825 9.59053C6.76184 9.86181 6.66754 10.1783 6.66667 10.5018V18.3333C6.66667 26.739 12.4066 34.5428 20 36.6121C27.5934 34.5428 33.3333 26.739 33.3333 18.3333L33.3333 10.5032C33.3333 10.5027 33.3333 10.5036 33.3333 10.5032C33.3325 10.1796 33.2381 9.8618 33.0617 9.59053C32.8853 9.31911 32.6333 9.10413 32.3377 8.97209ZM14.3083 28.332L14.3048 28.3285L9.94263 23.9663L9.90076 23.9174C9.35467 23.2797 9.06932 22.4595 9.10172 21.6206C9.13413 20.7817 9.4819 19.9859 10.0755 19.3922C10.6692 18.7986 11.465 18.4508 12.3039 18.4184C13.1428 18.386 13.9631 18.6713 14.6008 19.2174L14.648 19.2579L16.6635 21.2628L25.2504 12.6759C25.54 12.3528 25.8899 12.0893 26.2809 11.9001C26.6944 11.7001 27.1449 11.5876 27.6039 11.5699C28.063 11.5522 28.5208 11.6295 28.9485 11.7971C29.3762 11.9647 29.7647 12.2189 30.0896 12.5437C30.4145 12.8686 30.6686 13.2571 30.8362 13.6848C31.0038 14.1126 31.0812 14.5703 31.0634 15.0294C31.0457 15.4885 30.9333 15.9389 30.7332 16.3525C30.5441 16.7434 30.2805 17.0933 29.9575 17.3829L19.0083 28.332C18.3838 28.9528 17.539 29.3013 16.6583 29.3013C15.7777 29.3013 14.9329 28.9528 14.3083 28.332ZM28.8167 16.1667C28.9911 16.0172 29.1328 15.8334 29.2329 15.6266C29.3329 15.4198 29.3891 15.1946 29.398 14.9651C29.4069 14.7355 29.3682 14.5067 29.2844 14.2928C29.2006 14.0789 29.0735 13.8847 28.9111 13.7222C28.7487 13.5598 28.5544 13.4327 28.3405 13.3489C28.1267 13.2651 27.8978 13.2265 27.6682 13.2353C27.4387 13.2442 27.2135 13.3004 27.0067 13.4004C26.7999 13.5005 26.6161 13.6422 26.4667 13.8167L16.6667 23.6167L13.5167 20.4833C13.1978 20.2103 12.7877 20.0676 12.3682 20.0838C11.9488 20.1 11.5509 20.2739 11.2541 20.5707C10.9572 20.8675 10.7833 21.2654 10.7671 21.6849C10.7509 22.1044 10.8936 22.5145 11.1667 22.8333L15.4833 27.15C15.7956 27.4604 16.218 27.6346 16.6583 27.6346C17.0986 27.6346 17.5211 27.4604 17.8333 27.15L28.8167 16.1667Z" fill="url(#paint1_linear_1888_28008)"/>
<defs>
<linearGradient id="paint0_linear_1888_28008" x1="5.18467" y1="22.9998" x2="35.0485" y2="19.0965" gradientUnits="userSpaceOnUse">
<stop offset="0.1373" stop-color="#237AE1"/>
<stop offset="0.9706" stop-color="#000F6A"/>
</linearGradient>
<linearGradient id="paint1_linear_1888_28008" x1="5.18467" y1="22.9998" x2="35.0485" y2="19.0965" gradientUnits="userSpaceOnUse">
<stop offset="0.1373" stop-color="#237AE1"/>
<stop offset="0.9706" stop-color="#000F6A"/>
</linearGradient>
</defs>
</svg>
