<svg width="24" height="24" viewBox="0 0 24 24" fill="none" xmlns="http://www.w3.org/2000/svg">
<path d="M23.1983 17.532C23.201 17.4336 23.233 17.3886 23.3129 17.3465C23.7603 17.1075 23.9947 16.7224 23.9974 16.1911C24.0001 15.4097 23.9947 14.6283 24.0001 13.8496C24.0001 13.6697 23.9654 13.5095 23.8882 13.3521C23.201 11.9016 22.5138 10.4512 21.8292 9.0007C21.5762 8.46662 21.1793 8.20239 20.6093 8.20801C19.5758 8.21644 18.5424 8.20801 17.5116 8.21363C17.4024 8.21363 17.3731 8.18552 17.3731 8.06746C17.3784 7.13703 17.3784 6.20661 17.3757 5.27618C17.3731 4.55938 16.8483 4.00281 16.1718 4.00281C12.3735 4 8.57258 4.00281 4.77431 4C4.12173 4 3.56504 4.57344 3.56504 5.28742C3.57037 8.91637 3.57037 12.5453 3.56504 16.1743C3.56504 16.8967 4.11907 17.487 4.78763 17.4758C5.14721 17.4701 5.50679 17.4758 5.86371 17.4729C5.93563 17.4729 5.96227 17.4898 5.96493 17.5713C5.97825 17.9789 6.08479 18.3584 6.27391 18.7154C6.35381 18.8644 6.46036 18.9937 6.55358 19.1539C6.17003 19.1539 4.46267 19.1511 3.96991 19.1567C3.64761 19.1595 3.4585 19.5081 3.62364 19.7892C3.71687 19.9494 3.85804 20 4.03117 20C6.14073 19.9972 8.25029 20 10.3625 20C14.7521 20 19.139 20 23.5286 20C23.8109 20 23.9947 19.837 23.9974 19.584C24.0001 19.3197 23.8216 19.1567 23.5286 19.1567C23.2276 19.1567 22.9266 19.1567 22.599 19.1567C22.639 19.0977 22.6629 19.0668 22.6869 19.033C23.0145 18.5889 23.185 18.0885 23.1983 17.532ZM10.1601 19.1483C10.2666 18.9824 10.3812 18.8363 10.4637 18.6704C10.6342 18.3303 10.7327 17.9705 10.7487 17.5882C10.7514 17.4842 10.786 17.4701 10.8739 17.4701C13.3457 17.4729 15.8202 17.4729 18.292 17.4729C18.3586 17.4729 18.4172 17.4561 18.4199 17.5713C18.4385 18.1335 18.6223 18.6367 18.9606 19.0724C18.9739 19.0892 18.9845 19.1089 19.0112 19.1483C16.0519 19.1483 13.114 19.1483 10.1601 19.1483Z" fill="#B91F24"/>
<path d="M10.4956 4.84601C12.3654 4.84601 14.2379 4.84601 16.1078 4.84601C16.454 4.84601 16.6005 5.00061 16.6005 5.36604C16.6005 9.07089 16.6005 12.7729 16.6032 16.4778C16.6032 16.6015 16.5766 16.6324 16.4594 16.6324C14.5656 16.6268 12.6744 16.6296 10.7806 16.6324C10.6741 16.6324 10.6288 16.5958 10.5888 16.4974C10.136 15.3843 9.05194 14.7603 7.93057 14.9936C7.09687 15.1679 6.50822 15.6879 6.16728 16.5143C6.13265 16.6015 6.09536 16.6324 6.0048 16.6324C5.61592 16.6268 5.22437 16.6324 4.83549 16.6296C4.56114 16.6296 4.396 16.4553 4.396 16.1686C4.396 16.0477 4.396 9.5881 4.396 7.82563C4.396 7.00764 4.396 6.18965 4.396 5.37166C4.396 5.00342 4.53983 4.84882 4.8861 4.84882C6.75593 4.84601 8.62577 4.84601 10.4956 4.84601Z" fill="#FE6973"/>
<path d="M17.4021 12.8293C17.4021 11.6177 17.4047 10.4062 17.3994 9.19469C17.3994 9.07663 17.4287 9.04852 17.5406 9.04852C18.5874 9.05414 19.6342 9.05414 20.6783 9.04852C20.8834 9.04852 21.0272 9.13004 21.1125 9.32681C21.1817 9.4786 21.251 9.63039 21.3282 9.77656C21.3788 9.87213 21.3522 9.89181 21.2589 9.89181C20.7049 9.889 20.1509 9.889 19.5969 9.889C19.2719 9.889 18.9496 9.889 18.6247 9.889C18.3636 9.89181 18.2012 10.0605 18.2012 10.3331C18.2012 11.4378 18.2012 12.5397 18.2012 13.6444C18.2012 13.9255 18.3663 14.097 18.6327 14.097C20.1136 14.097 21.5946 14.0998 23.0755 14.0942C23.19 14.0942 23.2327 14.1167 23.2327 14.2516C23.2247 14.8841 23.2273 15.5137 23.23 16.1462C23.23 16.2418 23.214 16.3317 23.1661 16.4132C23.1421 16.4526 23.1235 16.5032 23.0728 16.5032C23.0222 16.5004 23.0249 16.4414 23.0089 16.4076C22.7399 15.8145 22.3217 15.3816 21.7437 15.1314C20.5211 14.5974 19.1148 15.2186 18.6167 16.5144C18.5847 16.5988 18.5474 16.6269 18.4622 16.6269C18.1532 16.6213 17.8416 16.6213 17.5326 16.6269C17.4287 16.6297 17.3994 16.5988 17.3994 16.4863C17.4021 15.272 17.4021 14.052 17.4021 12.8293Z" fill="#DD393F"/>
<path d="M20.9823 13.2592C20.3696 13.2592 19.7597 13.2564 19.1471 13.262C19.0378 13.262 18.9926 13.2423 18.9952 13.1102C19.0006 12.3681 19.0006 11.6232 18.9952 10.8783C18.9952 10.7574 19.0299 10.7321 19.1391 10.7321C19.9781 10.7377 20.8145 10.7349 21.6535 10.7321C21.7467 10.7321 21.7867 10.763 21.8293 10.853C22.1862 11.6148 22.5485 12.3737 22.9134 13.1327C22.972 13.2536 22.932 13.2592 22.8308 13.2592C22.2155 13.2592 21.6002 13.2592 20.9823 13.2592Z" fill="#FE6973"/>
<path d="M22.4257 17.4757C22.3937 18.4174 21.7225 19.151 20.8222 19.1482C19.9352 19.1454 19.248 18.4061 19.2401 17.4701C19.2321 16.5565 19.9725 15.7751 20.8435 15.7947C21.7332 15.8144 22.3991 16.5256 22.4257 17.4757Z" fill="#F35056"/>
<path d="M8.37254 19.1509C7.49356 19.1172 6.78504 18.4173 6.79304 17.4531C6.80103 16.503 7.49889 15.789 8.39119 15.7946C9.28082 15.8003 9.97602 16.5283 9.96803 17.4868C9.9627 18.4117 9.27549 19.1285 8.37254 19.1509Z" fill="#F35056"/>
<path d="M2.91505 7.42383C3.74876 7.42383 4.57979 7.42383 5.4135 7.42383C5.57864 7.42383 5.70383 7.49972 5.78107 7.65433C5.85832 7.80331 5.845 7.95229 5.75177 8.09003C5.66387 8.22214 5.53602 8.27274 5.3842 8.26993C4.50255 8.26712 3.6209 8.26993 2.73926 8.26993C1.95883 8.26993 1.18106 8.26993 0.40063 8.26993C0.195534 8.26993 0.0277286 8.1097 0.00375632 7.91012C-0.0228795 7.6993 0.0943182 7.50816 0.286096 7.4435C0.347359 7.42383 0.408621 7.42664 0.469884 7.42664C1.28494 7.42383 2.1 7.42383 2.91505 7.42383Z" fill="#B91F24"/>
<path d="M2.91505 10.7913C3.74876 10.7913 4.57979 10.7913 5.4135 10.7913C5.57864 10.7913 5.70383 10.8672 5.78107 11.0218C5.85832 11.1708 5.845 11.3198 5.75177 11.4575C5.66387 11.5896 5.53602 11.6402 5.3842 11.6374C4.50255 11.6346 3.6209 11.6374 2.73926 11.6374C1.95883 11.6374 1.18106 11.6374 0.40063 11.6374C0.195534 11.6374 0.0277286 11.4772 0.00375632 11.2776C-0.0228795 11.0668 0.0943182 10.8756 0.286096 10.811C0.347359 10.7913 0.408621 10.7941 0.469884 10.7941C1.28494 10.7913 2.1 10.7913 2.91505 10.7913Z" fill="#B91F24"/>
<path d="M3.7116 9.95376C3.15224 9.95376 2.59555 9.95376 2.0362 9.95376C1.76984 9.95376 1.59405 9.77948 1.59671 9.52369C1.59937 9.27913 1.77783 9.11047 2.0362 9.11047C3.15224 9.11047 4.26829 9.11047 5.38433 9.11047C5.64536 9.11047 5.82382 9.27913 5.82648 9.5265C5.82915 9.77948 5.64802 9.95376 5.38433 9.95657C4.82764 9.95376 4.26829 9.95376 3.7116 9.95376Z" fill="#B91F24"/>
<path d="M3.7116 13.3184C3.15224 13.3184 2.59555 13.3184 2.0362 13.3184C1.76984 13.3184 1.59405 13.1442 1.59671 12.8884C1.59937 12.6438 1.77783 12.4752 2.0362 12.4752C3.15224 12.4752 4.26829 12.4752 5.38433 12.4752C5.64536 12.4752 5.82382 12.6438 5.82648 12.8912C5.82915 13.1442 5.64802 13.3184 5.38433 13.3213C4.82764 13.3184 4.26829 13.3184 3.7116 13.3184Z" fill="#B91F24"/>
</svg>
