<svg width="240" height="230" viewBox="0 0 240 230" fill="none" xmlns="http://www.w3.org/2000/svg">
<ellipse cx="107.048" cy="111.169" rx="95.3169" ry="96.1126" fill="#FFEFF0"/>
<path d="M209.629 84.0563C225.85 81.3357 236.693 66.5581 233.847 51.0496C231.002 35.5412 215.545 25.1747 199.323 27.8953C183.102 30.616 172.259 45.3936 175.105 60.902C177.951 76.4105 193.407 86.777 209.629 84.0563Z" fill="#DE4147"/>
<path d="M208.841 83.1459C224.619 80.4996 235.166 66.1258 232.398 51.0411C229.63 35.9564 214.595 25.8732 198.817 28.5195C183.039 31.1658 172.492 45.5396 175.26 60.6243C178.028 75.709 193.063 85.7923 208.841 83.1459Z" fill="#F95A60"/>
<path d="M211.159 75.2838C222.538 71.1328 228.243 58.9486 223.901 48.0698C219.559 37.1909 206.815 31.737 195.436 35.888C184.057 40.039 178.353 52.2232 182.695 63.102C187.036 73.9809 199.781 79.4348 211.159 75.2838Z" fill="#F58E92"/>
<path d="M202.885 36.339C202.885 36.0542 203.126 35.8233 203.424 35.8233C203.722 35.8233 203.963 36.0542 203.963 36.339V39.9493C203.963 40.2341 203.722 40.465 203.424 40.465C203.126 40.465 202.885 40.2341 202.885 39.9493V36.339Z" fill="#FFF2F2"/>
<path d="M202.885 71.4098C202.885 71.125 203.126 70.894 203.424 70.894C203.722 70.894 203.963 71.125 203.963 71.4098V75.02C203.963 75.3048 203.722 75.5358 203.424 75.5358C203.126 75.5358 202.885 75.3048 202.885 75.02V71.4098Z" fill="#FFF2F2"/>
<path d="M223.653 55.1638C223.951 55.1638 224.193 55.3947 224.193 55.6796C224.193 55.9644 223.951 56.1953 223.653 56.1953L219.877 56.1953C219.579 56.1953 219.338 55.9644 219.338 55.6796C219.338 55.3947 219.579 55.1638 219.877 55.1638L223.653 55.1638Z" fill="#FFF2F2"/>
<path d="M186.971 55.1638C187.268 55.1638 187.51 55.3947 187.51 55.6796C187.51 55.9644 187.268 56.1953 186.971 56.1953L183.194 56.1953C182.896 56.1953 182.655 55.9644 182.655 55.6796C182.655 55.3947 182.896 55.1638 183.194 55.1638L186.971 55.1638Z" fill="#FFF2F2"/>
<path fill-rule="evenodd" clip-rule="evenodd" d="M203.424 46.654C202.828 46.654 202.345 47.1158 202.345 47.6855V54.3902H201.805C201.21 54.3902 200.727 54.852 200.727 55.4217C200.727 55.9913 201.21 56.4532 201.805 56.4532H202.345C202.345 57.0228 202.828 57.4847 203.424 57.4847C204.02 57.4847 204.503 57.0228 204.503 56.4532H216.371C216.967 56.4532 217.45 55.9913 217.45 55.4217C217.45 54.852 216.967 54.3902 216.371 54.3902H204.503V47.6855C204.503 47.1158 204.02 46.654 203.424 46.654Z" fill="#FFF2F2"/>
<path d="M13.7348 140.192H64.6438V99.8749H13.7348L13.7348 140.192Z" fill="#FFE0A5"/>
<path d="M18.0525 135.55H21.9531V131.018H18.0525V135.55Z" fill="white"/>
<path d="M49.1102 99.9777H43.3276V108.58H49.1102V99.9777Z" fill="#F2CD84"/>
<path d="M49.1102 131.471H43.3276V140.074H49.1102V131.471Z" fill="#F2CD84"/>
<path d="M84.0451 140.259H0V206.815H84.0451V140.259Z" fill="#F7CF82"/>
<path d="M62.9875 206.349C62.8946 206.349 62.8213 191.513 62.8213 173.219C62.8213 154.915 62.8946 140.084 62.9875 140.084C63.0804 140.084 63.1537 154.915 63.1537 173.219C63.1537 191.513 63.0804 206.349 62.9875 206.349Z" fill="#E1E1E1"/>
<path d="M76.9183 191.669H70.4758V199.147H76.9183V191.669Z" fill="#FAFAFA"/>
<path d="M35.1841 140.43H25.6377V154.634H35.1841V140.43Z" fill="#EDBF66"/>
<path d="M35.1841 192.416H25.6377V206.619H35.1841V192.416Z" fill="#EDBF66"/>
<path d="M183.698 24.332C183.698 24.332 178.521 21.3859 173.447 33.9584C168.374 46.5308 166.633 53.6828 166.633 53.6828C166.633 53.6828 165.24 56.3428 163.422 54.8221C161.599 53.3013 158.92 48.7943 156.105 49.8734C153.186 50.9926 152.463 54.4908 153.416 59.4746C154.369 64.4584 156.07 75.4549 156.222 76.4487C156.369 77.4273 155.933 78.918 154.531 78.0848C153.128 77.2567 144.808 69.121 141.284 73.4072C137.765 77.6933 142.643 91.124 143.146 92.6046C143.655 94.0852 143.415 94.7527 142.746 95.1843C142.076 95.616 139.529 92.6096 137.071 90.3963C134.612 88.1829 131.381 86.0599 129.553 88.7049C127.725 91.3499 127.866 101.714 138.703 117.689L144.197 124.756L152.962 123.541C171.565 119.772 178.678 112.419 179.152 109.207C179.626 105.995 175.867 105.222 172.597 105.062C169.332 104.901 165.465 105.247 165.275 104.459C165.084 103.671 165.363 103.019 166.726 102.316C168.09 101.614 180.687 95.4252 181.053 89.8341C181.42 84.238 169.928 84.1577 168.359 83.7562C166.79 83.3547 167.484 81.9695 168.251 81.3722C169.033 80.7649 177.695 74.0647 181.747 71.1587C185.799 68.2527 187.652 65.2213 186.308 62.3354C185.012 59.5549 180.032 60.8849 177.695 60.6792C175.359 60.4734 176.155 57.5674 176.155 57.5674C176.155 57.5674 179.743 51.1783 184.592 38.5156C189.441 25.8528 183.575 24.2718 183.575 24.2718" fill="#FFE0E2"/>
<path d="M144.5 122.884C148.098 113.599 153.172 100.811 158.822 86.7078C164.473 72.6096 169.576 59.8365 173.222 50.5715C175.036 45.9491 176.507 42.1999 177.529 39.5951C178.037 38.3103 178.428 37.3065 178.702 36.6139C178.834 36.2826 178.941 36.0266 179.015 35.8409C179.088 35.6653 179.132 35.58 179.132 35.58C179.132 35.58 179.108 35.6753 179.044 35.851C178.976 36.0417 178.883 36.3027 178.761 36.6339C178.497 37.3366 178.12 38.3454 177.636 39.6403C176.659 42.2501 175.217 46.0093 173.418 50.6518C169.82 59.9368 164.747 72.7251 159.101 86.8233C153.45 100.926 148.347 113.7 144.701 122.965" fill="#FF4F5B"/>
<path d="M159.604 56.3372C159.624 56.3272 159.722 56.543 159.878 56.9295C160.039 57.3159 160.249 57.8831 160.509 58.5857C161.017 59.9961 161.672 61.9585 162.356 64.1367C163.016 66.2848 163.617 68.2271 164.082 69.7278C164.287 70.3903 164.468 70.9574 164.61 71.4191C164.737 71.8156 164.795 72.0415 164.776 72.0515C164.756 72.0616 164.659 71.8508 164.497 71.4643C164.341 71.0779 164.126 70.5107 163.876 69.8031C163.378 68.3877 162.752 66.4153 162.068 64.2371C161.393 62.094 160.777 60.1617 160.308 58.661C160.098 57.9985 159.917 57.4364 159.77 56.9696C159.643 56.5681 159.585 56.3423 159.604 56.3372Z" fill="#FF4F5B"/>
<path d="M165.592 72.1478C165.563 72.0675 169.444 70.5016 174.264 68.6496C179.083 66.7977 183.013 65.3572 183.043 65.4375C183.072 65.5178 179.191 67.0837 174.371 68.9357C169.552 70.7927 165.622 72.2281 165.592 72.1478Z" fill="#FF4F5B"/>
<path d="M155.968 93.4025C155.968 93.3824 156.198 93.3523 156.613 93.3122C157.092 93.272 157.683 93.2269 158.373 93.1716C159.859 93.0512 161.912 92.8805 164.17 92.6045C166.428 92.3385 168.467 92.0223 169.938 91.7864C170.622 91.676 171.209 91.5857 171.683 91.5054C172.098 91.4401 172.328 91.415 172.328 91.4401C172.333 91.4602 172.108 91.5254 171.702 91.6258C171.297 91.7262 170.705 91.8567 169.972 92.0022C168.506 92.2984 166.467 92.6447 164.199 92.9157C161.936 93.1917 159.873 93.3272 158.378 93.3925C157.63 93.4226 157.028 93.4377 156.608 93.4326C156.198 93.4326 155.968 93.4226 155.968 93.4025Z" fill="#FF4F5B"/>
<path d="M147.482 80.3239C147.502 80.3139 147.639 80.4795 147.868 80.7957C148.103 81.1119 148.43 81.5736 148.831 82.1508C149.633 83.3052 150.723 84.9062 151.911 86.6929C153.098 88.4747 154.164 90.1008 154.917 91.2853C155.293 91.8775 155.596 92.3593 155.802 92.6956C156.007 93.0319 156.109 93.2226 156.09 93.2376C156.07 93.2477 155.934 93.082 155.704 92.7659C155.469 92.4497 155.142 91.9879 154.741 91.4107C153.939 90.2564 152.849 88.6553 151.661 86.8686C150.474 85.0869 149.408 83.4607 148.655 82.2763C148.279 81.684 147.976 81.2022 147.77 80.866C147.57 80.5297 147.467 80.339 147.482 80.3239Z" fill="#FF4F5B"/>
<path d="M136.66 97.9806C136.675 97.9706 136.851 98.1864 137.149 98.5929C137.476 99.0497 137.892 99.6318 138.385 100.324C139.422 101.795 140.834 103.843 142.379 106.111C143.924 108.38 145.312 110.448 146.299 111.953C146.764 112.671 147.15 113.268 147.458 113.745C147.727 114.172 147.868 114.413 147.849 114.428C147.834 114.438 147.658 114.222 147.36 113.815C147.032 113.359 146.617 112.776 146.123 112.084C145.087 110.613 143.674 108.566 142.13 106.297C140.585 104.028 139.202 101.961 138.209 100.46C137.745 99.7423 137.359 99.145 137.051 98.6682C136.787 98.2366 136.645 97.9907 136.66 97.9806Z" fill="#E1E1E1"/>
<path d="M147.692 113.955C147.692 113.935 147.981 113.89 148.508 113.825C149.09 113.754 149.838 113.669 150.737 113.564C152.619 113.343 155.215 113.032 158.069 112.605C160.929 112.184 163.505 111.732 165.367 111.396C166.257 111.235 167 111.104 167.577 110.999C168.1 110.909 168.388 110.869 168.393 110.889C168.398 110.909 168.114 110.989 167.601 111.12C167.088 111.245 166.335 111.421 165.411 111.611C163.554 112.003 160.978 112.49 158.113 112.911C155.249 113.338 152.644 113.614 150.757 113.78C149.814 113.86 149.046 113.915 148.518 113.94C147.985 113.97 147.692 113.975 147.692 113.955Z" fill="#FF4F5B"/>
<path d="M52.2385 204.607C58.8227 199.919 60.3428 191.176 60.1131 183.312C60.074 181.997 60.2206 180.617 59.6145 179.462C59.0084 178.308 57.5958 177.515 56.4471 178.067C55.4939 178.524 55.0784 179.653 54.5456 180.591C53.8369 181.836 52.7762 182.865 51.5395 183.522C50.7232 183.954 49.7162 184.215 48.9146 183.758C47.8148 183.131 47.6877 181.565 47.7024 180.26C47.7268 177.826 47.7464 175.392 47.7708 172.963C47.7855 171.658 47.7903 170.323 47.3993 169.083C47.0083 167.843 46.1382 166.689 44.9308 166.338C43.7235 165.986 42.2229 166.694 41.9638 167.974C41.8563 168.506 41.9589 169.058 41.9198 169.6C41.8807 170.142 41.6363 170.739 41.1328 170.89C40.6245 171.04 40.1161 170.669 39.7397 170.288C38.4297 168.963 37.545 167.261 36.7189 165.57C35.8928 163.878 35.0912 162.147 33.9034 160.706C32.7156 159.266 31.0732 158.117 29.2549 158.006C27.4316 157.896 25.4911 159.04 25.0218 160.877C24.5526 162.714 25.5937 164.586 26.7278 166.082C28.4092 168.3 30.3987 170.262 32.6179 171.889C33.0187 172.18 33.4488 172.501 33.6004 172.983C33.8741 173.856 33.0676 174.714 32.2317 175C31.2834 175.322 30.2569 175.216 29.2647 175.332C28.2724 175.447 27.197 175.894 26.8206 176.852C26.2976 178.182 27.3779 179.588 28.4435 180.506C30.5795 182.348 33.0187 183.809 35.624 184.797C36.5576 185.154 37.5401 185.465 38.2929 186.142C39.0456 186.82 39.4953 187.994 39.0359 188.913C38.5764 189.831 37.4081 190.122 36.4256 189.932C35.448 189.741 34.5731 189.194 33.6395 188.828C31.8944 188.145 29.6361 188.26 28.5119 189.806C27.7738 190.825 27.7054 192.24 28.072 193.46C28.4386 194.675 29.1913 195.724 29.9881 196.692C32.7792 200.075 36.3523 202.805 40.4045 204.261C44.4518 205.701 48.2058 206.103 52.2385 204.607Z" fill="#F95A60"/>
<path d="M51.8034 206.82C51.5346 203.703 51.3977 203.638 50.2784 199.668C49.1639 195.693 47.5899 191.447 45.8009 187.055C45.3463 185.961 44.9015 184.877 44.4616 183.813C44.0217 182.749 43.5817 181.695 43.0881 180.691C42.1153 178.679 41.0302 176.817 39.945 175.085C38.8599 173.354 37.7699 171.748 36.7434 170.257C35.712 168.766 34.7197 167.396 33.7665 166.187C31.8651 163.757 30.1152 161.991 28.8589 160.826C28.2333 160.244 27.7347 159.808 27.3925 159.511C27.2263 159.371 27.0993 159.265 27.0015 159.18C26.9135 159.11 26.8646 159.07 26.8646 159.075C26.8597 159.08 26.9037 159.12 26.9868 159.2C27.0797 159.286 27.2068 159.401 27.3632 159.547C27.6956 159.848 28.1844 160.299 28.8003 160.892C30.0321 162.076 31.7624 163.858 33.6395 166.292C34.5828 167.507 35.5605 168.877 36.5821 170.372C37.6037 171.868 38.6888 173.474 39.7642 175.206C40.8395 176.937 41.9149 178.794 42.8828 180.797C43.3716 181.795 43.8017 182.844 44.2465 183.908C44.6864 184.972 45.1313 186.057 45.5858 187.151C47.3798 191.537 48.9537 195.773 50.0731 199.728C51.2022 203.683 51.3537 203.728 51.6372 206.83" fill="#FFF8F8"/>
<path d="M43.0197 180.681C43.0344 180.686 43.0784 180.485 43.1468 180.124C43.2153 179.762 43.2984 179.24 43.3863 178.588C43.5721 177.288 43.7676 175.486 43.9729 173.499C44.1782 171.511 44.3982 169.714 44.6035 168.42C44.7012 167.772 44.7892 167.25 44.8528 166.889C44.9163 166.527 44.9407 166.327 44.9261 166.322C44.9114 166.317 44.8528 166.512 44.7648 166.869C44.6719 167.225 44.5644 167.742 44.4422 168.389C44.1978 169.679 43.9485 171.481 43.7432 173.469C43.5428 175.431 43.3619 177.208 43.225 178.563C43.1566 179.175 43.1028 179.692 43.0588 180.109C43.0197 180.475 43.0051 180.681 43.0197 180.681Z" fill="#FFF8F8"/>
<path d="M26.6838 177.484C26.6838 177.499 26.9136 177.529 27.3339 177.564C27.7543 177.604 28.3604 177.659 29.1083 177.75C30.6041 177.92 32.6668 178.231 34.9202 178.678C37.1785 179.13 39.2021 179.622 40.6588 180.028C41.3871 180.224 41.9736 180.4 42.3794 180.515C42.7851 180.635 43.0099 180.696 43.0148 180.676C43.0197 180.66 42.8046 180.57 42.4038 180.425C42.0079 180.279 41.4262 180.078 40.6979 179.862C39.251 179.416 37.2225 178.894 34.9593 178.442C32.6961 177.995 30.6236 177.709 29.1181 177.584C28.3653 177.514 27.7543 177.484 27.3339 177.473C26.9185 177.463 26.6838 177.468 26.6838 177.484Z" fill="#FFF8F8"/>
<path d="M50.078 199.361C50.0878 199.366 50.122 199.296 50.1904 199.156C50.2686 198.99 50.3615 198.789 50.4739 198.548C50.7183 198.021 51.0458 197.248 51.4467 196.29C52.2434 194.368 53.2601 191.682 54.3404 188.701C55.4255 185.72 56.4178 183.025 57.1706 181.093C57.5421 180.154 57.8451 179.381 58.07 178.804C58.1677 178.553 58.2459 178.347 58.3095 178.182C58.3632 178.036 58.3877 177.961 58.3779 177.956C58.3681 177.951 58.3339 178.021 58.2655 178.161C58.1873 178.327 58.0944 178.523 57.982 178.769C57.7376 179.296 57.4101 180.069 57.0093 181.027C56.2125 182.95 55.1958 185.635 54.1106 188.616C53.0255 191.597 52.0332 194.292 51.2805 196.225C50.909 197.163 50.6059 197.936 50.3811 198.513C50.2833 198.764 50.2051 198.97 50.1416 199.136C50.0976 199.281 50.0731 199.356 50.078 199.361Z" fill="#1A2E35"/>
<path d="M28.3799 192.095C28.3799 192.105 28.4532 192.135 28.595 192.185C28.766 192.246 28.9713 192.316 29.2255 192.406C29.8072 192.602 30.5942 192.868 31.5473 193.189C33.5074 193.852 36.2105 194.795 39.1922 195.844C42.1739 196.893 44.8868 197.811 46.8616 198.434C47.849 198.745 48.6506 198.986 49.2078 199.142C49.4669 199.212 49.6771 199.272 49.8531 199.317C49.9997 199.352 50.0779 199.372 50.0828 199.362C50.0828 199.352 50.0095 199.322 49.8677 199.272C49.6966 199.212 49.4914 199.142 49.2372 199.051C48.6555 198.855 47.8685 198.589 46.9154 198.268C44.9552 197.606 42.2522 196.662 39.2704 195.613C36.2887 194.564 33.5808 193.646 31.6011 193.023C30.6137 192.712 29.8121 192.471 29.2548 192.316C28.9958 192.245 28.7856 192.185 28.6096 192.14C28.463 192.1 28.3848 192.085 28.3799 192.095Z" fill="#FFF8F8"/>
<path d="M131.611 206.815H63.5837C55.362 206.775 48.4161 199.578 48.4503 191.141L49.1737 15.2226C49.2129 6.77574 55.9095 -0.039975 64.1312 0.000176492L132.471 0.326407C140.693 0.366559 147.326 7.23748 147.287 15.6743L146.563 191.593C146.534 200.04 139.837 206.856 131.611 206.815Z" fill="#4E4747"/>
<path d="M132.378 7.01081L119.127 6.95058C117.352 6.94055 115.9 8.48136 115.896 10.3886L115.886 12.8579C115.881 14.7651 114.429 16.3059 112.655 16.2958L86.8264 16.1754C85.052 16.1653 83.6149 14.6145 83.6247 12.7073L83.6345 10.238C83.6442 8.33079 82.2072 6.77492 80.4328 6.7699L75.7745 6.74983L64.1752 6.69462C58.417 6.66952 53.7245 11.4425 53.7001 17.3548L52.9913 189.068C52.9669 194.98 57.6105 199.793 63.3686 199.818L131.572 200.139C137.33 200.164 142.022 195.391 142.047 189.479L142.755 17.7664C142.78 11.8491 138.131 7.03591 132.378 7.01081Z" fill="#F5F5F5"/>
<path d="M103.431 167.683C103.353 169.756 103.28 171.703 103.216 173.319H113.012L111.814 167.141L103.431 167.683Z" fill="#F5F5F5"/>
<path d="M63.613 170.268L63.6961 173.314H102.238C102.302 171.603 102.375 169.7 102.449 167.743L63.613 170.268Z" fill="#F5F5F5"/>
<path d="M112.308 167.106L113.51 173.319H131.572L131.357 165.871L112.308 167.106Z" fill="#F5F5F5"/>
<path d="M104.409 80.2829L107.826 59.9512L98.8755 59.2686V80.2829H104.409Z" fill="#F5F5F5"/>
<path d="M62.8066 158.98L53.0989 162.884L53.0696 169.946L63.095 169.294L62.8066 158.98Z" fill="#F5F5F5"/>
<path d="M62.7625 157.394L62.2297 138.458H62.2249V131.777L53.2211 132.756L53.1038 161.269L62.7576 157.384L62.7625 157.394Z" fill="#F5F5F5"/>
<path d="M62.225 116.871L53.2945 115.661L53.2261 131.245L62.225 130.266V116.871Z" fill="#F5F5F5"/>
<path d="M128.79 132.058L128.414 137.489L117.865 138.653L118.682 142.949L130.657 142.021L130.477 135.863L131.435 131.787L128.79 132.058Z" fill="#F5F5F5"/>
<path d="M109.781 143.637L118.193 142.99L116.36 133.348L109.018 134.111L109.781 143.637Z" fill="#F5F5F5"/>
<path d="M109.859 144.641L110.504 152.676L111.643 163.698L112.112 166.112L131.327 164.867L130.687 143.025L109.859 144.641Z" fill="#F5F5F5"/>
<path d="M76.7913 106.693L77.5294 107.992L62.7137 116.866V137.915L78.3506 136.781L108.49 133.659L107.386 119.862L78.5901 115.998L78.7807 114.507L107.263 118.326L105.396 94.9733L77.2068 97.7588L77.1139 96.76L105.318 93.9745L104.345 81.7886H77.2263L53.4117 86.2404L53.2944 114.146L62.3129 115.365L76.7913 106.693ZM64.229 135.908C64.229 135.908 64.3414 118.552 64.229 117.9L76.322 111.295L77.8911 135.019L64.229 135.908Z" fill="#F5F5F5"/>
<path d="M127.803 132.163L116.849 133.298L117.68 137.664L127.5 136.58L127.803 132.163Z" fill="#F5F5F5"/>
<path d="M103.568 163.964C103.534 164.877 103.5 165.78 103.465 166.674L111.619 166.142L111.198 163.984L103.568 163.964Z" fill="#F5F5F5"/>
<path d="M86.0053 80.283L87.4424 73.5978H98.3868V59.2336L64.1607 56.6288V70.1147L53.4705 72.599L53.4216 84.7047L77.0944 80.283H86.0053Z" fill="#F5F5F5"/>
<path d="M108.847 40.3171L108.554 39.0875L121.624 33.7775L113.124 16.2564C112.973 16.2815 112.816 16.2965 112.655 16.2965L98.2107 16.2263L98.6017 40.7488L108.847 40.3171Z" fill="#F5F5F5"/>
<path d="M128.653 30.9168L128.639 6.99157L119.127 6.9464C117.352 6.93636 115.9 8.47717 115.896 10.3844L115.886 12.8537C115.881 14.0331 115.329 15.067 114.488 15.6844L122.993 33.2205L128.653 30.9168Z" fill="#F5F5F5"/>
<path d="M79.5188 31.9458L78.419 6.75574L75.7697 6.74068L65.4315 6.69049L61.0273 29.2205L79.5188 31.9458ZM77.1628 9.30536L77.5147 29.8228L63.7744 27.76L66.7855 9.31037L77.1628 9.30536Z" fill="#F5F5F5"/>
<path d="M80.0173 32.021L80.0222 32.2368C80.0466 34.2043 80.0857 37.7426 80.1151 41.5269L98.1177 40.774L97.7267 16.2264L86.8312 16.1762C85.0569 16.1662 83.6198 14.6154 83.6296 12.7082L83.6393 10.2388C83.6491 8.33165 82.212 6.77579 80.4377 6.77077L78.9126 6.76575L80.0173 32.026V32.021Z" fill="#F5F5F5"/>
<path d="M59.5708 29.0044L63.9309 6.69519C58.2803 6.80059 53.7198 11.5134 53.6954 17.3454L53.6514 28.4673L53.6954 28.1411L59.5708 29.0044Z" fill="#F5F5F5"/>
<path d="M62.6942 56.5181L53.5389 55.8204L53.4753 71.0529L62.6942 68.9098V56.5181Z" fill="#F5F5F5"/>
<path d="M59.4778 29.4965L53.6512 28.6383L53.5486 53.3064L54.8048 53.4017L59.4778 29.4965Z" fill="#F5F5F5"/>
<path d="M77.9692 157.108L78.1207 137.303L62.7185 138.422L63.2611 157.821L77.9692 157.108Z" fill="#F5F5F5"/>
<path d="M80.7994 152.536L102.615 163.266C102.874 156.255 103.108 149.7 103.084 149.278L103.558 149.253L103.788 148.782C104.096 148.942 104.096 148.942 103.935 153.72C103.842 156.385 103.715 159.934 103.583 163.487H111.125L110.01 152.726L108.524 134.161L80.0222 137.113L80.7994 152.536Z" fill="#F5F5F5"/>
<path d="M134.27 119.672L134.025 117.057L107.879 119.852L108.979 133.609L131.557 131.27L134.27 119.672Z" fill="#F5F5F5"/>
<path d="M98.3867 75.1033H88.6203L87.5059 80.2828H98.3867V75.1033Z" fill="#F5F5F5"/>
<path d="M130.232 76.8501L105.768 75.1135L104.771 81.0459L105.802 93.9245L131.601 91.3749L130.232 76.8501ZM106.672 81.0359L107.987 77.2917L129.235 78.6719L130.467 89.3874L107.395 92.198L106.672 81.0359Z" fill="#F5F5F5"/>
<path d="M132.774 103.767L131.699 92.3787L105.885 94.9233L106.853 107.049L132.774 103.767Z" fill="#F5F5F5"/>
<path d="M63.1243 170.303L53.1087 170.95L53.0696 170.283L53.0549 173.319H63.2074L63.1243 170.303Z" fill="#F5F5F5"/>
<path d="M142.575 25.2602L142.721 25.6416L142.756 17.7569C142.78 11.8446 138.136 7.03644 132.378 7.00633L129.128 6.99127L129.142 30.7158L142.575 25.2602Z" fill="#F5F5F5"/>
<path d="M102.595 163.813L80.3303 152.862L79.5433 137.167L78.6097 137.263L78.4533 157.585L63.2759 158.322L63.2905 158.774L63.2954 158.784H63.2905L63.5838 169.264L102.488 166.739C102.522 165.765 102.561 164.787 102.595 163.813ZM64.229 159.617L85.4725 158.086L99.291 164.671L64.229 166.619V159.617Z" fill="#F5F5F5"/>
<path d="M136.245 51.6151L137.154 46.0692C129.167 43.1431 128.614 34.5959 128.639 32.0061L123.428 34.1241L131.278 50.3001L136.245 51.6151Z" fill="#F5F5F5"/>
<path d="M107.757 118.352L118.614 117.192L116.477 107.345L106.975 108.55L107.757 118.352Z" fill="#F5F5F5"/>
<path d="M130.271 60.1172H109.996L108.314 59.9867L106.022 73.6231L130.09 75.3296L129.533 69.4022L131.899 60.6492L130.271 60.1172Z" fill="#F5F5F5"/>
<path d="M129.778 57.6072L130.032 51.0976L122.064 34.6707L109.708 39.6896L113.955 57.6022H129.778V57.6072ZM121.581 36.6732L128.883 50.937L127.828 55.3838L115.334 54.902L112.21 41.4111L121.581 36.6732Z" fill="#F5F5F5"/>
<path d="M132.93 136.124L133.307 148.907L142.091 148.4L142.12 148.902L133.321 149.409L133.766 164.707L142.071 164.164L142.135 165.168L133.796 165.71L134.02 173.319H142.115L142.291 130.663L134.011 131.521L132.93 136.124Z" fill="#F5F5F5"/>
<path d="M79.5334 32.4523L60.9295 29.712L56.2761 53.5118L79.6165 55.2885C79.7094 51.6246 79.6263 40.3822 79.5334 32.4523Z" fill="#F5F5F5"/>
<path d="M110.133 57.6077H112.948L108.964 40.8143L98.6116 41.251L98.856 56.7545L110.133 57.6077Z" fill="#F5F5F5"/>
<path d="M53.0061 185.535L52.9915 189.058C52.9915 189.169 53.0012 189.274 53.0061 189.379V185.535Z" fill="#F5F5F5"/>
<path d="M80.0908 55.3239L98.3672 56.7142L98.1179 41.2709L80.1104 42.0288C80.1544 47.2485 80.169 52.8195 80.0908 55.3239Z" fill="#F5F5F5"/>
<path d="M132.916 105.267L116.961 107.285L119.102 117.137L133.884 115.561L132.916 105.267Z" fill="#F5F5F5"/>
<path d="M137.237 45.5621L138.258 39.3386L142.663 39.6899L142.716 26.2844L129.132 31.8052C128.859 41.2358 134.632 44.5533 137.237 45.5621Z" fill="#F5F5F5"/>
<path d="M132.007 69.6278L132.564 75.505L142.511 76.2127L142.565 64.102L134.231 61.4018L132.007 69.6278Z" fill="#F5F5F5"/>
<path d="M136.743 119.847L134.128 131.004L142.286 130.161L142.335 118.462C139.832 117.784 137.647 117.232 136.469 117.001L136.743 119.847Z" fill="#F5F5F5"/>
<path d="M131.239 57.798L142.575 61.4769L142.599 54.8569L131.469 51.9008L131.239 57.798Z" fill="#F5F5F5"/>
<path d="M136.332 115.466C137.247 115.606 138.977 115.983 142.345 116.896L142.452 91.3196L134.133 92.1427L136.332 115.466Z" fill="#F5F5F5"/>
<path d="M134.035 91.1387L142.457 90.3055L142.506 77.7231L132.706 77.0255L134.035 91.1387Z" fill="#F5F5F5"/>
<path d="M138.18 45.8831C139.774 46.38 141.26 46.7664 142.633 47.0475L142.658 40.6986L139.075 40.4125L138.18 45.8831Z" fill="#F5F5F5"/>
<path d="M137.198 51.8658L142.609 53.3013L142.633 47.5596C141.235 47.2735 139.725 46.882 138.097 46.3751L137.198 51.8658Z" fill="#F5F5F5"/>
<path d="M63.1243 170.303L63.2074 173.319H63.6962L63.6131 170.272L102.449 167.748C102.375 169.705 102.302 171.607 102.238 173.319H103.216C103.28 171.703 103.353 169.756 103.431 167.683L111.814 167.141L113.012 173.319H113.51L112.303 167.106L131.352 165.866L131.572 173.314H134.016L133.791 165.705L142.13 165.163L142.066 164.159L133.761 164.696L133.312 149.399L142.11 148.892L142.081 148.39L133.297 148.897L132.926 136.114L134.006 131.506L142.286 130.648V130.141L134.128 130.984L136.743 119.827L136.474 116.976C137.647 117.207 139.832 117.759 142.34 118.437L142.345 116.871C138.977 115.963 137.247 115.586 136.333 115.441L134.133 92.1126L142.452 91.2895L142.457 90.2807L134.04 91.1139L132.711 77.0006L142.511 77.6982L142.516 76.1876L132.564 75.4799L132.012 69.5977L134.236 61.3767L142.565 64.0769L142.575 61.4469L131.239 57.7731L131.469 51.8758L142.604 54.832L142.609 53.2811L137.198 51.8457L138.097 46.36C139.72 46.8669 141.23 47.2584 142.633 47.5445V47.0275C141.26 46.7465 139.774 46.36 138.18 45.8632L139.08 40.3925L142.663 40.6786L142.667 39.6698L138.263 39.3185L137.242 45.5419C134.636 44.5331 128.864 41.2156 129.137 31.78L142.721 26.2592L142.726 25.6218L142.579 25.2404L129.142 30.721L129.128 6.99654H128.639L128.653 30.9218L122.993 33.2205L114.488 15.6843C114.087 15.9804 113.628 16.1762 113.124 16.2515L121.624 33.7725L108.554 39.0826L108.847 40.3122L98.6017 40.7438L98.2107 16.2213H97.7219L98.1129 40.7689L80.1102 41.5218C80.0809 37.7375 80.0418 34.1992 80.0174 32.2317L80.0125 32.0159H80.0076L78.9029 6.75563H78.4141L79.5139 31.9457L61.0224 29.2204L65.4266 6.69038L64.1654 6.68536C64.0872 6.68536 64.009 6.6954 63.9259 6.6954L59.5658 29.0046L53.6904 28.1363L53.6464 28.4625V28.6332L59.4729 29.4914L54.7999 53.3916L53.5437 53.2962L53.5339 55.8107L62.6893 56.5083V68.9051L53.4704 71.0482L53.4655 72.594L64.1557 70.1096V56.6238L98.3818 59.2286V73.5928H87.4374L86.0003 80.278H77.0894L53.4166 84.6997L53.4117 86.2304L77.2263 81.7786H104.345L105.318 93.9646L77.1139 96.7501L77.2067 97.7489L105.396 94.9634L107.263 118.316L78.7807 114.497L78.5901 115.988L107.386 119.852L108.49 133.649L78.3505 136.771L62.7137 137.905V116.856L77.5294 107.982L76.7913 106.683L62.3129 115.35L53.2944 114.131L53.2895 115.646L62.22 116.856V130.251L53.226 131.23L53.2211 132.746L62.2249 131.767V138.447H62.2298L62.7626 157.384L62.7577 157.374L53.1038 161.258L53.0989 162.88L62.8066 158.975L63.095 169.289L53.0696 169.941V170.277L53.1087 170.945L63.1243 170.303ZM103.465 166.674C103.5 165.781 103.534 164.877 103.568 163.964L111.203 163.984L111.623 166.142L103.465 166.674ZM112.112 166.112L111.643 163.698L110.504 152.676L109.859 144.641L130.687 143.03L131.327 164.867L112.112 166.112ZM116.849 133.298L127.803 132.164L127.495 136.58L117.675 137.669L116.849 133.298ZM116.36 133.348L118.193 142.985L109.781 143.637L109.018 134.106L116.36 133.348ZM130.658 142.021L118.682 142.949L117.866 138.653L128.414 137.484L128.79 132.058L131.43 131.782L130.477 135.863L130.658 142.021ZM116.477 107.345L118.618 117.187L107.762 118.347L106.98 108.545L116.477 107.345ZM119.102 117.137L116.961 107.285L132.911 105.267L133.884 115.561L119.102 117.137ZM130.091 75.3293L106.022 73.6179L108.314 59.9864L109.996 60.1169L130.271 60.1219L131.899 60.6489L129.533 69.402L130.091 75.3293ZM128.644 32.0009C128.619 34.5906 129.172 43.1379 137.159 46.0639L136.249 51.6098L131.283 50.2899L123.433 34.1138L128.644 32.0009ZM122.059 34.676L130.027 51.1029L129.773 57.6125H113.95L109.702 39.6999L122.059 34.676ZM108.964 40.8141L112.948 57.6075H110.133L98.8608 56.7492L98.6115 41.2457L108.964 40.8141ZM98.1227 41.2708L98.372 56.7141L80.0956 55.3238C80.1738 52.8194 80.1542 47.2484 80.12 42.0237L98.1227 41.2708ZM60.9296 29.7122L79.5335 32.4526C79.6263 40.3825 79.7094 51.6199 79.6166 55.2837L56.2761 53.507L60.9296 29.7122ZM107.825 59.9513L104.409 80.283H98.8803V59.2687L107.825 59.9513ZM88.6203 75.1035H98.3867V80.283H87.5059L88.6203 75.1035ZM104.775 81.0459L105.772 75.1135L130.237 76.85L131.606 91.3799L105.807 93.9295L104.775 81.0459ZM131.699 92.3786L132.774 103.772L106.858 107.049L105.89 94.9283L131.699 92.3786ZM107.879 119.852L134.025 117.062L134.27 119.672L131.552 131.27L108.974 133.609L107.879 119.852ZM110.015 152.721L111.13 163.482H103.588C103.72 159.933 103.847 156.385 103.939 153.715C104.101 148.937 104.101 148.937 103.793 148.776L103.563 149.248L103.089 149.273C103.108 149.69 102.879 156.25 102.62 163.261L80.8043 152.531L80.032 137.107L108.534 134.156L110.015 152.721ZM78.1208 137.303L77.9693 157.108L63.266 157.826L62.7235 138.427L78.1208 137.303ZM63.2905 158.784V158.774L63.2758 158.322L78.4532 157.585L78.6096 137.263L79.5432 137.168L80.3302 152.862L102.595 163.813C102.561 164.787 102.522 165.765 102.488 166.739L63.5838 169.264L63.2905 158.784Z" fill="white"/>
<path d="M85.4725 158.087L64.229 159.617V166.619L99.291 164.666L85.4725 158.087Z" fill="#ECECEC"/>
<path d="M129.23 78.6718L107.987 77.2916L106.672 81.0358L107.39 92.1928L130.462 89.3822L129.23 78.6718Z" fill="#ECECEC"/>
<path d="M63.3688 199.809L131.572 200.13C137.33 200.155 142.022 195.382 142.047 189.47L142.115 173.314H134.021H131.577H113.515H113.017H103.221H102.243H63.7011H63.2123H53.0599L53.011 185.53V189.375C53.1479 195.141 57.7182 199.779 63.3688 199.809Z" fill="#ECECEC"/>
<path d="M77.5147 29.8229L77.1628 9.30554H66.7806L63.7744 27.7602L77.5147 29.8229Z" fill="#ECECEC"/>
<path d="M127.827 55.3839L128.883 50.9371L121.58 36.6733L112.21 41.4112L115.333 54.9021L127.827 55.3839Z" fill="#ECECEC"/>
<path d="M64.229 117.905C64.3414 118.552 64.229 135.913 64.229 135.913L77.8862 135.024L76.3171 111.3L64.229 117.905Z" fill="#ECECEC"/>
<path d="M109.785 131.998L109.062 121.242L132.486 118.151V120.008L129.655 129.9L109.785 131.998Z" fill="#ECECEC"/>
<path d="M92.4575 42.7968C92.4575 44.4129 91.1817 45.7278 89.6029 45.7278C88.029 45.7278 86.7483 44.4179 86.7483 42.7968C86.7483 41.1807 88.0241 39.8657 89.6029 39.8657C91.1769 39.8657 92.4575 41.1807 92.4575 42.7968Z" fill="#FF4F5B"/>
<g opacity="0.6">
<path opacity="0.6" d="M92.4527 42.6712C92.5211 44.2873 91.2991 45.6525 89.7252 45.7227C88.1512 45.793 86.8217 44.5383 86.7532 42.9222C86.6848 41.3061 87.9068 39.9409 89.4808 39.8707C91.0547 39.8004 92.3843 41.0551 92.4527 42.6712Z" fill="white"/>
</g>
<path d="M89.6029 44.6436C90.6503 44.6436 91.4994 43.7717 91.4994 42.6962C91.4994 41.6208 90.6503 40.7489 89.6029 40.7489C88.5554 40.7489 87.7063 41.6208 87.7063 42.6962C87.7063 43.7717 88.5554 44.6436 89.6029 44.6436Z" fill="#FF4F5B"/>
<path d="M133.708 159.813C133.708 160.506 133.16 161.063 132.491 161.063C131.816 161.063 131.273 160.501 131.273 159.813C131.273 159.12 131.821 158.563 132.491 158.563C133.16 158.558 133.708 159.12 133.708 159.813Z" fill="#FF4F5B"/>
<path d="M131.753 159.406L131.459 152.39L110.866 153.419C110.328 153.449 109.791 153.328 109.312 153.078L80.1054 137.93C79.4309 137.579 78.9861 136.881 78.947 136.104L74.973 56.9349C74.9534 56.5534 75.0952 56.187 75.3591 55.921C75.6231 55.655 75.9897 55.5195 76.3563 55.5446L88.8746 56.4982V42.4452H90.341V56.6889C90.341 57.0553 90.1895 57.4116 89.9304 57.6576C89.6664 57.9085 89.3145 58.034 88.9577 58.0089L76.4492 57.0553L80.4134 136.018C80.4231 136.254 80.56 136.47 80.7702 136.58L109.976 151.727C110.23 151.858 110.514 151.923 110.802 151.908L131.567 150.869C131.919 150.854 132.246 150.975 132.505 151.216C132.764 151.456 132.911 151.783 132.926 152.144L133.229 159.336L131.753 159.406Z" fill="#FF4F5B"/>
<path d="M77.3582 95.1036C79.3991 95.1036 81.0536 93.4048 81.0536 91.3093C81.0536 89.2137 79.3991 87.515 77.3582 87.515C75.3173 87.515 73.6628 89.2137 73.6628 91.3093C73.6628 93.4048 75.3173 95.1036 77.3582 95.1036Z" fill="#FF4F5B"/>
<path d="M77.3582 93.9443C78.7755 93.9443 79.9244 92.7646 79.9244 91.3094C79.9244 89.8541 78.7755 88.6744 77.3582 88.6744C75.9409 88.6744 74.792 89.8541 74.792 91.3094C74.792 92.7646 75.9409 93.9443 77.3582 93.9443Z" fill="#FAFAFA"/>
<path d="M77.3582 94.1351C75.8429 94.1351 74.6062 92.8703 74.6062 91.3094C74.6062 89.7535 75.838 88.4838 77.3582 88.4838C78.8735 88.4838 80.1101 89.7485 80.1101 91.3094C80.1101 92.8703 78.8783 94.1351 77.3582 94.1351ZM77.3582 88.8652C76.0433 88.8652 74.9728 89.9643 74.9728 91.3144C74.9728 92.6645 76.0433 93.7637 77.3582 93.7637C78.6731 93.7637 79.7435 92.6645 79.7435 91.3144C79.7435 89.9593 78.6731 88.8652 77.3582 88.8652Z" fill="#FF4F5B"/>
<path d="M99.1296 75.3949H81.5327C80.6773 75.3949 79.9832 76.1076 79.9832 76.9859V83.5306C79.9832 84.4089 80.6773 85.1216 81.5327 85.1216H81.738V86.6825L83.4977 85.1216H99.1296C99.985 85.1216 100.679 84.4089 100.679 83.5306V76.9859C100.679 76.1076 99.985 75.3949 99.1296 75.3949Z" fill="#FF4F5B"/>
<g opacity="0.4">
<g opacity="0.4">
<path opacity="0.4" d="M99.1296 75.3949H81.5327C80.6773 75.3949 79.9832 76.1076 79.9832 76.9859V83.5306C79.9832 84.4089 80.6773 85.1216 81.5327 85.1216H81.738V86.6825L83.4977 85.1216H99.1296C99.985 85.1216 100.679 84.4089 100.679 83.5306V76.9859C100.679 76.1076 99.985 75.3949 99.1296 75.3949Z" fill="white"/>
</g>
</g>
<path d="M83.9424 80.1526C83.9424 79.5553 84.3921 79.1086 85.0031 79.1086C85.6092 79.1086 86.0589 79.5503 86.0589 80.1526C86.0589 80.7549 85.6092 81.1965 85.0031 81.1965C84.3921 81.1965 83.9424 80.7498 83.9424 80.1526ZM85.7705 80.1526C85.7705 79.7009 85.443 79.3696 84.9982 79.3696C84.5534 79.3696 84.221 79.7009 84.221 80.1526C84.221 80.6043 84.5485 80.9355 84.9982 80.9355C85.443 80.9406 85.7705 80.6043 85.7705 80.1526Z" fill="white"/>
<path d="M88.0092 80.4034C88.0092 80.8752 87.6866 81.1964 87.2467 81.1964C87.0267 81.1964 86.8312 81.1111 86.709 80.9354V81.1813H86.4451V79.0182H86.7188V79.8714C86.8459 79.7058 87.0316 79.6255 87.2467 79.6255C87.6866 79.6154 88.0092 79.9266 88.0092 80.4034ZM87.7355 80.4034C87.7355 80.0722 87.5155 79.8614 87.2272 79.8614C86.9388 79.8614 86.7237 80.0722 86.7237 80.4034C86.7237 80.7347 86.9436 80.9505 87.2272 80.9505C87.5155 80.9455 87.7355 80.7296 87.7355 80.4034Z" fill="white"/>
<path d="M87.8674 81.6633L87.9554 81.4474C88.0092 81.4926 88.0874 81.5227 88.1754 81.5227C88.322 81.5227 88.4002 81.4274 88.4002 81.2517V79.6306H88.674V81.2467C88.674 81.5629 88.5029 81.7586 88.1949 81.7586C88.0678 81.7586 87.9456 81.7285 87.8674 81.6633ZM88.3562 79.1488C88.3562 79.0484 88.4344 78.9631 88.542 78.9631C88.6495 78.9631 88.7277 79.0434 88.7277 79.1387C88.7277 79.2441 88.6495 79.3244 88.542 79.3244C88.4344 79.3295 88.3562 79.2542 88.3562 79.1488Z" fill="white"/>
<path d="M90.5509 80.4939H89.3289C89.3631 80.7649 89.5782 80.9456 89.8764 80.9456C90.0523 80.9456 90.199 80.8853 90.3114 80.7599L90.4629 80.9406C90.3261 81.1062 90.1208 81.1915 89.8666 81.1915C89.3827 81.1915 89.0552 80.8602 89.0552 80.3985C89.0552 79.9418 89.3778 79.6105 89.8128 79.6105C90.2479 79.6105 90.5558 79.9318 90.5558 80.4085C90.5558 80.4336 90.5558 80.4688 90.5509 80.4939ZM89.3289 80.2931H90.2967C90.2674 80.0321 90.0768 79.8514 89.8128 79.8514C89.5489 79.8514 89.3582 80.0321 89.3289 80.2931Z" fill="white"/>
<path d="M90.7954 80.4034C90.7954 79.9416 91.1278 79.6154 91.5922 79.6154C91.861 79.6154 92.0859 79.7308 92.2081 79.9467L92.0028 80.0822C91.905 79.9316 91.7584 79.8613 91.5922 79.8613C91.2989 79.8613 91.074 80.0721 91.074 80.4034C91.074 80.7397 91.294 80.9504 91.5922 80.9504C91.7584 80.9504 91.905 80.8802 92.0028 80.7296L92.2081 80.8651C92.0907 81.0809 91.8659 81.1964 91.5922 81.1964C91.1278 81.1914 90.7954 80.8651 90.7954 80.4034Z" fill="white"/>
<path d="M93.4252 81.0862C93.3421 81.1615 93.2199 81.1916 93.0977 81.1916C92.7947 81.1916 92.6187 81.0209 92.6187 80.7098V79.8616H92.3645V79.6307H92.6187V79.2944H92.8924V79.6307H93.3226V79.8616H92.8924V80.6997C92.8924 80.8654 92.9755 80.9607 93.127 80.9607C93.2052 80.9607 93.2835 80.9356 93.3421 80.8854L93.4252 81.0862Z" fill="white"/>
<path d="M93.7039 79.1488C93.7039 79.0484 93.7821 78.9631 93.8896 78.9631C93.9923 78.9631 94.0754 79.0434 94.0754 79.1387C94.0754 79.2441 93.9971 79.3244 93.8896 79.3244C93.7821 79.3295 93.7039 79.2542 93.7039 79.1488ZM93.7527 79.6306H94.0265V81.1764H93.7527V79.6306Z" fill="white"/>
<path d="M95.8789 79.6306L95.219 81.1765H94.9404L94.2805 79.6306H94.564L95.0822 80.8703L95.6101 79.6306H95.8789Z" fill="white"/>
<path d="M97.4481 80.4939H96.2261C96.2603 80.7649 96.4754 80.9456 96.7736 80.9456C96.9495 80.9456 97.0962 80.8853 97.2086 80.7599L97.3601 80.9406C97.2233 81.1062 97.018 81.1915 96.7638 81.1915C96.2799 81.1915 95.9524 80.8602 95.9524 80.3985C95.9524 79.9418 96.275 79.6105 96.71 79.6105C97.1451 79.6105 97.453 79.9318 97.453 80.4085C97.453 80.4336 97.4481 80.4688 97.4481 80.4939ZM96.2261 80.2931H97.194C97.1646 80.0321 96.974 79.8514 96.71 79.8514C96.4461 79.8514 96.2555 80.0321 96.2261 80.2931Z" fill="white"/>
<path d="M93.3177 32.954C93.3177 30.6403 91.2843 28.8184 88.9527 29.2651C87.4863 29.5462 86.318 30.7758 86.059 32.2865C85.8977 33.2301 86.0883 34.1184 86.5087 34.8512L86.5184 34.8662C86.6602 35.1071 86.8362 35.2828 87.0121 35.5388L89.1384 38.4297C89.4024 38.791 89.9303 38.791 90.1943 38.4297L92.2814 35.589C92.2814 35.589 92.6725 35.1122 92.8143 34.8662L92.824 34.8562C93.132 34.2941 93.3177 33.6466 93.3177 32.954ZM89.6615 34.5902C88.7718 34.5902 88.0533 33.8524 88.0533 32.939C88.0533 32.0255 88.7718 31.2877 89.6615 31.2877C90.5511 31.2877 91.2696 32.0255 91.2696 32.939C91.2696 33.8524 90.5462 34.5902 89.6615 34.5902Z" fill="#FF4F5B"/>
<path d="M69.6301 180.948H68.9507V180.692H70.598V180.948H69.9136V182.734H69.6301V180.948Z" fill="#1A2E35"/>
<path d="M70.5686 181.962C70.5686 181.5 70.901 181.174 71.3507 181.174C71.8004 181.174 72.1328 181.5 72.1328 181.962C72.1328 182.423 71.8053 182.755 71.3507 182.755C70.901 182.755 70.5686 182.423 70.5686 181.962ZM71.859 181.962C71.859 181.63 71.644 181.42 71.3556 181.42C71.0672 181.42 70.8472 181.63 70.8472 181.962C70.8472 182.293 71.0672 182.509 71.3556 182.509C71.644 182.509 71.859 182.293 71.859 181.962Z" fill="#1A2E35"/>
<path d="M73.3598 182.644C73.2767 182.719 73.1545 182.754 73.0323 182.754C72.7292 182.754 72.5532 182.584 72.5532 182.268V181.419H72.2991V181.189H72.5532V180.852H72.827V181.189H73.2571V181.419H72.827V182.258C72.827 182.423 72.9101 182.519 73.0616 182.519C73.1398 182.519 73.218 182.493 73.2767 182.443L73.3598 182.644Z" fill="#1A2E35"/>
<path d="M74.8798 181.801V182.734H74.6208V182.529C74.5279 182.669 74.3617 182.749 74.1271 182.749C73.7849 182.749 73.5698 182.564 73.5698 182.293C73.5698 182.047 73.7262 181.841 74.1759 181.841H74.6061V181.786C74.6061 181.55 74.4741 181.414 74.2004 181.414C74.0195 181.414 73.8387 181.48 73.7214 181.58L73.6089 181.369C73.7653 181.239 73.9902 181.169 74.2297 181.169C74.6501 181.174 74.8798 181.379 74.8798 181.801ZM74.611 182.263V182.047H74.1906C73.9218 182.047 73.8436 182.152 73.8436 182.288C73.8436 182.443 73.9706 182.539 74.1759 182.539C74.3812 182.539 74.5425 182.443 74.611 182.263Z" fill="#1A2E35"/>
<path d="M75.3882 180.572H75.6619V182.735H75.3882V180.572Z" fill="#1A2E35"/>
<path d="M78.365 180.571V182.734H78.101V182.489C77.9788 182.664 77.7833 182.75 77.5633 182.75C77.1234 182.75 76.8008 182.433 76.8008 181.957C76.8008 181.485 77.1234 181.169 77.5633 181.169C77.7784 181.169 77.9641 181.249 78.0912 181.414V180.561H78.365V180.571ZM78.0961 181.962C78.0961 181.63 77.8762 181.42 77.5926 181.42C77.3043 181.42 77.0843 181.63 77.0843 181.962C77.0843 182.293 77.3043 182.509 77.5926 182.509C77.8762 182.509 78.0961 182.293 78.0961 181.962Z" fill="#1A2E35"/>
<path d="M78.8342 180.712C78.8342 180.612 78.9124 180.526 79.02 180.526C79.1226 180.526 79.2057 180.607 79.2057 180.707C79.2057 180.812 79.1275 180.893 79.02 180.893C78.9124 180.893 78.8342 180.812 78.8342 180.712ZM78.8831 181.189H79.1568V182.735H78.8831V181.189Z" fill="#1A2E35"/>
<path d="M79.4844 182.574L79.5968 182.353C79.7239 182.449 79.9292 182.514 80.1247 182.514C80.3789 182.514 80.4815 182.433 80.4815 182.303C80.4815 181.957 79.5284 182.258 79.5284 181.64C79.5284 181.364 79.7679 181.179 80.154 181.179C80.3496 181.179 80.5695 181.229 80.7015 181.319L80.5842 181.54C80.4473 181.45 80.2958 181.42 80.1491 181.42C79.9096 181.42 79.7923 181.51 79.7923 181.63C79.7923 181.997 80.7455 181.696 80.7455 182.298C80.7455 182.579 80.4962 182.755 80.0954 182.755C79.8559 182.755 79.6115 182.674 79.4844 182.574Z" fill="#1A2E35"/>
<path d="M81.9479 182.644C81.8648 182.719 81.7426 182.754 81.6204 182.754C81.3174 182.754 81.1414 182.584 81.1414 182.268V181.419H80.8872V181.189H81.1414V180.852H81.4151V181.189H81.8453V181.419H81.4151V182.258C81.4151 182.423 81.4982 182.519 81.6497 182.519C81.728 182.519 81.8062 182.493 81.8648 182.443L81.9479 182.644Z" fill="#1A2E35"/>
<path d="M83.4682 181.801V182.734H83.2091V182.529C83.1163 182.669 82.9501 182.749 82.7154 182.749C82.3733 182.749 82.1582 182.564 82.1582 182.293C82.1582 182.047 82.3146 181.841 82.7643 181.841H83.1945V181.786C83.1945 181.55 83.0625 181.414 82.7888 181.414C82.6079 181.414 82.427 181.48 82.3097 181.58L82.1973 181.369C82.3537 181.239 82.5786 181.169 82.8181 181.169C83.2385 181.174 83.4682 181.379 83.4682 181.801ZM83.1994 182.263V182.047H82.779C82.5101 182.047 82.4319 182.152 82.4319 182.288C82.4319 182.443 82.559 182.539 82.7643 182.539C82.9647 182.539 83.1309 182.443 83.1994 182.263Z" fill="#1A2E35"/>
<path d="M85.4039 181.846V182.735H85.1301V181.876C85.1301 181.575 84.9835 181.425 84.7244 181.425C84.436 181.425 84.2454 181.6 84.2454 181.937V182.735H83.9717V181.189H84.2356V181.42C84.3481 181.264 84.5387 181.174 84.7782 181.174C85.1448 181.174 85.4039 181.389 85.4039 181.846Z" fill="#1A2E35"/>
<path d="M85.7803 181.962C85.7803 181.5 86.1127 181.174 86.577 181.174C86.8459 181.174 87.0707 181.289 87.1929 181.505L86.9876 181.64C86.8899 181.49 86.7432 181.42 86.577 181.42C86.2837 181.42 86.0589 181.63 86.0589 181.962C86.0589 182.298 86.2788 182.509 86.577 182.509C86.7432 182.509 86.8899 182.438 86.9876 182.288L87.1929 182.423C87.0756 182.639 86.8507 182.755 86.577 182.755C86.1127 182.755 85.7803 182.423 85.7803 181.962Z" fill="#1A2E35"/>
<path d="M88.8744 182.057H87.6524C87.6866 182.328 87.9017 182.509 88.1999 182.509C88.3758 182.509 88.5225 182.448 88.6349 182.323L88.7864 182.504C88.6496 182.669 88.4443 182.755 88.1901 182.755C87.7062 182.755 87.3787 182.423 87.3787 181.962C87.3787 181.505 87.7013 181.174 88.1363 181.174C88.5713 181.174 88.8793 181.495 88.8793 181.972C88.8793 181.997 88.8793 182.032 88.8744 182.057ZM87.6524 181.856H88.6202C88.5909 181.595 88.4003 181.415 88.1363 181.415C87.8724 181.41 87.6817 181.59 87.6524 181.856Z" fill="#1A2E35"/>
<path d="M71.4143 185.028V189.902H70.3145V185.932H69.3662V185.028H71.4143Z" fill="#1A2E35"/>
<path d="M73.5258 189.274C73.5258 189.455 73.4965 189.585 73.345 189.972L72.9588 190.976H72.2891L72.5873 189.871C72.3625 189.781 72.2207 189.565 72.2207 189.279C72.2207 188.878 72.5042 188.612 72.8806 188.612C73.2521 188.607 73.5258 188.878 73.5258 189.274Z" fill="#1A2E35"/>
<path d="M75.7402 185.028V189.902H74.6404V185.932H73.6921V185.028H75.7402Z" fill="#1A2E35"/>
<path d="M76.5713 187.462C76.5713 185.856 77.4414 184.943 78.6047 184.943C79.7778 184.943 80.6381 185.856 80.6381 187.462C80.6381 189.068 79.7778 189.982 78.6047 189.982C77.4365 189.982 76.5713 189.068 76.5713 187.462ZM79.5335 187.462C79.5335 186.353 79.1522 185.896 78.6047 185.896C78.0621 185.896 77.6809 186.358 77.6809 187.462C77.6809 188.571 78.0621 189.028 78.6047 189.028C79.1522 189.028 79.5335 188.571 79.5335 187.462Z" fill="#1A2E35"/>
<path d="M81.1709 187.462C81.1709 185.856 82.041 184.943 83.2043 184.943C84.3775 184.943 85.2378 185.856 85.2378 187.462C85.2378 189.068 84.3775 189.982 83.2043 189.982C82.041 189.982 81.1709 189.068 81.1709 187.462ZM84.1331 187.462C84.1331 186.353 83.7518 185.896 83.2043 185.896C82.6618 185.896 82.2805 186.358 82.2805 187.462C82.2805 188.571 82.6618 189.028 83.2043 189.028C83.7567 189.028 84.1331 188.571 84.1331 187.462Z" fill="#1A2E35"/>
<path d="M94.0801 187.753V189.896H93.0243V187.919C93.0243 187.312 92.7603 187.036 92.335 187.036C91.8609 187.036 91.5285 187.347 91.5285 188.019V189.901H90.4727V187.924C90.4727 187.317 90.2234 187.041 89.7835 187.041C89.3142 187.041 88.9818 187.352 88.9818 188.024V189.906H87.926V186.162H88.9378V186.594C89.2067 186.273 89.6173 186.107 90.0816 186.107C90.59 186.107 91.025 186.308 91.2841 186.719C91.5774 186.338 92.0515 186.107 92.599 186.107C93.4593 186.097 94.0801 186.614 94.0801 187.753Z" fill="#1A2E35"/>
<path d="M66.4481 185.607C66.9653 183.349 65.6015 181.087 63.4021 180.556C61.2026 180.025 59.0003 181.425 58.4831 183.684C57.9659 185.942 59.3296 188.203 61.5291 188.734C63.7285 189.265 65.9308 187.865 66.4481 185.607Z" fill="#FF4F5B"/>
<path d="M60.8219 185.409C60.8219 185.384 61.2032 185.364 61.8728 185.344C62.5425 185.324 63.4957 185.309 64.6395 185.299L64.5564 185.485C64.2338 185.103 63.8818 184.682 63.5103 184.245L63.4419 184.165L63.5054 184.084C63.8329 183.663 64.18 183.221 64.5368 182.759L64.6346 182.97C64.4879 182.97 64.3266 182.97 64.1702 182.97C62.9629 182.965 61.824 182.96 60.817 182.955L60.9294 182.84C60.9197 184.115 60.905 185.189 60.8854 185.941C60.8659 186.694 60.8415 187.131 60.817 187.131C60.7926 187.131 60.7681 186.694 60.7486 185.941C60.729 185.189 60.7144 184.115 60.7046 182.84V182.724H60.8219C61.8288 182.719 62.9678 182.714 64.1751 182.709C64.3364 182.709 64.4928 182.709 64.6395 182.709H64.9034L64.7372 182.92C64.3755 183.377 64.0285 183.818 63.6961 184.235V184.074C64.0578 184.516 64.4048 184.943 64.7226 185.329L64.879 185.52H64.6395C63.4957 185.51 62.5376 185.495 61.8728 185.475C61.2032 185.46 60.8219 185.435 60.8219 185.409Z" fill="#FAFAFA"/>
<path d="M128.668 177.475H116.296C114.991 177.475 113.931 178.564 113.931 179.904V189.902C113.931 191.242 114.991 192.331 116.296 192.331H116.609V194.715L119.303 192.331H128.668C129.973 192.331 131.034 191.242 131.034 189.902V179.904C131.034 178.564 129.978 177.475 128.668 177.475Z" fill="#FF4F5B"/>
<path d="M117.479 182.063V187.192C117.479 187.302 117.567 187.393 117.675 187.393H128.145C128.253 187.393 128.341 187.302 128.341 187.192L128.316 185.315C128.316 185.275 128.302 185.229 128.277 185.199L126.777 183.137C126.742 183.086 126.684 183.056 126.62 183.056L124.89 183.041C124.782 183.041 124.694 182.951 124.694 182.84V182.068C124.694 181.957 124.606 181.867 124.499 181.867H117.67C117.567 181.862 117.479 181.952 117.479 182.063Z" fill="#FAFAFA"/>
<path d="M125.183 183.487V185.134C125.183 185.199 125.232 185.249 125.296 185.249L127.608 185.209C127.696 185.209 127.749 185.103 127.696 185.028L126.615 183.392C126.596 183.362 126.557 183.342 126.518 183.342L125.286 183.377C125.232 183.372 125.183 183.422 125.183 183.487Z" fill="#FF4F5B"/>
<path d="M128.546 187.548H117.269V187.904H128.546V187.548Z" fill="#FAFAFA"/>
<path d="M120.999 187.683C120.999 188.316 120.5 188.827 119.884 188.827C119.269 188.827 118.77 188.316 118.77 187.683C118.77 187.051 119.269 186.539 119.884 186.539C120.5 186.539 120.999 187.051 120.999 187.683Z" fill="#FF4F5B"/>
<path d="M120.539 187.684C120.539 188.055 120.246 188.356 119.884 188.356C119.523 188.356 119.229 188.055 119.229 187.684C119.229 187.312 119.523 187.011 119.884 187.011C120.246 187.011 120.539 187.312 120.539 187.684Z" fill="#FAFAFA"/>
<path d="M124.684 187.392C124.655 187.392 124.635 186.153 124.635 184.627C124.635 183.101 124.66 181.861 124.684 181.861C124.714 181.861 124.733 183.096 124.733 184.627C124.738 186.153 124.714 187.392 124.684 187.392Z" fill="#FF4F5B"/>
<path d="M127.075 187.683C127.075 188.316 126.576 188.827 125.96 188.827C125.344 188.827 124.846 188.316 124.846 187.683C124.846 187.051 125.344 186.539 125.96 186.539C126.576 186.539 127.075 187.051 127.075 187.683Z" fill="#FF4F5B"/>
<path d="M126.615 187.683C126.615 188.055 126.322 188.356 125.96 188.356C125.598 188.356 125.305 188.055 125.305 187.683C125.305 187.312 125.598 187.011 125.96 187.011C126.322 187.011 126.615 187.312 126.615 187.683Z" fill="#FAFAFA"/>
<path d="M125.965 185.57C125.965 185.6 125.804 185.62 125.608 185.62C125.413 185.62 125.251 185.595 125.251 185.57C125.251 185.54 125.413 185.52 125.608 185.52C125.804 185.515 125.965 185.54 125.965 185.57Z" fill="#FF4F5B"/>
<path d="M112.004 216.135L152.116 216.135L152.116 203.221L112.004 203.221L112.004 216.135Z" fill="#375A64"/>
<path d="M180.144 197.379V214.449H166.448L160.959 206.278H60.9541V197.379H180.144Z" fill="#1A2E35"/>
<path d="M181 143.326C181.029 142.753 181.498 142.312 182.055 142.337C187.466 142.563 213.168 143.777 218.452 146.382C222.494 148.38 226.928 155.838 230.051 160.862C232.29 164.46 237.237 172.456 238.239 176.541C239.084 180.004 239.597 187.186 239.539 190.755L238.126 209.621H214.835L212.503 203.387C210.983 199.322 207.18 196.642 202.937 196.642H179.792V165.329L181 143.326Z" fill="#FF4F5B"/>
<path d="M221.213 148.469C224.42 151.611 227.631 156.967 230.051 160.861C232.123 164.194 236.518 171.296 237.955 175.572C237.979 175.652 238.004 175.727 238.028 175.803C237.319 175.602 236.229 175.19 235.892 174.498C235.384 173.449 234.724 169.865 226.629 156.334C224.166 152.214 221.766 149.8 221.213 148.469Z" fill="#375A64"/>
<path d="M192.961 147.075C198.914 147.426 211.824 148.32 215.949 149.77C221.321 151.662 227.353 166.262 227.636 166.905L231.703 177.585C231.801 177.886 231.581 178.197 231.273 178.197H220.769C220.373 178.197 219.977 178.122 219.605 177.982L191.973 167.412C190.722 166.935 189.896 165.71 189.896 164.34V150.051C189.896 148.335 191.299 146.975 192.961 147.075Z" fill="#1A2E35"/>
<path d="M230.535 177.149C230.535 177.149 226.639 168.18 225.329 165.249C223.35 160.812 218.735 151.723 215.617 150.764C212.747 149.881 204.506 148.807 192.902 148.124C192.863 148.124 192.829 148.119 192.79 148.119C191.753 148.119 190.913 148.987 190.913 150.051V164.662C190.913 165.394 191.362 166.062 192.032 166.318L212.444 168.903C214.101 169.113 215.583 170.057 216.497 171.492L220.036 177.028C220.246 177.109 220.461 177.149 220.686 177.149H230.535Z" fill="#375A64"/>
<path d="M213.187 169.063L220.138 176.997L216.296 150.648L215.338 150.307L217.23 169.825C217.274 170.257 216.853 170.573 216.462 170.413L213.187 169.063Z" fill="#1A2E35"/>
<path d="M239.993 192.586C240.018 192.245 239.905 191.964 239.734 191.949L236.014 191.597C235.702 191.567 235.423 192.159 235.389 192.867L235.223 195.798C235.193 196.27 235.335 196.666 235.54 196.702L239.333 197.374C239.505 197.404 239.666 197.143 239.695 196.797L239.993 192.586Z" fill="#FFF1A6"/>
<path d="M213.189 217.319L236 217.319C238.209 217.319 240 215.607 240 213.495L240 206.282L213.189 206.282L213.189 217.319Z" fill="#1A2E35"/>
<path d="M210.509 214.36C210.82 206.048 204.509 199.05 196.413 198.731C188.317 198.411 181.502 204.891 181.191 213.204C180.88 221.516 187.191 228.514 195.287 228.833C203.383 229.153 210.198 222.673 210.509 214.36Z" fill="#1A2E35"/>
<path d="M210.509 213.542C210.509 213.557 210.509 213.567 210.514 213.582C210.631 221.898 204.159 228.739 196.06 228.86C187.96 228.98 181.298 222.335 181.18 214.019C181.18 214.003 181.18 213.993 181.18 213.978L210.509 213.542Z" fill="#1A2E35"/>
<path d="M206.144 213.639C206.227 219.476 201.681 224.279 195.996 224.365C190.311 224.45 185.634 219.783 185.55 213.945C185.467 208.108 190.013 203.305 195.698 203.22C201.383 203.135 206.061 207.802 206.144 213.639Z" fill="#495B61"/>
<path d="M195.698 203.22C201.383 203.135 206.061 207.802 206.144 213.639L185.55 213.945C185.467 208.108 190.008 203.305 195.698 203.22Z" fill="#6B7D83"/>
<path d="M202.116 213.701C202.165 217.26 199.398 220.181 195.932 220.236C192.467 220.286 189.617 217.445 189.568 213.887C189.519 210.328 192.286 207.407 195.752 207.352C199.217 207.302 202.067 210.143 202.116 213.701Z" fill="#E2E2E2"/>
<path d="M214.932 147.496C214.932 147.496 214.81 147.476 214.566 147.446C214.321 147.416 213.965 147.371 213.49 147.316C212.542 147.205 211.144 147.04 209.331 146.824C205.704 146.402 200.425 145.785 193.826 145.012C193 144.922 192.159 144.806 191.284 144.726C190.844 144.676 190.394 144.736 189.954 144.816C189.519 144.927 189.079 145.077 188.679 145.313C187.877 145.775 187.178 146.488 186.748 147.371C186.533 147.813 186.372 148.289 186.303 148.786C186.249 149.032 186.259 149.288 186.24 149.539C186.24 149.79 186.24 150.041 186.24 150.297C186.235 154.352 186.235 158.709 186.23 163.326C186.225 172.556 186.225 182.825 186.22 193.791V193.871H186.298C189.739 193.871 193.273 193.871 196.881 193.871C198.684 193.871 200.503 193.871 202.341 193.871C203.26 193.876 204.179 193.851 205.088 194.002C206.002 194.112 206.882 194.418 207.742 194.765C210.406 195.939 212.527 198.233 213.544 200.938C213.661 201.279 213.808 201.611 213.881 201.967C213.96 202.318 214.077 202.659 214.116 203.021L214.194 203.553L214.233 203.819L214.248 204.09L214.272 204.627L214.287 204.893V204.928C214.219 204.858 214.38 205.033 214.37 205.013H214.38H214.395H214.458H214.59C215.993 205.013 217.386 205.013 218.765 205.013C224.288 205.013 229.626 205.008 234.724 205.008H234.797V204.933C234.797 200.195 234.792 195.633 234.792 191.272C234.792 189.088 234.792 186.96 234.788 184.882C234.788 183.844 234.788 182.82 234.788 181.811C234.788 181.304 234.792 180.807 234.783 180.305C234.773 179.803 234.739 179.311 234.68 178.82C234.445 176.862 233.825 175.02 232.95 173.409C232.104 171.783 231.293 170.212 230.506 168.701C228.937 165.675 227.49 162.884 226.175 160.355C224.86 157.825 223.682 155.557 222.655 153.579C222.396 153.082 222.152 152.606 221.912 152.149C221.79 151.923 221.683 151.692 221.556 151.476C221.429 151.261 221.287 151.065 221.145 150.874C220.563 150.126 219.913 149.549 219.288 149.102C218.026 148.219 216.878 147.868 216.115 147.687C215.343 147.521 214.932 147.496 214.932 147.496C214.932 147.496 215.035 147.516 215.231 147.542C215.431 147.572 215.724 147.627 216.105 147.717C216.863 147.908 218.007 148.269 219.258 149.153C219.879 149.594 220.519 150.171 221.096 150.919C221.238 151.105 221.375 151.306 221.502 151.517C221.629 151.727 221.737 151.958 221.854 152.184C222.088 152.641 222.338 153.123 222.592 153.614C223.614 155.597 224.787 157.866 226.092 160.4C227.402 162.935 228.844 165.725 230.408 168.752C231.19 170.267 232.001 171.838 232.842 173.464C233.712 175.07 234.323 176.892 234.553 178.835C234.612 179.321 234.646 179.813 234.656 180.305C234.665 180.802 234.656 181.304 234.66 181.806C234.66 182.815 234.66 183.838 234.66 184.877C234.66 186.955 234.66 189.083 234.656 191.267C234.656 195.628 234.651 200.195 234.651 204.928L234.724 204.853C229.626 204.853 224.288 204.853 218.765 204.848C217.386 204.848 215.993 204.848 214.59 204.848H214.458H214.395H214.38H214.37C214.351 204.833 214.517 204.998 214.448 204.923V204.888L214.434 204.617L214.404 204.07L214.39 203.799L214.351 203.528L214.268 202.986C214.228 202.619 214.111 202.273 214.028 201.917C213.955 201.555 213.803 201.219 213.686 200.873C212.655 198.127 210.499 195.799 207.796 194.609C206.926 194.258 206.031 193.952 205.102 193.836C204.184 193.681 203.245 193.706 202.336 193.701C200.503 193.701 198.68 193.701 196.876 193.701C193.269 193.701 189.734 193.701 186.293 193.701L186.371 193.781C186.367 182.815 186.367 172.546 186.362 163.316C186.357 158.699 186.357 154.342 186.352 150.287C186.352 149.78 186.332 149.278 186.415 148.791C186.479 148.304 186.635 147.838 186.846 147.406C187.261 146.543 187.941 145.845 188.728 145.393C189.119 145.163 189.544 145.017 189.974 144.907C190.409 144.826 190.844 144.771 191.274 144.816C192.139 144.892 192.985 145.007 193.811 145.097C200.415 145.85 205.694 146.447 209.321 146.864C211.134 147.065 212.532 147.225 213.485 147.331C213.96 147.381 214.316 147.421 214.561 147.446C214.81 147.486 214.932 147.496 214.932 147.496Z" fill="#1A2E35"/>
<path d="M191.108 182.221C191.108 182.211 191.025 182.211 190.869 182.186C190.717 182.161 190.487 182.096 190.238 181.93C189.994 181.765 189.73 181.483 189.598 181.072C189.529 180.866 189.505 180.645 189.515 180.394C189.519 180.153 189.578 179.897 189.7 179.662C189.94 179.19 190.463 178.798 191.079 178.798C191.714 178.798 192.389 178.803 193.097 178.803C194.52 178.803 196.084 178.808 197.726 178.808C198.117 178.808 198.499 178.964 198.782 179.23C199.066 179.496 199.242 179.857 199.281 180.239C199.32 180.625 199.271 181.002 199.09 181.323C198.919 181.644 198.636 181.885 198.323 182.02C198.005 182.166 197.668 182.146 197.326 182.146C196.988 182.146 196.661 182.151 196.343 182.151C195.713 182.156 195.121 182.156 194.583 182.161C193.518 182.171 192.653 182.181 192.037 182.186C191.748 182.191 191.519 182.196 191.343 182.201C191.191 182.211 191.108 182.216 191.108 182.221C191.108 182.226 191.191 182.231 191.348 182.236C191.519 182.241 191.753 182.246 192.042 182.251C192.658 182.256 193.528 182.266 194.588 182.276C195.126 182.281 195.717 182.281 196.348 182.287C196.666 182.287 196.993 182.292 197.331 182.292C197.502 182.292 197.663 182.297 197.849 182.287C198.03 182.271 198.21 182.236 198.381 182.161C198.724 182.015 199.032 181.749 199.222 181.403C199.423 181.057 199.476 180.625 199.437 180.224C199.393 179.807 199.198 179.406 198.89 179.115C198.582 178.823 198.161 178.648 197.731 178.648C196.089 178.648 194.53 178.653 193.102 178.653C192.394 178.658 191.714 178.658 191.084 178.663C190.414 178.668 189.857 179.099 189.607 179.606C189.48 179.862 189.422 180.133 189.422 180.389C189.417 180.64 189.446 180.886 189.519 181.097C189.666 181.524 189.95 181.815 190.209 181.975C190.473 182.141 190.707 182.196 190.869 182.211C191.025 182.236 191.108 182.221 191.108 182.221Z" fill="#1A2E35"/>
<path d="M211.97 217.41L214.409 217.229C213.769 208.23 212.835 202.845 211.545 200.767C209.072 196.777 206.613 196.06 203.89 195.578C201.358 195.136 198.797 195.241 196.329 195.342L195.722 195.367C190.619 195.573 179.929 195.387 179.817 195.387L179.778 197.901C179.885 197.901 190.644 198.087 195.815 197.881L196.426 197.856C198.773 197.761 201.197 197.661 203.48 198.057C205.914 198.484 207.532 198.971 209.482 202.117C210.074 203.071 211.178 206.323 211.97 217.41Z" fill="#1A2E35"/>
<path d="M57.951 197.291L178.51 197.291L178.51 120.611C178.51 117.443 175.823 114.875 172.51 114.875L63.951 114.875C60.6373 114.875 57.951 117.443 57.951 120.611L57.951 197.291Z" fill="#FF4F5B"/>
<path d="M60.6118 133.001L175.97 133.001L175.97 119.952L60.6118 119.952L60.6118 133.001Z" fill="#FE6973"/>
<path d="M60.6118 148.058L175.97 148.058L175.97 135.009L60.6118 135.009L60.6118 148.058Z" fill="#FE6973"/>
<path d="M60.6118 163.115L175.97 163.115L175.97 150.066L60.6118 150.066L60.6118 163.115Z" fill="#FE6973"/>
<path d="M60.6118 178.172L175.97 178.172L175.97 165.122L60.6118 165.122L60.6118 178.172Z" fill="#FE6973"/>
<path d="M60.6118 193.228L175.97 193.228L175.97 180.179L60.6118 180.179L60.6118 193.228Z" fill="#FE6973"/>
<path d="M102.153 214.402C102.477 206.09 96.1763 199.083 88.0813 198.751C79.9863 198.42 73.162 204.888 72.8387 213.2C72.5155 221.512 78.8157 228.519 86.9107 228.851C95.0057 229.183 101.83 222.714 102.153 214.402Z" fill="#1A2E35"/>
<path d="M102.155 213.541C102.155 213.556 102.155 213.566 102.16 213.581C102.278 221.897 95.8058 228.738 87.7064 228.859C79.6069 228.979 72.9445 222.334 72.8271 214.018C72.8271 214.003 72.8271 213.992 72.8271 213.977L102.155 213.541Z" fill="#1A2E35"/>
<path d="M97.7905 213.641C97.8736 219.478 93.3277 224.281 87.6429 224.367C81.9581 224.452 77.2803 219.784 77.1972 213.947C77.1141 208.11 81.66 203.307 87.3448 203.222C93.0296 203.137 97.7074 207.804 97.7905 213.641Z" fill="#495B61"/>
<path d="M87.3448 203.222C93.0296 203.137 97.7074 207.804 97.7905 213.641L77.1972 213.947C77.1141 208.11 81.66 203.307 87.3448 203.222Z" fill="#6B7D83"/>
<path d="M93.7675 213.703C93.8164 217.262 91.0497 220.183 87.5841 220.238C84.1185 220.288 81.2688 217.447 81.2199 213.889C81.171 210.331 83.9376 207.41 87.4033 207.354C90.8689 207.304 93.7137 210.145 93.7675 213.703Z" fill="#E2E2E2"/>
<path d="M106.775 217.923C106.775 217.923 109.008 196.562 87.4472 196.562C67.5529 196.562 67.9977 214.936 68.1834 217.777H71.302C71.302 217.777 69.7134 199.669 87.4423 199.669C105.176 199.669 103.632 218.144 103.632 218.144C103.632 218.144 104.946 218.073 106.775 217.923Z" fill="#375A64"/>
</svg>
