<svg width="200" height="97" viewBox="0 0 200 97" fill="none" xmlns="http://www.w3.org/2000/svg">
<path d="M34.9521 73.866C49.1171 73.6258 60.54 62.2022 60.7802 48.0396H34.9521V73.866Z" fill="#8F1921"/>
<path d="M9.125 48.0395H34.953V22.21C20.7926 22.4502 9.3652 33.8738 9.125 48.0395Z" fill="#F37E90"/>
<path d="M60.302 22.5184C60.0609 22.3071 59.7526 22.1885 59.432 22.1836H35.4025C35.2524 22.1836 35.1023 22.2039 34.9521 22.2069V48.0146L60.302 22.5184Z" fill="#D13F49"/>
<path d="M60.3021 22.5186L34.9521 48.0149V48.0396H60.7802C60.7802 47.8895 60.8035 47.7394 60.8035 47.5893V23.5582C60.8019 23.3586 60.7561 23.1619 60.6694 22.9821C60.5827 22.8024 60.4572 22.6441 60.3021 22.5186Z" fill="#BF202F"/>
<path d="M9.60254 73.5548C9.84363 73.766 10.152 73.8847 10.4725 73.8896H34.502C34.6522 73.8896 34.8023 73.8693 34.9524 73.8663V48.0615L9.60254 73.5548Z" fill="#BF202F"/>
<path d="M9.6032 73.5545L34.9531 48.0613V48.0396H9.12506C9.12506 48.1897 9.10254 48.3398 9.10254 48.4899V72.5179C9.1045 72.7169 9.1504 72.913 9.23695 73.0922C9.32349 73.2714 9.44856 73.4293 9.6032 73.5545Z" fill="#D13F49"/>
<path d="M18.5251 48.9968C18.5251 48.9968 18.7886 48.632 19.2142 48.632C19.6398 48.632 19.0318 50.6196 19.0318 50.6196C19.0318 50.6196 18.0792 54.0447 18.14 55.2224C18.2008 56.4001 18.0995 58.041 19.5595 59.9273C21.0194 61.8136 24.22 63.8222 30.6558 63.9581C37.0916 64.0939 43.1161 60.3829 45.7433 57.4885C48.3704 54.5941 49.2847 50.3374 46.4241 47.3409C43.5635 44.3444 34.6394 45.1956 31.5093 43.4249C28.3792 41.6542 28.1675 39.5405 29.7363 34.3109C31.3051 29.0814 36.8597 25.9438 43.7234 24.4403C50.587 22.9368 52.1783 23.9479 52.5762 24.8907C52.974 25.8335 53.2262 28.3976 51.6003 30.711C51.6003 30.711 50.7206 31.9915 49.4633 31.4233C48.2061 30.8551 46.4541 28.7504 39.7804 30.7478C33.1066 32.7451 32.0017 35.4459 32.0017 35.4459C32.0017 35.4459 31.4695 36.842 33.578 37.7728C35.6865 38.7035 43.905 38.2156 47.1409 40.5208C50.3768 42.8259 51.4172 45.0373 51.2626 50.1332C51.1079 55.2291 47.8638 60.476 44.1159 64.1848C40.3681 67.8936 31.7645 72.5504 20.9473 68.1225C10.1302 63.6946 16.2027 52.9398 16.2027 52.9398C16.2027 52.9398 17.746 49.7496 18.5251 48.9968Z" fill="white"/>
<path d="M47.1395 40.5153C46.2838 39.9051 45.0746 39.4945 43.7257 39.1973L38.1546 44.8119C41.4296 45.209 44.8464 45.6909 46.4227 47.343C49.2833 50.3394 48.3638 54.5962 45.7419 57.4906C43.12 60.3849 37.0925 64.096 30.6545 63.9601C26.1853 63.8656 23.2984 62.862 21.4527 61.6332L17.2725 65.8397C18.2002 66.6954 19.3794 67.4798 20.9505 68.1223C31.7676 72.551 40.3712 67.8971 44.1191 64.1846C47.8669 60.472 51.1103 55.2297 51.2657 50.133C51.4211 45.0363 50.377 42.8197 47.1395 40.5153Z" fill="#E9E8E8"/>
<path d="M64.9203 56.3202C64.9203 56.3202 64.3318 50.6613 65.0419 46.7265C65.0419 46.7265 65.2754 43.8742 65.3775 42.8068C65.4795 41.7394 65.9337 39.8959 67.7464 40.1151C69.5592 40.3343 72.7523 41.8227 72.2629 44.585C71.7735 47.3473 70.9696 50.2852 70.7151 52.6752C70.4606 55.0652 70.1859 57.3958 70.3818 59.7858C70.5777 62.1758 69.5006 62.4302 68.8934 62.488C68.2861 62.5458 65.746 61.6105 64.9203 56.3202Z" fill="#010101"/>
<path d="M68.381 38.0021C68.381 38.0021 66.9766 38.162 66.4782 36.5437C65.9798 34.9253 65.7276 32.8806 67.2078 32.0805C68.688 31.2803 71.2266 32.2223 71.7423 33.2897C72.258 34.3571 72.4359 35.5836 70.8888 36.8642C70.8873 36.8642 69.4777 37.9811 68.381 38.0021Z" fill="#010101"/>
<path d="M79.8043 62.492C79.8043 62.492 75.9972 63.0084 74.6371 59.0962C73.277 55.184 75.0357 45.9093 75.2218 44.4201C75.408 42.9309 74.246 39.4525 75.8156 39.1973C77.3851 38.9421 81.9541 39.4608 81.8145 43.5336C81.8145 43.5336 81.5375 47.2995 81.0864 49.7577C80.6353 52.216 80.5677 55.2628 81.244 54.5617C81.9203 53.8606 85.7785 46.8589 90.1088 43.5771C94.4392 40.2954 100.191 39.0734 101.578 42.8663C102.965 46.6592 100.767 50.1413 101.409 55.3206C102.05 60.4999 103.164 62.0987 102.309 62.5168C101.454 62.9349 96.4546 62.2788 94.828 55.3071C93.2014 48.3353 94.9331 46.5008 93.7276 46.0032C92.5221 45.5055 89.946 47.7461 87.4449 51.7476C84.9438 55.7492 84.4987 56.722 84.1377 57.4171C83.7766 58.1121 82.4218 62.2068 79.8043 62.492Z" fill="#010101"/>
<path d="M108.977 58.3808C108.977 58.3808 104.628 59.7154 104.9 54.0069C104.9 54.0069 105.371 49.6908 106.412 46.289C107.454 42.8872 107.585 32.54 107.113 29.894C106.642 27.2481 105.862 25.6553 108.239 25.5404C110.617 25.4256 113.554 27.0259 113.603 30.1612C113.653 33.2966 113.29 38.0713 112.817 40.7667C112.345 43.4622 112.632 44.718 113.023 44.6152C113.414 44.5123 117.902 40.2293 123.217 41.0542C128.532 41.8792 130.648 45.1473 130.873 49.1744C131.099 53.2015 129.712 61.3284 117.07 63.1359C117.07 63.1359 108.944 63.7417 107.541 60.755C107.541 60.755 107.264 59.7093 109.793 59.5345C112.322 59.3596 120.112 58.5354 123.693 55.9525C127.274 53.3696 128.328 48.7788 123.768 46.4662C119.208 44.1535 115.572 46.0241 113.974 47.2821C112.376 48.5401 111.417 51.2138 111.239 53.7187C111.061 56.2235 110.442 57.9814 108.977 58.3808Z" fill="#010101"/>
<path d="M162.747 57.4574C162.747 57.4574 161.095 52.3225 160.634 51.0592C160.174 49.7959 158.817 47.4247 156.356 47.8871C153.895 48.3494 153.091 48.5333 149.549 51.1823C146.006 53.8312 142.434 58.0512 138.522 56.5725C134.61 55.0937 140.802 47.5786 146.346 45.5767C151.89 43.5748 153.091 43.4517 155 43.8825C156.91 44.3134 157.711 43.821 157.711 43.207C157.711 42.5929 156.725 39.604 152.013 39.2955C147.3 38.987 142.277 41.7883 140.366 43.3593C138.454 44.9304 134.237 48.1948 132.789 52.1371C131.341 56.0793 135.431 60.6341 135.431 60.6341C135.431 60.6341 139.137 65.2534 145.825 61.0664C145.825 61.0664 149.625 58.705 151.48 55.8774C153.335 53.0498 154.858 52.5627 155.308 53.7794C155.758 54.9962 158.318 61.1069 163.153 62.3537C163.153 62.3537 164.318 62.8416 164.834 62.2629C165.35 61.6842 163.259 59.0473 162.747 57.4574Z" fill="#010101"/>
<path d="M174.388 43.7454C174.388 43.7454 175.434 43.3371 175.541 43.8873C175.648 44.4375 174.725 44.4878 174.282 44.9517C173.838 45.4156 171.666 47.0654 171.204 49.911C170.742 52.7566 171.354 56.1832 174.08 58.2947C176.805 60.4061 179.893 58.6309 180.873 56.1832C181.852 53.7354 182.096 48.3197 180.26 43.822C178.424 39.3243 175.874 34.8341 171.489 31.9014C167.105 28.9688 167.027 29.6083 166.777 28.7886C166.527 27.9689 169.11 28.1844 170.096 28.393C171.082 28.6017 181.731 30.7657 186.666 40.2003C191.601 49.6348 185.714 56.4174 183.117 59.2359C180.52 62.0545 175.587 63.57 170.87 62.3135C166.153 61.0569 164.292 57.466 164.421 53.3548C164.551 49.2437 170.16 45.1731 174.388 43.7454Z" fill="#010101"/>
</svg>
