<svg width="234" height="186" viewBox="0 0 234 186" fill="none" xmlns="http://www.w3.org/2000/svg">
<g filter="url(#filter0_d_470_90467)">
<path d="M32.5578 38.8309C32.5407 38.372 32.4071 37.925 32.1697 37.5319C31.9323 37.1388 31.5989 36.8125 31.2007 36.5836C30.1698 36.1053 29.0056 35.9966 27.904 36.2759C27.0764 36.4062 26.2772 36.6776 25.5414 37.0781C24.9506 37.4012 24.4457 37.8608 24.0688 38.4188C23.7374 38.9048 23.5594 39.479 23.5578 40.0672C23.5266 40.4953 23.6366 40.9219 23.871 41.2814C24.1084 41.6129 24.4286 41.8762 24.7996 42.0452C25.2366 42.2492 25.6984 42.3951 26.1732 42.4793C26.7179 42.5789 27.2686 42.6431 27.8216 42.6716L30.2556 42.8254C31.3543 42.8671 32.4451 43.0293 33.5084 43.3089C34.4259 43.543 35.2934 43.9414 36.0688 44.4847C36.7854 44.9929 37.3649 45.6706 37.7556 46.4573C38.1952 47.3648 38.4208 48.361 38.415 49.3694C38.4234 50.965 37.9857 52.5313 37.1513 53.8913C36.2524 55.3156 35.0187 56.4983 33.5578 57.3364C31.8139 58.3433 29.899 59.0194 27.9095 59.3309C26.0281 59.7177 24.0876 59.7177 22.2062 59.3309C20.7136 59.0242 19.3759 58.2037 18.426 57.0122C17.4569 55.6617 16.9571 54.0309 17.0029 52.3694L22.5414 51.3913C22.5564 52.17 22.8331 52.921 23.3271 53.5232C23.8194 54.0606 24.4732 54.4232 25.1897 54.5562C26.0661 54.7266 26.9672 54.7266 27.8436 54.5562C28.7296 54.4138 29.5845 54.1201 30.371 53.688C31.0245 53.3279 31.5881 52.8244 32.0194 52.2155C32.4151 51.6754 32.627 51.0225 32.6238 50.3529C32.6357 50.0881 32.5931 49.8237 32.4986 49.576C32.4041 49.3284 32.2597 49.1028 32.0743 48.9133C31.6337 48.5178 31.0947 48.2483 30.5139 48.1331C29.6928 47.9409 28.8561 47.8232 28.0139 47.7815L25.0633 47.5562C22.7813 47.4023 20.9809 46.8529 19.6622 45.9078C18.3381 44.9573 17.6842 43.4847 17.6897 41.4792C17.6722 39.8747 18.1311 38.3009 19.0084 36.9573C19.9487 35.5161 21.2084 34.311 22.6897 33.4353C24.3092 32.4478 26.1038 31.7819 27.9754 31.4738C29.7154 31.1112 31.5149 31.1469 33.2392 31.5781C34.6447 31.9019 35.8933 32.7057 36.7698 33.851C37.6464 34.9964 38.0961 36.4116 38.0414 37.8529L32.5578 38.8309Z" fill="white"/>
<path d="M52.7116 54.3144C52.4313 54.4573 52.0357 54.6276 51.5193 54.8639C50.917 55.1052 50.2934 55.2892 49.6566 55.4134C48.4928 55.7058 47.2785 55.7359 46.1017 55.5013C45.15 55.3068 44.3032 54.7689 43.7226 53.9903C43.1151 53.053 42.8243 51.9457 42.8929 50.8309V40.2265L40.1456 40.7155V36.4793L42.8929 35.9958V31.1331L48.5193 30.1386V35.0013L52.3654 34.3254V38.5507L48.5193 39.2265V49.0617C48.4929 49.4653 48.5785 49.8684 48.7665 50.2265C48.837 50.35 48.9326 50.4573 49.0471 50.5416C49.1616 50.6258 49.2925 50.6851 49.4313 50.7155C49.7596 50.7813 50.0976 50.7813 50.4259 50.7155C50.6968 50.6686 50.9634 50.5987 51.2226 50.5068L51.827 50.287L52.7116 54.3144Z" fill="white"/>
<path d="M64.3656 52.9134C62.5929 53.2983 60.747 53.1667 59.0469 52.5343C57.578 51.9378 56.3582 50.8556 55.5908 49.4683C54.7368 47.8486 54.3184 46.0347 54.3766 44.2046C54.3504 42.2314 54.7653 40.2772 55.5908 38.4848C56.3809 36.8003 57.5666 35.3318 59.0469 34.2046C60.6124 33.0362 62.4371 32.2634 64.3656 31.9518C66.1405 31.5723 67.9866 31.7038 69.6898 32.3309C71.1586 32.9274 72.3785 34.0096 73.1458 35.3969C74.0088 37.0239 74.4347 38.8471 74.3821 40.6881C74.4063 42.6523 73.9915 44.5971 73.1678 46.3804C72.3777 48.0649 71.192 49.5334 69.7117 50.6606C68.1396 51.8355 66.3044 52.6089 64.3656 52.9134ZM64.3656 48.5507C65.256 48.4079 66.0767 47.9821 66.7062 47.3365C67.3602 46.6444 67.847 45.8117 68.1293 44.9024C68.4581 43.8518 68.6194 42.7559 68.6073 41.6551C68.6293 40.6112 68.4675 39.5716 68.1293 38.5837C67.8704 37.8023 67.3727 37.1219 66.7062 36.6386C66.3621 36.4201 65.9778 36.2726 65.5758 36.2047C65.1739 36.1367 64.7624 36.1498 64.3656 36.243C63.4645 36.3896 62.6333 36.8187 61.9919 37.4683C61.33 38.1614 60.8373 38.9982 60.5524 39.9134C60.2311 40.9652 60.0772 42.061 60.0963 43.1606C60.0749 44.2045 60.2367 45.2441 60.5744 46.2321C60.8345 47.0144 61.3392 47.6924 62.0139 48.1661C62.7256 48.6019 63.5803 48.7401 64.393 48.5507H64.3656Z" fill="white"/>
<path d="M96.7171 46.8309L90.1237 47.9903L84.5907 40.7705L83.0688 42.787V49.232L77.4369 50.2155V23.1551L83.0688 22.1606V36.6331L83.3655 36.5837L89.871 27.732L96.338 26.5947L88.805 36.7155L96.7171 46.8309Z" fill="white"/>
<path d="M121.882 15.3363L114.492 16.633L105.151 45.3418L111.289 44.2429L113.294 37.7154L123.058 35.9957L125.063 41.8143L131.201 40.7154L121.882 15.3363ZM114.739 33.0176L118.069 22.188L118.283 22.1495L121.635 31.7869L114.739 33.0176Z" fill="white"/>
<path d="M133.761 40.3089V20.0122L139.124 19.0671V22.6495L139.365 22.6056C139.772 21.357 140.515 20.2446 141.512 19.3906C142.51 18.5367 143.723 17.9741 145.019 17.7649C146.217 17.4987 147.469 17.6439 148.574 18.177C149.054 18.4289 149.477 18.7786 149.813 19.2035C150.15 19.6284 150.395 20.1191 150.53 20.644L150.745 20.6056C151.173 19.3468 151.955 18.2384 152.997 17.4133C154.108 16.5125 155.433 15.9161 156.844 15.6825C158.737 15.3528 160.278 15.6843 161.464 16.677C162.651 17.6697 163.243 19.2667 163.239 21.4682V35.1221L157.624 36.1111V23.5451C157.624 22.4462 157.327 21.6275 156.728 21.166C156.408 20.9335 156.042 20.7729 155.654 20.6952C155.266 20.6174 154.866 20.6243 154.481 20.7155C153.532 20.8529 152.673 21.3532 152.085 22.1111C151.503 22.89 151.201 23.8425 151.228 24.8144V37.2374L145.811 38.1935V25.5561C145.842 25.1445 145.781 24.7311 145.634 24.3455C145.487 23.9599 145.256 23.6115 144.959 23.3254C144.648 23.0766 144.284 22.903 143.895 22.8182C143.506 22.7334 143.103 22.7396 142.717 22.8363C142.099 22.9444 141.519 23.2072 141.03 23.6001C140.526 24.0089 140.122 24.5276 139.849 25.1166C139.551 25.7563 139.401 26.4549 139.409 27.1605V39.3199L133.761 40.3089Z" fill="white"/>
<path d="M172.893 33.8089C171.747 34.0446 170.562 34.0202 169.426 33.7375C168.467 33.4985 167.62 32.9333 167.031 32.1386C166.4 31.1976 166.092 30.0775 166.152 28.9463C166.128 27.928 166.34 26.9181 166.773 25.9957C167.177 25.1671 167.754 24.4346 168.465 23.8474C169.204 23.2394 170.026 22.7382 170.904 22.3584C171.837 21.9534 172.797 21.6155 173.778 21.3474C174.959 21.0122 175.91 20.732 176.63 20.4957C177.205 20.3396 177.747 20.0788 178.229 19.7265C178.386 19.5978 178.512 19.4348 178.596 19.2501C178.681 19.0654 178.723 18.8637 178.718 18.6606V18.6001C178.749 18.2573 178.693 17.9121 178.555 17.5969C178.416 17.2817 178.2 17.0068 177.926 16.7979C177.594 16.6037 177.225 16.4775 176.843 16.4265C176.461 16.3756 176.073 16.401 175.701 16.5012C174.806 16.6262 173.966 17.0079 173.284 17.6001C172.716 18.0998 172.304 18.7521 172.097 19.4793L166.888 19.9738C167.141 18.7123 167.675 17.5238 168.448 16.4957C169.258 15.4233 170.281 14.5308 171.454 13.8749C172.782 13.1369 174.229 12.635 175.729 12.3913C176.797 12.1957 177.887 12.1366 178.97 12.2155C179.926 12.2796 180.86 12.5317 181.718 12.9573C182.511 13.3625 183.173 13.9858 183.624 14.754C184.122 15.6691 184.363 16.7019 184.322 17.743V31.4188L178.981 32.3364V29.5397L178.827 29.5672C178.494 30.2685 178.051 30.9122 177.514 31.4738C176.944 32.0682 176.28 32.564 175.547 32.9408C174.713 33.3653 173.818 33.6582 172.893 33.8089ZM174.503 29.6441C175.292 29.5157 176.043 29.2135 176.701 28.7595C177.313 28.3433 177.824 27.795 178.196 27.1551C178.556 26.546 178.745 25.8515 178.745 25.1441V22.9957C178.523 23.1701 178.282 23.3177 178.025 23.4353C177.718 23.5782 177.377 23.721 176.998 23.8639C176.619 24.0067 176.24 24.1386 175.86 24.265L174.833 24.5946C174.229 24.7841 173.648 25.0422 173.102 25.3639C172.645 25.6264 172.251 25.9866 171.948 26.4188C171.675 26.8342 171.533 27.3226 171.542 27.8199C171.51 28.1402 171.573 28.4628 171.722 28.7479C171.871 29.033 172.101 29.2682 172.382 29.4243C173.045 29.7338 173.792 29.8112 174.503 29.6441Z" fill="white"/>
<path d="M193.734 18.0507V29.7595L188.118 30.754V10.4518L193.487 9.50672V13.1056L193.723 13.0672C194.169 11.8117 194.95 10.7021 195.981 9.85837C197.089 8.95624 198.416 8.36462 199.827 8.14408C201.058 7.88177 202.337 7.97905 203.514 8.4243C204.56 8.85041 205.424 9.62756 205.959 10.6221C206.569 11.833 206.858 13.1798 206.8 14.5342V27.4628L201.168 28.4518V16.5287C201.168 15.2869 200.851 14.3712 200.217 13.7814C199.853 13.4804 199.422 13.2706 198.961 13.1693C198.499 13.068 198.02 13.0782 197.563 13.199C196.839 13.3191 196.152 13.607 195.558 14.0397C194.979 14.4688 194.517 15.0353 194.212 15.688C193.877 16.4297 193.714 17.2372 193.734 18.0507Z" fill="white"/>
<path d="M216.767 22.0122L216.618 23.4902C216.499 24.7056 216.28 25.9092 215.965 27.0891C215.646 28.3016 215.311 29.4005 214.959 30.3858C214.613 31.3913 214.333 32.1825 214.124 32.754L210.476 33.4353C210.607 32.8858 210.789 32.1386 211.025 31.1661C211.261 30.1935 211.47 29.1166 211.668 27.9243C211.87 26.7356 211.999 25.5355 212.053 24.3309L212.118 22.8419L216.767 22.0122Z" fill="white"/>
<path d="M38.2456 63.5182L49.3254 61.5737V93.6719C49.3411 96.5644 48.5981 99.4106 47.1704 101.926C45.7285 104.445 43.7151 106.589 41.2926 108.186C38.6698 109.91 35.7141 111.063 32.6171 111.571C30.0041 112.087 27.3113 112.042 24.7172 111.438C22.4533 110.91 20.4529 109.59 19.0776 107.716C17.676 105.832 16.9891 103.228 17.0001 99.8987L28.163 97.9154C28.1675 98.9389 28.4083 99.9475 28.8666 100.863C29.2353 101.582 29.8509 102.145 30.6006 102.447C31.4523 102.748 32.3707 102.807 33.2542 102.619C34.2459 102.465 35.1821 102.061 35.9743 101.444C36.7247 100.823 37.2979 100.015 37.6362 99.101C38.0488 97.9863 38.2517 96.8049 38.2345 95.6164L38.2456 63.5182Z" stroke="white" stroke-width="2" stroke-miterlimit="10"/>
<path d="M77.5235 88.0044V68.2159L88.6033 66.2714V101.084L78.0387 102.946V96.4638L77.6731 96.5248C76.9188 98.7714 75.5574 100.766 73.7398 102.286C71.8228 103.887 69.5085 104.94 67.042 105.333C64.9481 105.767 62.7726 105.575 60.7875 104.779C58.9964 104.015 57.5179 102.665 56.5938 100.951C55.5361 98.9103 55.0138 96.6343 55.0759 94.3365V72.1659L66.1557 70.2158V90.2315C66.1557 92.1206 66.6653 93.5166 67.6514 94.4362C68.6375 95.3559 69.9726 95.6606 71.6623 95.3614C72.7407 95.1785 73.7614 94.746 74.6428 94.0983C75.5403 93.4416 76.2647 92.5766 76.7535 91.5777C77.2878 90.4638 77.5516 89.2395 77.5235 88.0044Z" stroke="white" stroke-width="2" stroke-miterlimit="10"/>
<path d="M104.17 98.9348C102.218 99.328 100.205 99.2997 98.2648 98.8517C96.6387 98.4618 95.2025 97.5102 94.2096 96.1648C93.2161 94.8168 92.7212 92.996 92.7249 90.7025C92.6849 88.9564 93.0331 87.2232 93.7442 85.6279C94.409 84.1975 95.3679 82.9233 96.5585 81.8885C97.7959 80.8184 99.1849 79.9373 100.68 79.2737C102.289 78.5498 103.957 77.9641 105.666 77.5231C107.649 76.9691 109.239 76.5204 110.453 76.1049C111.407 75.8192 112.301 75.3611 113.09 74.7531C113.354 74.5366 113.566 74.2632 113.709 73.9534C113.853 73.6436 113.925 73.3053 113.921 72.9637V72.8529C113.963 72.3685 113.874 71.8816 113.662 71.4437C113.45 71.0058 113.124 70.6333 112.718 70.3655C111.721 69.8452 110.568 69.7091 109.478 69.9833C108.175 70.1663 106.951 70.7114 105.943 71.5566C105.067 72.3177 104.468 73.3487 104.242 74.4872L94.0157 75.9221C94.324 73.7383 95.1275 71.6539 96.3646 69.8282C97.7221 67.8421 99.5024 66.181 101.578 64.9641C104.039 63.5248 106.749 62.5607 109.566 62.1222C111.59 61.7379 113.658 61.6372 115.71 61.823C117.418 61.9653 119.082 62.4415 120.607 63.2246C121.948 63.9273 123.067 64.9902 123.837 66.2937C124.637 67.7353 125.033 69.3659 124.984 71.0137V94.6801L114.552 96.5138V91.6609L114.281 91.7107C113.681 92.9668 112.882 94.1173 111.915 95.1178C110.935 96.115 109.792 96.9375 108.536 97.5498C107.154 98.2176 105.684 98.6839 104.17 98.9348V98.9348ZM107.594 91.0792C108.751 90.8842 109.853 90.442 110.824 89.7829C111.758 89.1637 112.545 88.3467 113.128 87.3896C113.697 86.4451 113.994 85.3621 113.987 84.2596V80.9357C113.624 81.188 113.241 81.4086 112.84 81.5949C112.397 81.8054 111.91 82.0215 111.383 82.2375C110.857 82.4536 110.309 82.653 109.749 82.8414L108.137 83.3954C107.203 83.6958 106.31 84.1108 105.478 84.6308C104.808 85.0549 104.24 85.6225 103.816 86.2927C103.439 86.9129 103.246 87.6279 103.262 88.3536C103.217 88.8319 103.31 89.313 103.529 89.7407C103.747 90.1684 104.083 90.525 104.497 90.769C105.464 91.2221 106.556 91.3316 107.594 91.0792V91.0792Z" stroke="white" stroke-width="2" stroke-miterlimit="10"/>
<path d="M141.543 45.3473V91.7716L130.463 93.7216V47.2973L141.543 45.3473Z" stroke="white" stroke-width="2" stroke-miterlimit="10"/>
<path d="M157.11 89.6056C155.158 90.0044 153.143 89.976 151.204 89.5225C149.576 89.1342 148.137 88.1825 147.143 86.8356C146.157 85.4876 145.662 83.6668 145.659 81.3733C145.621 79.6268 145.971 77.8938 146.683 76.2987C147.344 74.8686 148.301 73.5957 149.492 72.5649C150.731 71.4927 152.122 70.6097 153.619 69.9445C155.229 69.2206 156.897 68.6349 158.605 68.1939C160.581 67.6621 162.175 67.1893 163.386 66.7757C164.343 66.4909 165.238 66.0327 166.029 65.4239C166.291 65.206 166.501 64.9323 166.644 64.6227C166.787 64.3131 166.859 63.9755 166.854 63.6346V63.5681C166.898 63.0835 166.809 62.5961 166.597 62.158C166.386 61.7199 166.059 61.3476 165.652 61.0807C164.655 60.5593 163.502 60.4232 162.411 60.6984C161.11 60.886 159.887 61.4306 158.877 62.2717C158.004 63.0355 157.406 64.0653 157.176 65.2023L146.955 66.6372C147.259 64.4533 148.061 62.3684 149.298 60.5433C150.659 58.5597 152.438 56.8992 154.511 55.6793C156.976 54.2432 159.687 53.2794 162.505 52.8373C164.528 52.453 166.594 52.3523 168.644 52.5381C170.353 52.6787 172.018 53.157 173.541 53.9453C174.885 54.6431 176.005 55.7071 176.771 57.0144C177.57 58.454 177.967 60.0828 177.917 61.7288V85.3953L167.491 87.229V82.376L167.22 82.4259C166.621 83.6835 165.82 84.8345 164.849 85.8329C163.871 86.8326 162.728 87.6554 161.469 88.2649C160.088 88.9174 158.619 89.3688 157.11 89.6056V89.6056ZM160.533 81.75C161.689 81.5524 162.789 81.1125 163.763 80.4592C164.697 79.8317 165.481 79.0072 166.062 78.0438C166.634 77.1007 166.931 76.0167 166.921 74.9138V71.5898C166.558 71.8371 166.176 72.0557 165.78 72.2435C165.331 72.4596 164.843 72.6701 164.317 72.8862C163.791 73.1022 163.242 73.3017 162.683 73.49L161.076 74.044C160.139 74.3439 159.244 74.7609 158.411 75.2849C157.743 75.7118 157.176 76.2789 156.749 76.9469C156.375 77.5701 156.183 78.2862 156.195 79.0133C156.151 79.4909 156.243 79.9713 156.462 80.3982C156.681 80.8251 157.017 81.1806 157.431 81.4231C158.395 81.8892 159.49 82.0104 160.533 81.7666V81.75Z" stroke="white" stroke-width="2" stroke-miterlimit="10"/>
<path d="M194.476 62.6042V82.4592L183.396 84.4092V49.591L193.922 47.7406V54.1503L194.31 54.0838C195.059 51.8458 196.427 49.8656 198.254 48.3722C200.166 46.8023 202.46 45.768 204.902 45.3751C207.034 44.9195 209.254 45.1005 211.284 45.8959C213.077 46.6646 214.563 48.0098 215.505 49.7184C216.567 51.7507 217.079 54.0252 216.99 56.3164V78.476L205.91 80.426V60.4325C205.91 58.4991 205.434 57.0698 204.448 56.1557C203.462 55.2417 202.088 54.9425 200.332 55.2472C199.22 55.4317 198.168 55.8779 197.263 56.5491C196.38 57.2063 195.677 58.0751 195.218 59.0753C194.724 60.1858 194.471 61.3886 194.476 62.6042Z" stroke="white" stroke-width="2" stroke-miterlimit="10"/>
<path d="M49.3673 113.061V151.758L42.2999 152.998L25.4631 131.606L25.1783 131.656V156.012L17 157.447V118.755L24.1791 117.488L40.8819 138.885L41.2224 138.829V114.49L49.3673 113.061Z" fill="white"/>
<path d="M59.6503 160.774C58.7053 160.946 57.7471 161.036 56.7865 161.042C56.0488 161.054 55.3118 160.99 54.587 160.852L56.4013 154.505C57.6064 154.715 58.845 154.617 60.002 154.22C60.9808 153.848 61.7531 152.953 62.3188 151.535L62.7877 150.229L52.3763 122.205L60.845 120.714L66.8517 140.973L67.1532 140.917L73.2158 118.526L81.7403 117.063L70.458 151.183C69.948 152.763 69.2068 154.259 68.2585 155.622C67.3246 156.947 66.1321 158.069 64.7527 158.921C63.1881 159.863 61.4552 160.493 59.6503 160.774Z" fill="white"/>
<path d="M92.0456 144.797C90.4075 145.128 88.7164 145.091 87.0939 144.691C85.7226 144.347 84.5119 143.541 83.6663 142.408C82.7659 141.059 82.3253 139.455 82.4102 137.836C82.3729 136.374 82.6768 134.923 83.2978 133.599C83.8749 132.414 84.6991 131.367 85.7151 130.528C86.7716 129.658 87.9463 128.942 89.2041 128.401C90.5366 127.821 91.9099 127.34 93.3128 126.961C94.9987 126.485 96.359 126.079 97.3936 125.744C98.1995 125.51 98.9561 125.132 99.6266 124.628C99.8509 124.443 100.03 124.21 100.151 123.946C100.272 123.682 100.331 123.394 100.324 123.104V122.992C100.37 122.503 100.291 122.01 100.096 121.559C99.9011 121.109 99.5956 120.714 99.2079 120.413C98.4636 119.888 97.4011 119.747 96.0203 119.989C94.742 120.166 93.542 120.709 92.5648 121.552C91.7624 122.271 91.1815 123.205 90.89 124.242L83.4486 124.946C83.8119 123.142 84.575 121.442 85.6816 119.972C86.8405 118.441 88.3042 117.168 89.9801 116.232C93.2675 114.439 96.9957 113.617 100.732 113.859C102.105 113.946 103.447 114.307 104.679 114.92C105.819 115.495 106.767 116.389 107.409 117.493C108.124 118.799 108.471 120.275 108.413 121.764V141.342L100.771 142.715V138.69L100.548 138.729C100.074 139.731 99.4423 140.651 98.6776 141.453C97.8599 142.303 96.9074 143.013 95.8584 143.552C94.6601 144.163 93.3736 144.583 92.0456 144.797ZM94.3512 138.835C95.4775 138.652 96.5492 138.221 97.4885 137.573C98.3606 136.978 99.089 136.196 99.6211 135.285C100.133 134.411 100.401 133.416 100.397 132.404V129.328C100.08 129.575 99.735 129.785 99.3698 129.953C98.9344 130.16 98.4431 130.366 97.9016 130.567C97.3601 130.768 96.8186 130.958 96.2771 131.126L94.8034 131.6C93.9393 131.877 93.1096 132.252 92.3303 132.717C91.6765 133.091 91.114 133.606 90.6835 134.224C90.2884 134.817 90.0839 135.516 90.0973 136.228C90.0554 136.685 90.1464 137.144 90.3594 137.55C90.5723 137.956 90.8981 138.292 91.2976 138.517C92.2494 138.968 93.3268 139.08 94.3512 138.835Z" fill="white"/>
<path d="M113.365 140.499V111.47L121.035 110.152V115.277L121.376 115.216C121.959 113.431 123.022 111.841 124.449 110.62C125.876 109.399 127.611 108.594 129.465 108.293C131.178 107.909 132.971 108.117 134.55 108.885C135.236 109.245 135.838 109.744 136.319 110.351C136.8 110.957 137.148 111.658 137.342 112.408L137.649 112.352C138.262 110.554 139.38 108.97 140.87 107.791C142.464 106.497 144.369 105.644 146.396 105.318C149.102 104.838 151.303 105.31 153.001 106.736C154.698 108.161 155.544 110.446 155.541 113.591V133.13L147.507 134.542V116.561C147.507 114.948 147.083 113.814 146.223 113.161C145.767 112.827 145.244 112.597 144.69 112.485C144.135 112.373 143.564 112.383 143.013 112.514C141.657 112.708 140.43 113.423 139.591 114.507C138.759 115.622 138.327 116.984 138.363 118.375V136.1L130.548 137.473V119.375C130.548 117.951 130.146 116.885 129.331 116.187C128.888 115.829 128.368 115.58 127.812 115.458C127.255 115.336 126.679 115.344 126.126 115.484C125.241 115.64 124.412 116.025 123.72 116.6C123.005 117.185 122.432 117.926 122.046 118.766C121.62 119.68 121.407 120.678 121.42 121.686V139.103L113.365 140.499Z" fill="white"/>
<path d="M168.877 131.282C167.239 131.612 165.548 131.576 163.926 131.176C162.552 130.833 161.341 130.024 160.498 128.887C159.597 127.541 159.156 125.938 159.242 124.321C159.208 122.864 159.512 121.42 160.13 120.1C160.708 118.917 161.532 117.87 162.547 117.03C163.604 116.164 164.776 115.45 166.03 114.909C167.365 114.329 168.74 113.847 170.145 113.468C171.83 112.996 173.191 112.588 174.225 112.246C175.034 112.019 175.792 111.64 176.458 111.129C176.684 110.947 176.865 110.715 176.987 110.452C177.109 110.189 177.169 109.901 177.162 109.611V109.499C177.162 108.301 176.79 107.441 176.045 106.92C175.301 106.399 174.24 106.258 172.863 106.496C171.585 106.673 170.385 107.216 169.408 108.059C168.595 108.773 168.004 109.705 167.705 110.744L160.258 111.453C160.624 109.65 161.387 107.951 162.491 106.479C163.648 104.947 165.112 103.673 166.789 102.739C168.696 101.676 170.775 100.956 172.93 100.612C174.46 100.33 176.019 100.248 177.569 100.366C178.942 100.453 180.284 100.814 181.516 101.427C182.655 102.002 183.603 102.893 184.246 103.995C184.961 105.303 185.308 106.781 185.251 108.271V127.843L177.614 129.189V125.164L177.391 125.203C176.915 126.202 176.283 127.119 175.521 127.921C174.702 128.772 173.75 129.483 172.701 130.026C171.499 130.639 170.209 131.063 168.877 131.282ZM171.183 125.32C172.309 125.135 173.38 124.704 174.32 124.058C175.194 123.463 175.923 122.678 176.453 121.764C176.965 120.893 177.233 119.899 177.229 118.889V115.807C176.912 116.058 176.565 116.268 176.196 116.433C175.719 116.664 175.231 116.871 174.733 117.052C174.194 117.253 173.652 117.439 173.109 117.61L171.635 118.085C170.77 118.36 169.94 118.734 169.162 119.201C168.508 119.576 167.946 120.091 167.515 120.709C167.12 121.299 166.916 121.997 166.929 122.707C166.886 123.165 166.977 123.625 167.19 124.032C167.403 124.439 167.729 124.776 168.129 125.002C169.084 125.456 170.166 125.568 171.194 125.32H171.183Z" fill="white"/>
<path d="M198.258 108.784V125.565L190.208 126.983V97.9544L197.906 96.609V101.728L198.247 101.672C198.883 99.8768 200.001 98.2911 201.479 97.0891C203.063 95.8012 204.96 94.9556 206.978 94.6384C208.735 94.2618 210.564 94.3974 212.247 95.0292C213.742 95.6456 214.976 96.76 215.742 98.1833C216.632 99.9156 217.063 101.847 216.993 103.794V122.277L208.943 123.69V106.646C208.943 104.871 208.502 103.559 207.58 102.739C206.659 101.918 205.398 101.622 203.784 101.901C202.748 102.071 201.767 102.485 200.921 103.107C200.09 103.721 199.427 104.536 198.995 105.474C198.512 106.511 198.261 107.641 198.258 108.784Z" fill="white"/>
</g>
<defs>
<filter id="filter0_d_470_90467" x="0" y="0" width="234" height="185.043" filterUnits="userSpaceOnUse" color-interpolation-filters="sRGB">
<feFlood flood-opacity="0" result="BackgroundImageFix"/>
<feColorMatrix in="SourceAlpha" type="matrix" values="0 0 0 0 0 0 0 0 0 0 0 0 0 0 0 0 0 0 127 0" result="hardAlpha"/>
<feOffset dy="8"/>
<feGaussianBlur stdDeviation="8"/>
<feColorMatrix type="matrix" values="0 0 0 0 1 0 0 0 0 1 0 0 0 0 1 0 0 0 0.32 0"/>
<feBlend mode="normal" in2="BackgroundImageFix" result="effect1_dropShadow_470_90467"/>
<feBlend mode="normal" in="SourceGraphic" in2="effect1_dropShadow_470_90467" result="shape"/>
</filter>
</defs>
</svg>
