<svg width="48" height="48" viewBox="0 0 48 48" fill="none" xmlns="http://www.w3.org/2000/svg">
<rect x="3" y="22" width="30" height="26" rx="2" fill="url(#paint0_linear_4108_345486)"/>
<path d="M3 10C3 9.44772 3.44772 9 4 9H25C25.5523 9 26 9.44772 26 10C26 10.5523 25.5523 11 25 11H3V10Z" fill="#ED5131"/>
<path fill-rule="evenodd" clip-rule="evenodd" d="M14.8877 11H24.999C25.5513 11 25.999 10.5523 25.999 10C25.999 9.44772 25.5513 9 24.999 9H16.0328C15.6016 9.64128 15.2215 10.3112 14.8877 11Z" fill="#CB3B25"/>
<path d="M11 36C11 35.4477 11.4477 35 12 35H24C24.5523 35 25 35.4477 25 36V48H11V36Z" fill="#F0E6C0"/>
<path d="M11 36C11 35.4477 11.4477 35 12 35H18V48H11V36Z" fill="#FFF8DD"/>
<path fill-rule="evenodd" clip-rule="evenodd" d="M12 35C11.4477 35 11 35.4477 11 36V48H12V36.5C12 36.2239 12.2239 36 12.5 36H23.5C23.7761 36 24 36.2239 24 36.5V48H25V36C25 35.4477 24.5523 35 24 35H12Z" fill="#CB2117"/>
<path opacity="0.23" fill-rule="evenodd" clip-rule="evenodd" d="M32.9994 42.9999C27.4994 39.3332 15.5994 30.0999 11.9994 22.4999C11.9173 22.3265 11.8434 22.16 11.7773 22H23.2031C24.5635 22.6681 25.8665 23.3608 26.9994 23.9999L33 30.8572V42.9997L32.9994 42.9999Z" fill="#200501"/>
<path d="M1.80599 12.7092C1.95024 11.7275 2.79248 11 3.78474 11H18L18 25H0L1.80599 12.7092Z" fill="#FCCF74"/>
<path fill-rule="evenodd" clip-rule="evenodd" d="M13 25H18L18 11H14.8878C12.5312 15.8625 12.4793 21.6676 13 25Z" fill="#E2B353"/>
<path fill-rule="evenodd" clip-rule="evenodd" d="M35.4436 21.2131C34.6849 21.5051 33.861 21.6651 32.9998 21.6651C29.2342 21.6651 26.1816 18.606 26.1816 14.8325C26.1816 13.4121 26.6142 12.0929 27.3545 11H18V25H36L35.4436 21.2131Z" fill="#DF9E3D"/>
<path d="M0 25H18V29C18 30.1046 17.1046 31 16 31H2C0.895431 31 0 30.1046 0 29V25Z" fill="#EFC062"/>
<path fill-rule="evenodd" clip-rule="evenodd" d="M16.5336 30.9282C17.3795 30.695 18.0008 29.9201 18.0008 29V25H13.0723C13.8862 27.353 15.3573 29.5136 16.5336 30.9282Z" fill="#C89734"/>
<path d="M18 25H36V29C36 30.1046 35.1046 31 34 31H20C18.8954 31 18 30.1046 18 29V25Z" fill="#C18326"/>
<path fill-rule="evenodd" clip-rule="evenodd" d="M33.0336 42C33.0336 42 48 26.8701 48 15.0316C48 6.72987 41.2843 0 33 0C24.7157 0 18 6.72987 18 15.0316C18 26.8701 33.0336 42 33.0336 42ZM32.9998 21.6652C36.7654 21.6652 39.818 18.6061 39.818 14.8326C39.818 11.0591 36.7654 8.00011 32.9998 8.00011C29.2342 8.00011 26.1816 11.0591 26.1816 14.8326C26.1816 18.6061 29.2342 21.6652 32.9998 21.6652Z" fill="url(#paint1_linear_4108_345486)"/>
<path fill-rule="evenodd" clip-rule="evenodd" d="M33 41.966C33.0222 41.9885 33.0336 42 33.0336 42C33.0336 42 48 26.8701 48 15.0316C48 6.72987 41.2843 0 33 0V8.00011C36.7655 8.0002 39.818 11.0592 39.818 14.8326C39.818 18.6061 36.7655 21.6651 33 21.6652V41.966Z" fill="#AF1A1D"/>
<circle cx="16.5" cy="42.5" r="0.5" fill="#CCC5AA"/>
<circle cx="19.5" cy="42.5" r="0.5" fill="#CCC5AA"/>
<defs>
<linearGradient id="paint0_linear_4108_345486" x1="18" y1="25" x2="18" y2="48" gradientUnits="userSpaceOnUse">
<stop stop-color="#F26036"/>
<stop offset="1" stop-color="#E02C23"/>
</linearGradient>
<linearGradient id="paint1_linear_4108_345486" x1="18.2756" y1="25.007" x2="48.2591" y2="20.844" gradientUnits="userSpaceOnUse">
<stop offset="0.0639" stop-color="#F0444C"/>
<stop offset="0.9125" stop-color="#870000"/>
</linearGradient>
</defs>
</svg>
