<svg width="40" height="40" viewBox="0 0 40 40" fill="none" xmlns="http://www.w3.org/2000/svg">
<path d="M36.5011 14.8167L34.7508 7.53333C34.5837 6.81385 34.1783 6.17199 33.6002 5.71206C33.0221 5.25214 32.3055 5.00119 31.5667 5H8.41171C7.67581 5.00493 6.96303 5.25759 6.38837 5.71722C5.81372 6.17684 5.41071 6.81662 5.24435 7.53333L3.49397 14.8167C3.29211 15.6428 3.28024 16.504 3.45926 17.3354C3.63828 18.1668 4.00353 18.9467 4.52753 19.6167C4.67454 19.7859 4.83034 19.9472 4.9943 20.1V31.6667C4.99694 32.5499 5.34905 33.3962 5.97374 34.0208C6.59842 34.6453 7.44492 34.9974 8.32836 35H31.6668C32.5502 34.9974 33.3967 34.6453 34.0214 34.0208C34.6461 33.3962 34.9982 32.5499 35.0008 31.6667V20.1C35.1646 19.9529 35.3204 19.7971 35.4676 19.6333C35.9953 18.9621 36.3627 18.1793 36.5418 17.3446C36.7209 16.5098 36.707 15.6452 36.5011 14.8167ZM11.6958 8.33333L10.7289 16.4333C10.6817 16.9413 10.4507 17.4145 10.0793 17.7643C9.70798 18.1141 9.22172 18.3164 8.71177 18.3333C8.40994 18.3339 8.11225 18.2632 7.84286 18.1271C7.57348 17.991 7.34002 17.7933 7.16144 17.55C6.94821 17.2781 6.79984 16.9611 6.72762 16.6232C6.6554 16.2852 6.66123 15.9353 6.74468 15.6L8.41171 8.33333H11.6958ZM31.5167 8.31667L33.2671 15.6C33.3514 15.9353 33.3577 16.2854 33.2855 16.6234C33.2132 16.9615 33.0644 17.2785 32.8503 17.55C32.6681 17.7934 32.4315 17.991 32.1595 18.1269C31.8875 18.2629 31.5875 18.3336 31.2833 18.3333C30.7726 18.319 30.285 18.1175 29.9131 17.7672C29.5412 17.4169 29.311 16.9422 29.2662 16.4333L28.2994 8.33333L31.5167 8.31667ZM25.8488 15.8667C25.8907 16.186 25.8633 16.5106 25.7684 16.8183C25.6734 17.1261 25.5132 17.4098 25.2987 17.65C25.0985 17.8744 24.8514 18.052 24.5748 18.1701C24.2982 18.2882 23.9989 18.344 23.6984 18.3333C23.14 18.3108 22.6131 18.0687 22.2323 17.6599C21.8515 17.251 21.6474 16.7084 21.6646 16.15V8.33333H24.932L25.8488 15.8667ZM18.3305 16.15C18.3361 16.4354 18.2845 16.7191 18.1788 16.9843C18.0731 17.2495 17.9155 17.491 17.7151 17.6944C17.5148 17.8978 17.2758 18.0591 17.0121 18.1688C16.7485 18.2786 16.4656 18.3345 16.1801 18.3333C15.8986 18.3302 15.621 18.2677 15.3653 18.15C15.1096 18.0322 14.8817 17.8619 14.6964 17.65C14.4887 17.4055 14.3328 17.1213 14.2382 16.8148C14.1437 16.5082 14.1124 16.1857 14.1463 15.8667L15.0632 8.33333H18.3305V16.15Z" fill="url(#paint0_linear_627_23158)"/>
<defs>
<linearGradient id="paint0_linear_627_23158" x1="3.63947" y1="22.8621" x2="36.0833" y2="15.855" gradientUnits="userSpaceOnUse">
<stop offset="0.0639" stop-color="#F0444C"/>
<stop offset="0.9125" stop-color="#870000"/>
</linearGradient>
</defs>
</svg>
