<svg width="40" height="41" viewBox="0 0 40 41" fill="none" xmlns="http://www.w3.org/2000/svg">
<rect y="0.5" width="40" height="40" rx="20" fill="#FBAF18"/>
<path d="M17.68 22.19L20 20.43L22.31 22.19L21.43 19.34L23.75 17.5H20.91L20 14.69L19.09 17.5H16.25L18.56 19.34L17.68 22.19ZM28 18.5C28 14.08 24.42 10.5 20 10.5C15.58 10.5 12 14.08 12 18.5C12 20.53 12.76 22.37 14 23.78V31.5L20 29.5L26 31.5V23.78C27.2894 22.3235 28.0009 20.4453 28 18.5ZM20 12.5C23.31 12.5 26 15.19 26 18.5C26 21.81 23.31 24.5 20 24.5C16.69 24.5 14 21.81 14 18.5C14 15.19 16.69 12.5 20 12.5Z" fill="white"/>
</svg>
