<?xml version="1.0" encoding="UTF-8" standalone="no" ?>
<!DOCTYPE svg PUBLIC "-//W3C//DTD SVG 1.1//EN" "http://www.w3.org/Graphics/SVG/1.1/DTD/svg11.dtd">
<svg xmlns="http://www.w3.org/2000/svg" xmlns:xlink="http://www.w3.org/1999/xlink" version="1.1" width="57" height="57" viewBox="280 220 57 57" xml:space="preserve">
<desc>Created with Fabric.js 4.6.0</desc>
<defs>
</defs>
<g transform="matrix(1 0 0 1 308.43 248)" id="9JnJuGhw_5tUXkXtILi46"  >
<path style="stroke: none; stroke-width: 1; stroke-dasharray: none; stroke-linecap: butt; stroke-dashoffset: 0; stroke-linejoin: miter; stroke-miterlimit: 4; fill: rgb(48,191,57); fill-rule: nonzero; opacity: 1;" vector-effect="non-scaling-stroke"  transform=" translate(-22, -22)" d="M 16 0 L 28 0 C 36.83655599729269 0 44 7.163444002707301 44 15.999999999999996 L 44 28 C 44 36.83655599729269 36.83655599729269 44 28 44 L 16 44 C 7.163444002707305 44 0 36.83655599729269 0 28 L 0 16 C 0 7.163444002707305 7.163444002707305 0 16 0 z" stroke-linecap="round" />
</g>
<g transform="matrix(0.77 0 0 0.77 308.41 248.1)" id="XVRdb4ZjzZAmi2Xw5xo19"  >
<path style="stroke: none; stroke-width: 1; stroke-dasharray: none; stroke-linecap: butt; stroke-dashoffset: 0; stroke-linejoin: miter; stroke-miterlimit: 4; fill: none; fill-rule: nonzero; opacity: 1;" vector-effect="non-scaling-stroke"  transform=" translate(-10, -10)" d="M 0 20 L 0 0 L 20 0 L 20 20 z" stroke-linecap="round" />
</g>
<g transform="matrix(1.85 0 0 1.85 308.43 248)" id="fTOsQzS8DDo4Q08OLag_B"  >
<path style="stroke: none; stroke-width: 1; stroke-dasharray: none; stroke-linecap: butt; stroke-dashoffset: 0; stroke-linejoin: miter; stroke-miterlimit: 4; fill: rgb(255,255,255); fill-rule: nonzero; opacity: 1;" vector-effect="non-scaling-stroke"  transform=" translate(-10.01, -9.95)" d="M 15.69 4.23 C 14.18 2.7200000000000006 12.18 1.8900000000000006 10.04 1.8900000000000006 C 5.639999999999999 1.8900000000000006 2.0599999999999987 5.470000000000001 2.0599999999999987 9.870000000000001 C 2.0599999999999987 11.280000000000001 2.429999999999999 12.65 3.129999999999999 13.860000000000001 L 2 18 L 6.23 16.89 C 7.4 17.53 8.71 17.86 10.040000000000001 17.86 L 10.040000000000001 17.86 C 14.440000000000001 17.86 18.020000000000003 14.28 18.020000000000003 9.879999999999999 C 18.03 7.75 17.2 5.74 15.69 4.23 z M 10.05 16.51 L 10.05 16.51 C 8.860000000000001 16.51 7.690000000000001 16.19 6.670000000000001 15.590000000000002 L 6.430000000000001 15.450000000000001 L 3.92 16.1 L 4.59 13.650000000000002 L 4.43 13.4 C 3.7699999999999996 12.34 3.42 11.120000000000001 3.42 9.870000000000001 C 3.42 6.210000000000001 6.4 3.240000000000001 10.059999999999999 3.240000000000001 C 11.829999999999998 3.240000000000001 13.499999999999998 3.930000000000001 14.75 5.190000000000001 C 16 6.440000000000001 16.69 8.110000000000001 16.69 9.880000000000003 C 16.68 13.54 13.71 16.51 10.05 16.51 z M 13.69 11.55 C 13.49 11.450000000000001 12.51 10.97 12.33 10.9 C 12.15 10.83 12.01 10.8 11.88 11 C 11.75 11.2 11.360000000000001 11.65 11.25 11.78 C 11.13 11.91 11.02 11.93 10.82 11.83 C 10.620000000000001 11.73 9.98 11.52 9.22 10.84 C 8.62 10.31 8.22 9.66 8.1 9.46 C 7.979999999999999 9.260000000000002 8.09 9.15 8.19 9.05 C 8.28 8.96 8.389999999999999 8.82 8.49 8.700000000000001 C 8.590000000000002 8.580000000000002 8.620000000000001 8.500000000000002 8.69 8.370000000000001 C 8.76 8.24 8.719999999999999 8.120000000000001 8.67 8.020000000000001 C 8.62 7.920000000000002 8.22 6.940000000000001 8.06 6.540000000000001 C 7.89 6.15 7.73 6.2 7.61 6.19 C 7.49 6.19 7.36 6.19 7.22 6.19 C 7.09 6.19 6.87 6.24 6.6899999999999995 6.44 C 6.51 6.640000000000001 5.989999999999999 7.12 5.989999999999999 8.1 C 5.989999999999999 9.08 6.699999999999999 10.03 6.799999999999999 10.16 C 6.899999999999999 10.290000000000001 8.209999999999999 12.31 10.209999999999999 13.17 C 10.69 13.38 11.059999999999999 13.5 11.35 13.59 C 11.83 13.74 12.26 13.72 12.61 13.67 C 12.99 13.61 13.79 13.19 13.959999999999999 12.72 C 14.129999999999999 12.25 14.129999999999999 11.850000000000001 14.079999999999998 11.770000000000001 C 14.02 11.69 13.89 11.64 13.69 11.55 z" stroke-linecap="round" />
</g>
</svg>