<svg width="100" height="29" viewBox="0 0 100 29" fill="none" xmlns="http://www.w3.org/2000/svg">
<g clip-path="url(#clip0_603_138745)">
<path d="M31.1172 19.0067C31.1172 19.0067 30.7883 15.8535 31.1851 13.6605C31.1851 13.6605 31.3183 12.0706 31.3715 11.4754C31.4248 10.8802 31.6818 9.85355 32.6924 9.97605C33.7031 10.0986 35.4887 10.9281 35.2091 12.4674C34.9295 14.0067 34.4887 15.6432 34.3462 16.976C34.2038 18.3089 34.052 19.6072 34.1611 20.9388C34.2703 22.2703 33.6698 22.4128 33.3316 22.4448C32.9934 22.4767 31.5766 21.9561 31.1172 19.0067Z" fill="#F4F4F5"/>
<path d="M33.0453 8.79762C33.0453 8.79762 32.2623 8.88683 31.98 7.98537C31.6977 7.0839 31.5646 5.94409 32.3875 5.49802C33.2104 5.05195 34.6272 5.57658 34.9174 6.17179C35.2077 6.76699 35.3036 7.45008 34.4407 8.16912C34.4421 8.1638 33.6578 8.7883 33.0453 8.79762Z" fill="#F4F4F5"/>
<path d="M39.4142 22.446C39.4142 22.446 37.2917 22.735 36.534 20.5539C35.7763 18.3728 36.7564 13.205 36.8589 12.3741C36.9614 11.5432 36.317 9.60583 37.1905 9.46335C38.064 9.32087 40.6112 9.61115 40.534 11.8801C40.534 11.8801 40.3795 13.98 40.1345 15.3502C39.8895 16.7203 39.8456 18.4127 40.2224 18.0279C40.5992 17.6431 42.7524 13.735 45.1638 11.9028C47.5753 10.0705 50.7817 9.39544 51.5553 11.5033C52.3289 13.6112 51.1026 15.5566 51.4607 18.442C51.8189 21.3275 52.4394 22.2197 51.9654 22.4527C51.4914 22.6857 48.7018 22.3195 47.7963 18.4341C46.8908 14.5486 47.8536 13.5273 47.1825 13.249C46.5114 12.9707 45.0746 14.221 43.6805 16.4514C42.2863 18.6817 42.0387 19.2237 41.8376 19.6098C41.6365 19.996 40.8709 22.2876 39.4142 22.446Z" fill="#F4F4F5"/>
<path d="M55.671 20.1558C55.671 20.1558 53.2476 20.9055 53.3954 17.7177C53.3954 17.7177 53.6617 15.3129 54.2396 13.4168C54.8175 11.5206 54.8921 5.75367 54.6298 4.27964C54.3674 2.8056 53.932 1.91612 55.2569 1.85221C56.5818 1.78829 58.2183 2.68044 58.2463 4.42744C58.2742 6.17444 58.0718 8.83623 57.8082 10.3382C57.5446 11.8402 57.7057 12.5406 57.9227 12.4834C58.1398 12.4261 60.6431 10.0386 63.6045 10.4993C66.5659 10.9601 67.7443 12.7803 67.8734 15.0266C68.0026 17.273 67.2276 21.7976 60.1864 22.8043C60.1864 22.8043 55.6591 23.1425 54.8761 21.4727C54.8761 21.4727 54.7216 20.8895 56.1304 20.7923C57.5392 20.6951 61.8814 20.2357 63.8761 18.7949C65.8708 17.3542 66.4607 14.8003 63.92 13.5073C61.3794 12.2144 59.3528 13.261 58.4607 13.9627C57.5685 14.6645 57.0346 16.1531 56.936 17.5499C56.8375 18.9467 56.4873 19.9334 55.671 20.1558Z" fill="#F4F4F5"/>
<path d="M85.6379 19.6405C85.6379 19.6405 84.7178 16.779 84.4608 16.0746C84.2038 15.3702 83.4475 14.0493 82.0746 14.3076C80.7018 14.5659 80.2557 14.6671 78.281 16.1438C76.3063 17.6205 74.3156 19.9734 72.1359 19.1478C69.9561 18.3222 73.4062 14.1358 76.4954 13.0226C79.5846 11.9095 80.2557 11.8376 81.3196 12.0786C82.3835 12.3196 82.8296 12.0439 82.8296 11.7004C82.8296 11.3569 82.281 9.69241 79.6538 9.52064C77.0267 9.34887 74.2304 10.9108 73.1652 11.7843C72.0999 12.6578 69.7497 14.478 68.9428 16.6764C68.1359 18.8748 70.4155 21.4115 70.4155 21.4115C70.4155 21.4115 72.4807 23.9854 76.2078 21.6525C76.2078 21.6525 78.3263 20.3356 79.3596 18.7603C80.3929 17.1851 81.2411 16.9135 81.4901 17.5912C81.7391 18.269 83.1678 21.6751 85.8616 22.3702C85.8616 22.3702 86.5114 22.6365 86.7937 22.3196C87.076 22.0027 85.9242 20.5273 85.6379 19.6405Z" fill="#F4F4F5"/>
<path d="M92.1266 11.9987C92.1266 11.9987 92.7098 11.771 92.7684 12.0772C92.827 12.3835 92.3143 12.4141 92.0667 12.6711C91.819 12.9281 90.6086 13.8495 90.3529 15.4354C90.0973 17.0213 90.4382 18.9308 91.9508 20.1079C93.4635 21.285 95.1905 20.2943 95.7364 18.9308C96.2824 17.5672 96.4182 14.5486 95.3956 12.0413C94.3729 9.53395 92.9482 7.03196 90.5047 5.39547C88.0613 3.75899 88.0187 4.11851 87.8789 3.66445C87.7391 3.21039 89.1798 3.32756 89.7284 3.44341C90.277 3.55925 96.2145 4.76564 98.9642 10.024C101.714 15.2823 98.4315 19.0626 96.9855 20.6338C95.5394 22.2051 92.7884 23.0479 90.1599 22.3489C87.5314 21.6498 86.4941 19.6471 86.5646 17.3555C86.6352 15.0639 89.7697 12.7949 92.1266 11.9987Z" fill="#F4F4F5"/>
<path d="M14.4155 12.3595C13.6325 12.237 12.9508 12.0786 12.4954 11.8202C10.7497 10.8336 10.6312 9.65513 11.5074 6.74035C11.9561 5.24234 12.9947 4.05326 14.4155 3.13582V0C10.6185 0.0646804 6.99498 1.60156 4.30931 4.28648C1.62364 6.97141 0.0857537 10.5945 0.0200195 14.3915H14.4155V12.3595Z" fill="#E2E2E2"/>
<path d="M12.7723 7.37022C12.7723 7.37022 12.4753 8.14785 13.6498 8.66715C13.8964 8.76166 14.1534 8.82648 14.4154 8.86023V5.87488C13.0585 6.67115 12.7723 7.37022 12.7723 7.37022Z" fill="#E2E2E2"/>
<path d="M19.3076 1.23969C23.1331 0.402141 24.0199 0.965389 24.241 1.48869C24.462 2.01199 24.6032 3.44342 23.6977 4.7337C23.6977 4.7337 23.2064 5.44741 22.506 5.13317C21.8056 4.81892 20.8295 3.64315 17.1118 4.755C16.1727 5.0202 15.2688 5.39706 14.4194 5.87751V8.86286C15.6258 9.0546 17.6591 9.10121 19.3089 9.46472L28.5472 0.173114C28.413 0.0553155 28.2411 -0.0107791 28.0625 -0.0133057H14.6657C14.5819 -0.0133057 14.4993 -0.00265166 14.4154 -0.0013201V3.13849C15.7589 2.27032 17.4434 1.64715 19.3076 1.23969Z" fill="#EAEAEA"/>
<path d="M14.4154 12.3596V14.3809L16.193 12.5939C15.5792 12.5167 14.9707 12.4474 14.4154 12.3596Z" fill="#EAEAEA"/>
<path d="M16.193 12.5912L14.4154 14.3809V14.3942H21.1305C21.0322 14.2569 20.924 14.1269 20.8069 14.0054C19.9281 13.0813 18.0199 12.8123 16.193 12.5912Z" fill="#F4F4F5"/>
<path d="M28.5433 0.170471L19.3076 9.46208C20.0599 9.62719 20.7324 9.86155 21.2104 10.1984C22.7457 11.2916 23.3942 12.3502 23.4994 14.3915H28.8123C28.8123 14.3063 28.8256 14.2251 28.8256 14.1398V0.748367C28.8242 0.637165 28.7981 0.52766 28.7493 0.427733C28.7005 0.327807 28.6302 0.239945 28.5433 0.170471Z" fill="#F4F4F5"/>
<path d="M14.4154 23.012C17.0386 22.4208 19.2996 20.9041 20.4274 19.6578C21.7789 18.1664 22.3182 16.0253 21.1305 14.3915H14.4154V23.012Z" fill="#F9F9FA"/>
<path d="M23.4966 14.3915C23.5153 14.7483 23.5179 15.1358 23.5046 15.5593C23.4194 18.3995 21.6112 21.3222 19.5219 23.3901C18.092 24.7578 16.333 25.733 14.4154 26.221V28.7856C18.2127 28.7206 21.8362 27.1832 24.5217 24.4977C27.2071 21.8123 28.7445 18.1887 28.8096 14.3915H23.4966Z" fill="#F9F9FA"/>
<path d="M6.60985 25.5845C5.85386 25.2903 5.15632 24.8638 4.54993 24.3249L0.28894 28.6125C0.423256 28.7302 0.595061 28.7963 0.773628 28.7989H14.1638C14.249 28.7989 14.3315 28.7869 14.4154 28.7856V26.221C12.2264 26.7869 9.5659 26.7949 6.60985 25.5845Z" fill="#F4F4F5"/>
<path d="M12.0213 23.2636C12.8275 23.2773 13.6324 23.1928 14.4181 23.012V14.4034L6.88818 21.9707C7.91881 22.6578 9.53798 23.2117 12.0213 23.2636Z" fill="#F4F4F5"/>
<path d="M3.96545 17.1225C3.96545 17.1225 4.82563 15.3449 5.25972 14.9254C5.30529 14.8656 5.36331 14.8165 5.42975 14.7813C5.49619 14.7461 5.56947 14.7258 5.64454 14.7217C5.88156 14.7217 5.54201 15.8296 5.54201 15.8296C5.54201 15.8296 5.00939 17.739 5.04534 18.3955C5.08129 19.0519 5.0227 19.9667 5.83629 21.0173C6.13229 21.3917 6.48764 21.7152 6.88822 21.9747L14.4155 14.4035V14.3915H0.0200407C0.0200407 14.4754 0.00805664 14.5579 0.00805664 14.6418V28.0346C0.00915035 28.1456 0.0347884 28.255 0.083133 28.3549C0.131478 28.4548 0.201331 28.5428 0.287684 28.6125L4.54867 24.3249C1.48742 21.5113 3.96545 17.1225 3.96545 17.1225Z" fill="#EAEAEA"/>
</g>
<defs>
<clipPath id="clip0_603_138745">
<rect width="100" height="28.7617" fill="white"/>
</clipPath>
</defs>
</svg>
